<?xml version="1.0" standalone="no"?>
<!DOCTYPE svg PUBLIC "-//W3C//DTD SVG 20010904//EN"
 "http://www.w3.org/TR/2001/REC-SVG-20010904/DTD/svg10.dtd">
<svg version="1.0" xmlns="http://www.w3.org/2000/svg"
 width="501.000000pt" height="498.000000pt" viewBox="0 0 501.000000 498.000000"
 preserveAspectRatio="xMidYMid meet">

<g transform="translate(0.000000,498.000000) scale(0.100000,-0.100000)"
fill="#000000" stroke="none">
<path d="M1990 4878 c-418 -225 -1120 -440 -1785 -545 l-50 -8 -12 -70 c-66
-399 -53 -952 33 -1430 195 -1084 797 -1911 1753 -2408 l155 -81 160 82 c89
45 190 100 224 122 58 37 63 42 50 59 -7 10 -36 50 -64 89 l-50 70 -85 -50
c-46 -27 -118 -67 -159 -88 l-76 -38 -122 68 c-368 205 -647 431 -889 720
-352 420 -576 917 -682 1515 -60 334 -81 676 -62 997 7 108 16 209 20 224 7
27 10 28 197 65 553 109 1013 254 1425 451 l126 60 94 -47 c381 -192 896 -356
1472 -470 92 -18 170 -34 171 -36 10 -11 26 -322 26 -496 0 -268 -25 -559 -65
-758 l-6 -30 106 -23 c59 -13 109 -22 110 -20 5 6 35 192 52 328 25 197 25
796 0 1003 -23 194 -23 193 -89 201 -112 14 -552 108 -733 156 -368 98 -765
246 -1011 376 -67 35 -126 64 -130 64 -5 0 -52 -23 -104 -52z"/>
<path d="M1906 4144 c-137 -33 -295 -135 -383 -246 -67 -84 -96 -138 -129
-233 -27 -76 -29 -91 -34 -315 l-5 -235 -87 -3 c-83 -3 -88 -4 -112 -33 l-26
-31 0 -704 c0 -725 0 -731 39 -761 12 -9 140 -12 521 -13 l506 0 16 113 c22
151 59 270 123 402 132 273 356 500 618 628 l108 52 -3 148 -3 149 -28 24
c-25 21 -38 24 -111 24 l-84 0 -5 223 c-6 253 -13 291 -83 434 -74 151 -191
262 -358 338 -39 18 -95 38 -124 44 -73 15 -284 12 -356 -5z m307 -180 c106
-24 167 -57 250 -134 52 -48 85 -90 110 -138 58 -111 67 -160 67 -384 l0 -198
-547 2 -548 3 -3 170 c-1 94 2 200 9 237 17 106 77 219 157 297 79 77 143 114
244 141 91 24 168 25 261 4z m-38 -1323 c53 -24 83 -55 106 -105 38 -83 13
-189 -57 -242 l-34 -26 0 -139 0 -139 -29 -32 c-24 -27 -36 -33 -71 -33 -34 0
-47 6 -66 28 -23 27 -24 35 -24 166 l0 138 -49 49 c-33 34 -53 64 -61 94 -44
165 130 313 285 241z"/>
<path d="M3405 2744 c-522 -77 -929 -438 -1062 -943 -34 -128 -43 -370 -19
-508 19 -112 67 -266 108 -348 220 -438 649 -705 1131 -705 594 0 1107 423
1227 1009 25 121 27 338 5 462 -76 437 -392 815 -805 963 -147 53 -225 67
-395 71 -88 2 -173 1 -190 -1z m343 -260 c253 -51 465 -182 612 -379 78 -104
112 -169 154 -296 105 -316 52 -644 -147 -916 -188 -255 -484 -403 -807 -403
-468 0 -863 309 -976 765 -24 94 -27 130 -27 250 0 117 4 155 25 235 97 363
372 640 723 728 112 29 116 29 248 31 73 0 147 -5 195 -15z"/>
<path d="M3485 2400 c-143 -29 -264 -139 -316 -285 -18 -50 -20 -76 -17 -152
5 -79 10 -103 38 -160 84 -171 268 -266 453 -235 223 39 359 216 344 447 -7
109 -38 184 -105 256 -101 109 -252 158 -397 129z"/>
<path d="M3114 1532 c-51 -38 -136 -126 -179 -186 -68 -96 -124 -264 -128
-386 -4 -121 -78 -110 769 -110 l724 0 21 21 c20 20 21 29 15 108 -8 115 -26
178 -82 289 -68 135 -219 292 -281 292 -14 0 -57 -20 -96 -43 -92 -56 -151
-76 -257 -87 -132 -14 -256 19 -376 100 -56 37 -80 38 -130 2z"/>
</g>
</svg>
