<?xml version="1.0" standalone="no"?>
<!DOCTYPE svg PUBLIC "-//W3C//DTD SVG 20010904//EN"
 "http://www.w3.org/TR/2001/REC-SVG-20010904/DTD/svg10.dtd">
<svg version="1.0" xmlns="http://www.w3.org/2000/svg"
 width="463.000000pt" height="463.000000pt" viewBox="0 0 463.000000 463.000000"
 preserveAspectRatio="xMidYMid meet">

<g transform="translate(0.000000,463.000000) scale(0.100000,-0.100000)"
fill="#000000" stroke="none">
<path d="M2185 4539 c-549 -34 -1050 -262 -1440 -654 -339 -341 -552 -762
-625 -1239 -25 -164 -27 -476 -5 -631 43 -305 144 -595 296 -847 306 -509 806
-880 1378 -1022 316 -79 721 -83 1036 -11 506 117 973 420 1280 830 233 312
371 643 432 1035 24 156 24 471 0 630 -176 1160 -1188 1981 -2352 1909z m382
-344 c817 -106 1473 -737 1618 -1555 25 -145 31 -409 11 -557 -110 -832 -727
-1477 -1557 -1629 -121 -22 -381 -29 -524 -15 -209 22 -449 92 -641 189 -493
248 -856 699 -988 1229 -75 300 -75 626 0 926 185 742 818 1309 1574 1411 142
19 363 19 507 1z"/>
<path d="M2250 3414 c-38 -17 -75 -48 -93 -79 -8 -14 -14 -145 -17 -425 l-5
-405 -405 -5 c-434 -5 -427 -4 -473 -60 -73 -87 -53 -218 43 -274 33 -20 54
-21 435 -26 l400 -5 5 -406 5 -406 28 -36 c39 -51 81 -71 149 -71 73 1 126 34
157 96 20 43 21 57 21 436 l0 392 398 0 c394 0 397 0 434 23 60 36 82 72 86
143 5 75 -15 123 -66 162 l-35 27 -406 5 -406 5 -5 400 c-4 346 -7 404 -21
430 -44 80 -146 115 -229 79z"/>
</g>
</svg>
