<?xml version="1.0" encoding="UTF-8"?>
<svg version="1.1" xmlns="http://www.w3.org/2000/svg" width="412" height="473">
<path d="M0 0 C1.21732315 0.45047195 2.4346463 0.90094391 3.68885803 1.36506653 C6.92196872 2.56162234 10.15189673 3.76654796 13.38122559 4.9732666 C16.61356357 6.1793988 19.84888095 7.37748139 23.08398438 8.57617188 C28.01794587 10.40451547 32.94737726 12.24464104 37.87451172 14.09130859 C41.78749224 15.55465562 45.7066073 16.98682428 49.65283203 18.35791016 C50.40085587 18.62235428 51.1488797 18.8867984 51.91957092 19.15925598 C53.78955316 19.81703108 55.66512833 20.45885157 57.54125977 21.09887695 C60.99737159 22.81031553 62.31859174 24.28443469 64.41015625 27.51953125 C64.90463257 30.87388611 64.90463257 30.87388611 64.89599609 34.74975586 C64.89979279 35.45951569 64.90358948 36.16927551 64.90750122 36.90054321 C64.91489368 39.24144083 64.8935254 41.58108794 64.87109375 43.921875 C64.86870602 45.56270706 64.8678047 47.20354189 64.86831665 48.84437561 C64.86518967 52.28680515 64.84864717 55.72881797 64.82177734 59.17114258 C64.78803897 63.54500947 64.78014228 67.91841385 64.78166771 72.29239559 C64.78111846 75.68573786 64.77005957 79.07898255 64.75566483 82.47229195 C64.74937402 84.08233465 64.74537639 85.69238825 64.74387741 87.30244255 C64.69476123 112.51383425 59.66690759 135.11825159 42.41015625 154.51953125 C41.81847656 155.19371094 41.22679687 155.86789062 40.6171875 156.5625 C26.66381042 171.46791986 1.8983546 185.87463063 -18.58984375 188.51953125 C-20.93896484 188.02563477 -20.93896484 188.02563477 -23.36328125 187.1484375 C-24.26336914 186.82544678 -25.16345703 186.50245605 -26.09082031 186.16967773 C-27.51346191 185.63129272 -27.51346191 185.63129272 -28.96484375 185.08203125 C-29.94420898 184.71730713 -30.92357422 184.35258301 -31.93261719 183.97680664 C-57.08634262 174.37194445 -81.19026263 157.70375771 -92.58984375 132.51953125 C-98.61298204 117.45062713 -99.91156543 102.47365265 -99.92578125 86.42578125 C-99.93222143 84.70373427 -99.93895067 82.98168834 -99.94595337 81.25964355 C-99.95784534 77.67599952 -99.96164174 74.0924514 -99.96044922 70.50878906 C-99.96024452 65.9176489 -99.98773652 61.32711727 -100.02199364 56.73612213 C-100.04420208 53.19137735 -100.04828891 49.64678173 -100.04722977 46.10197449 C-100.04958754 44.40827808 -100.05842104 42.71457768 -100.0738945 41.02095032 C-100.09346671 38.66131031 -100.08775617 36.30302057 -100.07568359 33.94335938 C-100.08692261 33.24723541 -100.09816162 32.55111145 -100.10974121 31.83389282 C-100.06758321 28.5952171 -99.80486578 26.80899844 -97.85255432 24.18075562 C-95.54887381 22.48945217 -93.5849906 21.47997397 -90.90063477 20.51611328 C-89.97032944 20.17514618 -89.04002411 19.83417908 -88.08152771 19.48287964 C-87.07493607 19.1263028 -86.06834442 18.76972595 -85.03125 18.40234375 C-82.85157835 17.60880184 -80.67205926 16.81484082 -78.49267578 16.02050781 C-77.35759583 15.61078735 -76.22251587 15.20106689 -75.05303955 14.77893066 C-70.51902764 13.13012642 -66.00635607 11.427155 -61.49325562 9.72210693 C-56.98359997 8.02181915 -52.46569118 6.34412875 -47.94702148 4.66796875 C-45.63464442 3.80687367 -43.32446922 2.93984618 -41.01635742 2.06738281 C-37.61780976 0.78394551 -34.21229641 -0.47913311 -30.8046875 -1.73828125 C-29.77866928 -2.13081085 -28.75265106 -2.52334045 -27.69554138 -2.92776489 C-17.15377783 -6.77435142 -10.17729481 -3.81810291 0 0 Z M7.41015625 63.51953125 C6.34853566 64.74945754 5.28604525 65.97863361 4.22265625 67.20703125 C3.66191406 67.86058594 3.10117188 68.51414062 2.5234375 69.1875 C-0.24293633 72.24022676 -3.16088491 75.12363063 -6.08984375 78.01953125 C-10.17786255 82.0615138 -14.10399925 86.14402145 -17.82421875 90.53125 C-21.54286835 94.71884435 -25.5952714 98.59729522 -29.58984375 102.51953125 C-33.3754897 99.41955077 -36.86321289 96.33443441 -40.08984375 92.65234375 C-40.66734375 91.99492187 -41.24484375 91.3375 -41.83984375 90.66015625 C-43.01815619 89.30299282 -44.18467687 87.93551141 -45.33984375 86.55859375 C-49.03641209 82.3848474 -49.03641209 82.3848474 -54.37109375 80.9765625 C-57.61300877 81.31292324 -57.61300877 81.31292324 -60.08984375 83.08203125 C-61.74255747 85.76769105 -61.99842092 87.32338696 -61.46826172 90.42163086 C-59.39383435 95.37592614 -54.74251892 98.90841916 -50.90234375 102.51953125 C-49.10457769 104.24641765 -47.30895583 105.97553941 -45.515625 107.70703125 C-44.66258789 108.52478027 -43.80955078 109.3425293 -42.93066406 110.18505859 C-40.87616621 112.23398522 -39.00011512 114.32174555 -37.15625 116.55859375 C-34.7968167 119.732112 -34.7968167 119.732112 -31.21484375 120.89453125 C-23.36650469 120.08263411 -17.39297405 111.35913369 -12.27734375 105.76953125 C-7.79785001 100.92756099 -3.28336715 96.15479022 1.41015625 91.51953125 C4.95689517 88.01451867 8.28603686 84.4281679 11.515625 80.6328125 C14.85909859 76.90328835 18.47496571 73.43822104 22.0546875 69.9375 C24.51739891 67.55720045 24.51739891 67.55720045 26.41015625 64.51953125 C26.17802659 59.47951717 26.17802659 59.47951717 23.41015625 55.51953125 C15.31539711 54.12388312 12.45173624 57.5622357 7.41015625 63.51953125 Z " fill="#000000" transform="translate(222.58984375,241.48046875)"/>
<path d="M0 0 C1.146342 -0.00384115 2.29268401 -0.00768229 3.47376364 -0.01163983 C5.3560321 -0.01034011 5.3560321 -0.01034011 7.27632618 -0.00901413 C8.62644991 -0.01159889 9.97657288 -0.01461236 11.32669479 -0.01801753 C15.03581197 -0.02607774 18.74490978 -0.02787656 22.45403469 -0.028615 C26.45486238 -0.03046726 30.45568006 -0.03801548 34.45650196 -0.04475021 C43.20453083 -0.05832717 51.95255511 -0.06435728 60.70059276 -0.06876087 C66.16402804 -0.07152441 71.62746156 -0.07576197 77.09089565 -0.08026505 C92.22072933 -0.09245694 107.3505616 -0.10275637 122.48040009 -0.10614014 C123.44858535 -0.1063597 124.41677062 -0.10657927 125.41429483 -0.10680549 C126.8700266 -0.10713291 126.8700266 -0.10713291 128.35516709 -0.10746694 C130.32171007 -0.1079104 132.28825305 -0.10835696 134.25479603 -0.10880661 C135.23026706 -0.10902804 136.20573809 -0.10924947 137.21076886 -0.10947761 C153.01437383 -0.11342503 168.81793267 -0.13087769 184.62151983 -0.15416613 C200.85096634 -0.17788887 217.08038972 -0.19034241 233.30985385 -0.19150805 C242.42041461 -0.1924243 251.53091527 -0.19816397 260.64145947 -0.21632767 C268.39980845 -0.23174109 276.15807876 -0.23684179 283.91644015 -0.22858956 C287.87311868 -0.22468744 291.82963884 -0.22559117 295.7862978 -0.23964691 C299.41292609 -0.25241215 303.03927741 -0.25116554 306.66590545 -0.2390562 C308.5899188 -0.23618322 310.51393704 -0.24801511 312.43791217 -0.26047826 C325.47930374 -0.18635184 336.3684407 3.36862683 346.04019642 12.38142776 C355.46841158 22.49896998 358.7585773 33.90985094 358.67787647 47.47223282 C358.68595478 49.12112073 358.68595478 49.12112073 358.69419628 50.80331951 C358.70843353 54.46415577 358.70138241 58.12462827 358.69424915 61.7854805 C358.69995491 64.41933195 358.70681998 67.05315782 358.71504688 69.68700027 C358.73219323 76.08488302 358.73308364 82.48266738 358.72783398 88.88056713 C358.72378349 94.08333362 358.72524625 99.28607116 358.73058224 104.48883629 C358.73133066 105.23087761 358.73207908 105.97291893 358.73285018 106.73744636 C358.73438174 108.24516098 358.73592009 109.75287559 358.73746515 111.2605902 C358.75117496 125.38131157 358.74576306 139.50197745 358.73427994 153.62269754 C358.72434775 166.52510582 358.73729064 179.42737069 358.76121413 192.32975685 C358.7856288 205.59761705 358.79520728 218.86541053 358.7885614 232.13329273 C358.78507462 239.5743531 358.7872655 247.0153032 358.80481243 254.45634651 C358.81956403 260.79020098 358.82013135 267.12386752 358.80274152 273.45771842 C358.7942535 276.68553655 358.79421244 279.9129519 358.80739307 283.14076424 C358.8206212 286.64870315 358.80903793 290.15573848 358.79140186 293.66363907 C358.80100687 294.67144171 358.81061188 295.67924435 358.82050794 296.71758646 C358.70860497 307.58108885 354.94074425 316.62002105 348.29019642 325.13142776 C347.81195423 325.74759964 347.33371204 326.36377151 346.84097767 326.99861526 C339.4664007 335.35770755 328.14519128 339.77350347 317.29019642 341.13142776 C312.68181294 341.41652884 308.09387116 341.45651962 303.47769642 341.44392776 C302.2769347 341.46004105 301.07617298 341.47615433 299.83902454 341.49275589 C298.68209095 341.49340042 297.52515736 341.49404495 296.33316517 341.49470901 C295.29184437 341.49768997 294.25052357 341.50067093 293.17764759 341.50374222 C289.57088328 341.03867791 286.88008492 339.72131627 284.29019642 337.13142776 C283.72638155 331.39930995 283.72638155 331.39930995 284.29019642 329.13142776 C288.05207817 325.41827281 290.50477299 324.64158305 295.73550892 324.66267776 C296.97816517 324.64849808 298.22082142 324.63431839 299.50113392 324.61970901 C302.08707163 324.62745134 304.67300914 324.63526256 307.25894642 324.64314651 C317.41574869 324.52796628 327.11458056 323.22251438 334.79019642 315.97127151 C339.88392307 309.72349742 342.41153983 302.53808532 342.41883087 294.52766418 C342.42205532 293.62802657 342.42527976 292.72838895 342.42860192 291.80148959 C342.42705332 290.82221916 342.42550472 289.84294874 342.42390919 288.83400345 C342.42617474 287.78660846 342.4284403 286.73921347 342.43077451 285.66007924 C342.43711243 282.14498373 342.43628527 278.6299268 342.43546009 275.1148262 C342.43845173 272.59670334 342.44185427 270.07858094 342.4456377 267.56045914 C342.45356291 261.42661585 342.45669237 255.29278672 342.45725008 249.1589388 C342.4577255 244.17152864 342.45978154 239.18412165 342.46295071 234.19671249 C342.4717567 220.0500978 342.47637025 205.90349068 342.47562023 191.75687322 C342.47558028 190.99440688 342.47554032 190.23194055 342.47549915 189.44636917 C342.47545827 188.68296948 342.47541739 187.91956978 342.47537527 187.13303676 C342.47496897 174.76572326 342.48453471 162.39844022 342.49863752 150.03113553 C342.51301075 137.32620219 342.51990716 124.6212837 342.51904374 111.91634202 C342.51871207 104.78605631 342.52144614 97.65580252 342.53222179 90.52552414 C342.54229367 83.81802597 342.54198174 77.11060634 342.53470516 70.40310097 C342.53365932 67.94288853 342.53602219 65.4826719 342.54206562 63.02246666 C342.54978847 59.66049412 342.54513856 56.29875422 342.53743458 52.93678665 C342.54514992 51.48126534 342.54514992 51.48126534 342.55302113 49.99633956 C342.5026341 40.02510796 341.03736613 31.7849337 334.29019642 24.13142776 C325.2142287 16.28012852 315.85867684 15.83461691 304.32294178 15.87073135 C303.02459239 15.86690581 301.726243 15.86308026 300.38854969 15.85913879 C296.8001995 15.84888226 293.2119495 15.85103459 289.62359118 15.85531938 C285.74755614 15.85779088 281.87154494 15.84876719 277.99551868 15.84128189 C270.40791085 15.82854463 262.82033842 15.82673999 255.2327217 15.82908215 C249.06403897 15.83086656 242.89536697 15.82911304 236.72668552 15.82485771 C235.8480918 15.82426252 234.96949807 15.82366733 234.06428029 15.82305411 C232.27930388 15.82184233 230.49432746 15.8206282 228.70935105 15.81941173 C211.97673841 15.80853994 195.24414594 15.81069698 178.51153217 15.81679658 C163.21250288 15.82196542 147.91353726 15.81071051 132.61452056 15.79169836 C116.89574049 15.7723147 101.17699053 15.76406489 85.45819843 15.76782161 C76.63720375 15.76973285 67.81626327 15.7672536 58.99527836 15.75310707 C51.48586046 15.74118558 43.97653012 15.739797 36.46711101 15.75189724 C32.63800579 15.75778053 28.80906066 15.75890067 24.97996616 15.74689484 C20.82365706 15.73401481 16.66772797 15.74451349 12.51141834 15.75720596 C11.30868216 15.74983168 10.10594597 15.74245739 8.86676323 15.73485965 C-1.70996318 15.80275121 -10.95804324 17.46598992 -18.70980358 25.13142776 C-25.02990381 33.04361431 -26.00837833 40.91103498 -25.97049999 50.73855972 C-25.97432554 51.7951251 -25.97815109 52.85169048 -25.98209256 53.94027299 C-25.99239694 57.47450109 -25.98843521 61.00856596 -25.98446178 64.54280472 C-25.9888097 67.07930527 -25.99399311 69.6158045 -25.99994946 72.15230179 C-26.01195213 78.32365226 -26.01449174 84.49494273 -26.01214919 90.6663026 C-26.0103642 95.68464766 -26.01211957 100.70297953 -26.01637363 105.72132301 C-26.01696882 106.43630592 -26.01756401 107.15128882 -26.01817724 107.88793787 C-26.01938903 109.34057282 -26.02060316 110.79320777 -26.02181961 112.24584272 C-26.03269036 125.86195661 -26.03053502 139.47804572 -26.02443477 153.094161 C-26.01926755 165.53828828 -26.03051672 177.98233724 -26.04953299 190.42644904 C-26.06892698 203.21620669 -26.07716455 216.00592732 -26.07340974 228.79569978 C-26.07149986 235.97127274 -26.07396424 243.14677907 -26.08812428 250.32234001 C-26.10130896 257.07176143 -26.09875685 263.82100102 -26.08571339 270.57043076 C-26.08334833 273.0447374 -26.08607972 275.51905508 -26.09433651 277.99334908 C-26.1048114 281.37686217 -26.0966967 284.7598504 -26.08402538 288.14334488 C-26.09139967 289.11719724 -26.09877395 290.09104959 -26.1063717 291.09441262 C-26.02827585 301.04034988 -23.86264485 309.89803648 -16.70980358 317.13142776 C-10.15750218 322.36527827 -3.23912673 324.3612823 5.14175892 324.40486526 C6.40504017 324.42549026 7.66832142 324.44611526 8.96988392 324.46736526 C11.60783844 324.49348363 14.24588305 324.51166669 16.88394642 324.52205276 C18.77500111 324.55685745 18.77500111 324.55685745 20.70425892 324.59236526 C21.84846302 324.60058304 22.99266712 324.60880081 24.17154408 324.61726761 C27.9254086 325.23615274 29.60452116 326.48616411 32.29019642 329.13142776 C33.14937097 332.07636159 32.68875852 333.99275126 32.29019642 337.13142776 C30.47856375 339.80574266 29.41258565 340.09063135 26.29019642 341.13142776 C21.81549394 341.39646444 17.33438434 341.36303192 12.85269642 341.38142776 C11.02061634 341.41236526 11.02061634 341.41236526 9.15152454 341.44392776 C-5.57231589 341.50661575 -18.38084091 338.21684556 -29.45980358 328.13142776 C-36.35087988 320.85613678 -41.82169793 310.59838894 -41.84402466 300.45327282 C-41.8484825 299.51157551 -41.85294035 298.5698782 -41.85753328 297.5996446 C-41.85734891 296.56824324 -41.85716455 295.53684189 -41.8569746 294.47418594 C-41.86065129 293.37597033 -41.86432798 292.27775472 -41.86811608 291.14625984 C-41.87916067 287.4530787 -41.88299811 283.75992569 -41.88680553 280.0667305 C-41.89306963 277.42392179 -41.89970361 274.78111609 -41.90671825 272.13830948 C-41.92646945 264.19770065 -41.93654765 256.25709057 -41.94544604 248.31646332 C-41.94983158 244.57467494 -41.95519774 240.83288796 -41.96043491 237.09110069 C-41.97744666 224.64805362 -41.9919397 212.20500741 -41.99918365 199.76195049 C-42.00109347 196.53379121 -42.00301381 193.30563194 -42.0049696 190.07747269 C-42.00545334 189.27515412 -42.00593708 188.47283555 -42.00643548 187.6462043 C-42.01473153 174.65612749 -42.04006148 161.66614289 -42.07255027 148.67610633 C-42.10565273 135.33160829 -42.12363533 121.98715706 -42.1268279 108.64261776 C-42.12899016 101.15338584 -42.13769705 93.66428835 -42.16328907 86.17509651 C-42.18503976 79.79536844 -42.19302516 73.41580745 -42.18332229 67.0360465 C-42.17878996 63.78395382 -42.18280136 60.53227606 -42.20008373 57.28021622 C-42.21781247 53.74570746 -42.21069049 50.21206502 -42.19755077 46.67755508 C-42.20852002 45.66176878 -42.21948927 44.64598247 -42.23079091 43.59941477 C-42.13343067 32.70764435 -38.37825373 23.66574596 -31.70980358 15.13142776 C-31.23156139 14.51525589 -30.75331921 13.89908401 -30.26058483 13.26424026 C-22.79907536 4.80660989 -11.12907493 0.01402571 0 0 Z " fill="#000000" transform="translate(46.70980358123779,14.868572235107422)"/>
<path d="M0 0 C1.05960938 0.37455322 2.11921875 0.74910645 3.2109375 1.13500977 C6.67278514 2.36161504 10.12941175 3.60223501 13.5859375 4.84375 C15.98723914 5.69920885 18.38877193 6.55401911 20.79052734 7.40820312 C25.7285195 9.1668623 30.66403396 10.93224485 35.59765625 12.703125 C41.55011913 14.83970543 47.5070773 16.96334587 53.4659729 19.08190918 C57.81217163 20.62868316 62.15587692 22.18235251 66.49871826 23.73852539 C68.54950408 24.47270679 70.60097393 25.20498041 72.65313721 25.93530273 C75.50044584 26.950005 78.34436348 27.97367576 81.1875 29 C82.0235376 29.29608154 82.8595752 29.59216309 83.72094727 29.8972168 C91.15079203 32.59975758 91.15079203 32.59975758 93.9609375 35.34375 C95.22390136 39.13264157 95.10843911 42.6812407 95.10620117 46.62866211 C95.10955978 47.47479568 95.1129184 48.32092926 95.11637878 49.19270325 C95.12590578 52.00218159 95.12783408 54.81160023 95.12890625 57.62109375 C95.13212228 59.58671594 95.13548661 61.5523379 95.13899231 63.51795959 C95.14499119 67.65317334 95.1468319 71.78836619 95.14624023 75.92358398 C95.14613963 81.16675644 95.15968166 86.40979035 95.17701244 91.65293026 C95.18826684 95.72417282 95.19015523 99.79538359 95.18963051 103.86664009 C95.19079476 105.79550203 95.19512669 107.72436522 95.20296288 109.65321159 C95.34152344 147.34750621 88.45583281 179.48646906 61.3359375 207.34375 C44.56892442 224.06541799 22.5678881 234.51919729 0.6484375 242.71875 C-0.25841797 243.06486328 -1.16527344 243.41097656 -2.09960938 243.76757812 C-12.73150921 247.63724845 -20.41173741 247.96868009 -31.1015625 244.15625 C-32.64118652 243.62354492 -32.64118652 243.62354492 -34.21191406 243.08007812 C-55.19303398 235.56274446 -73.87292831 225.50967695 -91.0390625 211.34375 C-92.0496875 210.580625 -93.0603125 209.8175 -94.1015625 209.03125 C-98.61728471 204.89984457 -102.29771863 200.17467823 -106.0390625 195.34375 C-106.65007812 194.56 -107.26109375 193.77625 -107.890625 192.96875 C-126.92498762 167.24194025 -129.18030734 137.63177208 -129.2421875 106.68359375 C-129.24501488 105.72077547 -129.24784225 104.75795719 -129.25075531 103.7659626 C-129.26562071 98.68975689 -129.27493497 93.61357878 -129.27929688 88.53735352 C-129.28482305 83.30529511 -129.30897318 78.07349149 -129.33726883 72.84151363 C-129.35587226 68.80006652 -129.36109916 64.75868183 -129.36263275 60.71719551 C-129.36565522 58.78709045 -129.37367001 56.85698639 -129.38681793 54.92692375 C-129.40386145 52.23745727 -129.40200465 49.54862933 -129.39550781 46.85913086 C-129.4047226 46.06688614 -129.41393738 45.27464142 -129.4234314 44.45838928 C-129.38904556 39.91715798 -128.92939235 36.91250895 -126.0390625 33.34375 C-123.55015124 32.05406908 -121.31002756 31.09406712 -118.6875 30.17578125 C-117.9090976 29.88838577 -117.13069519 29.6009903 -116.32870483 29.30488586 C-113.57271324 28.2965469 -110.80702195 27.31874273 -108.0390625 26.34375 C-106.97353149 25.96442322 -105.90800049 25.58509644 -104.81018066 25.1942749 C-96.75983291 22.33015636 -88.69326358 19.51405157 -80.62145996 16.71118164 C-76.11360749 15.14531084 -71.6072372 13.57518671 -67.10125732 12.00393677 C-64.55298565 11.11550319 -62.00343868 10.23087046 -59.45294189 9.34884644 C-53.00530421 7.11381141 -46.58872723 4.81688512 -40.20214844 2.41259766 C-38.92663741 1.93774791 -37.65095423 1.46336027 -36.37509155 0.98945618 C-33.98663563 0.0981066 -31.60369255 -0.80821642 -29.22769165 -1.73225403 C-18.02294639 -5.88891057 -10.96878661 -3.96737622 0 0 Z M-26.609375 14.24609375 C-27.49835983 14.55542847 -28.38734467 14.86476318 -29.30326843 15.18347168 C-32.25802278 16.2127824 -35.21109453 17.24682647 -38.1640625 18.28125 C-40.21309654 18.99693563 -42.26216935 19.71251027 -44.3112793 20.42797852 C-50.88942392 22.72692939 -57.4645182 25.03452634 -64.0390625 27.34375 C-65.17003357 27.74078125 -66.30100464 28.1378125 -67.46624756 28.546875 C-74.19196015 30.90847533 -80.91601348 33.27471671 -87.63787842 35.64724731 C-89.78199488 36.40383501 -91.92640484 37.15959149 -94.07110596 37.91452026 C-97.0679806 38.97003042 -100.06348198 40.02934332 -103.05859375 41.08984375 C-104.40687508 41.56375549 -104.40687508 41.56375549 -105.78239441 42.04724121 C-106.59646255 42.33643433 -107.4105307 42.62562744 -108.24926758 42.92358398 C-108.96101639 43.17510727 -109.6727652 43.42663055 -110.40608215 43.68577576 C-112.05020166 44.22435583 -112.05020166 44.22435583 -113.0390625 45.34375 C-113.15020865 47.95162696 -113.19645679 50.53325925 -113.20019531 53.14208984 C-113.20516022 53.96027695 -113.21012512 54.77846405 -113.21524048 55.6214447 C-113.22992819 58.34920075 -113.23668232 61.07689826 -113.2421875 63.8046875 C-113.24794267 65.70830282 -113.25370035 67.61191814 -113.25946045 69.51553345 C-113.2699953 73.52565786 -113.27581868 77.53576212 -113.27929688 81.54589844 C-113.28472414 86.63234979 -113.30861535 91.71852557 -113.33726883 96.80489159 C-113.35611587 100.749997 -113.36111282 104.69503973 -113.36263275 108.64018631 C-113.36562094 110.51127215 -113.37351604 112.38235795 -113.38681793 114.2533989 C-113.57066899 142.15384136 -108.65294936 169.26427859 -89.0390625 190.34375 C-88.15605469 191.31828125 -87.27304688 192.2928125 -86.36328125 193.296875 C-70.14224658 210.67974687 -49.02315055 220.28029652 -27.12402344 228.55371094 C-25.3687256 229.21883316 -23.6277517 229.92158196 -21.890625 230.6328125 C-14.9853314 232.35440625 -8.47458177 229.2584798 -2.1015625 226.78125 C-1.18004395 226.42554932 -0.25852539 226.06984863 0.69091797 225.70336914 C13.12758999 220.81115222 24.96574067 214.98567653 35.9609375 207.34375 C36.69183594 206.83714844 37.42273438 206.33054687 38.17578125 205.80859375 C58.01115842 191.2100431 72.30682312 170.67213861 76.9609375 146.34375 C77.21224426 145.10038879 77.21224426 145.10038879 77.46862793 143.83190918 C79.32083753 133.49378656 79.21561743 123.29428139 79.15625 112.82421875 C79.15251187 110.86981858 79.14966869 108.91541652 79.14767456 106.96101379 C79.14010101 101.85983957 79.12050771 96.75878235 79.0982666 91.65765381 C79.07767163 86.43519676 79.06864388 81.21272048 79.05859375 75.99023438 C79.03725487 65.77468866 79.00319635 55.55922912 78.9609375 45.34375 C71.47599848 42.14648915 63.96760501 39.18833052 56.265625 36.55859375 C55.28583176 36.22037598 54.30603851 35.8821582 53.29655457 35.53369141 C50.14417925 34.44613242 46.99008458 33.36365843 43.8359375 32.28125 C39.45641864 30.77260742 35.07778373 29.26140849 30.69921875 27.75 C29.07381416 27.18949196 29.07381416 27.18949196 27.41557312 26.61766052 C20.68493464 24.29397978 13.96415994 21.94439357 7.25390625 19.5625 C6.45204895 19.27798477 5.65019165 18.99346954 4.82403564 18.70033264 C1.12760533 17.38744614 -2.56711486 16.06991675 -6.26025391 14.74780273 C-7.54978012 14.28883071 -8.83932936 13.82992336 -10.12890625 13.37109375 C-11.23097412 12.97656006 -12.33304199 12.58202637 -13.46850586 12.17553711 C-18.29277039 10.6144896 -22.00959679 12.63188408 -26.609375 14.24609375 Z " fill="#000000" transform="translate(222.0390625,211.65625)"/>
<path d="M0 0 C1.01032567 -0.00384115 2.02065134 -0.00768229 3.06159294 -0.01163983 C4.18500874 -0.01077335 5.30842455 -0.00990687 6.46588326 -0.00901413 C8.24033512 -0.01347081 8.24033512 -0.01347081 10.0506345 -0.01801753 C13.34905568 -0.02522102 16.6474248 -0.02787864 19.94585013 -0.028615 C23.49739467 -0.03046074 27.0489278 -0.03800562 30.60046577 -0.04475021 C38.37308581 -0.05835377 46.14570071 -0.06436139 53.91833067 -0.06876087 C58.76793433 -0.07151987 63.61753598 -0.07575659 68.46713829 -0.08026505 C81.88372548 -0.09246033 95.30031107 -0.10275915 108.71690369 -0.10614014 C109.57622114 -0.1063597 110.4355386 -0.10657927 111.32089598 -0.10680549 C112.18231642 -0.10702377 113.04373685 -0.10724204 113.93126094 -0.10746694 C115.67694275 -0.10791041 117.42262455 -0.10835697 119.16830635 -0.10880661 C120.0342322 -0.10902804 120.90015805 -0.10924947 121.79232408 -0.10947761 C135.82908672 -0.11342713 149.86579748 -0.13088466 163.90254007 -0.15416613 C178.30007629 -0.17785406 192.69758645 -0.19034082 207.09514248 -0.19150805 C215.18440773 -0.19242626 223.27360541 -0.19821495 231.3628521 -0.21632767 C238.2501073 -0.23169419 245.13727407 -0.23686962 252.02454315 -0.22858956 C255.54085109 -0.22467075 259.05698075 -0.22567213 262.57326698 -0.23964691 C266.37983553 -0.25463749 270.18615031 -0.24655581 273.99273872 -0.23606491 C275.11169309 -0.24412132 276.23064745 -0.25217772 277.38350952 -0.26047826 C278.90682126 -0.25059349 278.90682126 -0.25059349 280.46090698 -0.24050903 C281.34017691 -0.24110612 282.21944685 -0.24170321 283.12536132 -0.24231839 C285.85258301 0.21457049 286.70860259 0.94575542 288.35629463 3.13142776 C289.46907722 6.78771342 289.67577827 8.44681998 288.04379463 11.94392776 C286.35629463 14.13142776 286.35629463 14.13142776 284.35629463 15.13142776 C282.78107244 15.22848324 281.20177551 15.26241157 279.62356949 15.26564884 C278.61883626 15.27010669 277.61410303 15.27456453 276.57892334 15.27915746 C275.4668844 15.2789731 274.35484545 15.27878873 273.20910835 15.27859879 C272.03415869 15.28227547 270.85920902 15.28595216 269.64865482 15.28974026 C266.37723643 15.29887866 263.10584751 15.30347932 259.83441854 15.30612957 C256.31013726 15.31002836 252.78587057 15.3196069 249.26159859 15.32834244 C240.74621523 15.34811752 232.23083066 15.35817377 223.71543008 15.36707023 C219.70824468 15.37145088 215.70106061 15.37681821 211.69387627 15.3820591 C198.37847671 15.3990714 185.06307798 15.41356694 171.74766922 15.42080784 C168.2912019 15.42271782 164.83473458 15.42463814 161.37826729 15.42659378 C160.08959207 15.42731939 160.08959207 15.42731939 158.77488302 15.42805966 C144.84877337 15.4363651 130.92274947 15.46171064 116.99667729 15.49417446 C102.70871613 15.52721122 88.4207986 15.54525348 74.13279903 15.54845208 C66.10664864 15.55062018 58.08062336 15.55941258 50.05451012 15.58491325 C43.22108969 15.60657403 36.38782474 15.61469355 29.55437388 15.60494647 C26.0662339 15.60038841 22.57841503 15.60237452 19.09031868 15.62170792 C15.31242013 15.63926944 11.5353457 15.63239767 7.7574482 15.61917496 C6.64987069 15.6301442 5.54229319 15.64111345 4.40115273 15.6524151 C3.39120401 15.6438342 2.38125529 15.63525331 1.34070206 15.62641239 C0.46842944 15.6273892 -0.40384317 15.62836601 -1.30254829 15.62937242 C-4.43735595 14.96262488 -5.63464159 13.57096744 -7.64370537 11.13142776 C-8.58120537 8.69392776 -8.58120537 8.69392776 -8.64370537 6.13142776 C-6.18543595 1.21488893 -5.3811226 0.00763137 0 0 Z " fill="#000000" transform="translate(64.64370536804199,162.86857223510742)"/>
<path d="M0 0 C2.8673542 1.44329909 5.42579774 3.08894118 8 5 C8.86625 5.5775 9.7325 6.155 10.625 6.75 C18.14549763 13.87468197 21.9356613 22.47145758 22.45385742 32.7277832 C22.69386197 43.57116323 19.88505337 51.88635297 12.9375 60.375 C5.76343955 67.84998581 -3.39183292 71.9983236 -13.68359375 72.2734375 C-15.93479778 72.31328182 -18.18611867 72.34690562 -20.4375 72.375 C-21.56994141 72.41238281 -22.70238281 72.44976562 -23.86914062 72.48828125 C-24.96291016 72.49988281 -26.05667969 72.51148438 -27.18359375 72.5234375 C-28.17931396 72.54325684 -29.17503418 72.56307617 -30.20092773 72.58349609 C-34.11008392 71.76859131 -35.48046838 70.04883487 -38 67 C-38.62818909 64.00268555 -38.62818909 64.00268555 -38.63110352 60.63671875 C-38.64363663 59.37190674 -38.65616974 58.10709473 -38.66908264 56.80395508 C-38.6568139 55.43179288 -38.64339381 54.05964056 -38.62890625 52.6875 C-38.62973552 51.27172666 -38.6321971 49.85595343 -38.63621521 48.44018555 C-38.63906911 45.47773138 -38.62441379 42.51603498 -38.59692383 39.55371094 C-38.56284012 35.76380661 -38.56886221 31.97525665 -38.5875864 28.18528748 C-38.59817484 25.26319162 -38.58920218 22.34140881 -38.57420158 19.41934204 C-38.56903273 18.02235851 -38.56948582 16.6253421 -38.57574654 15.22836304 C-38.5812199 13.27329259 -38.5579243 11.31820613 -38.53344727 9.36328125 C-38.5241494 7.69712769 -38.5241494 7.69712769 -38.5146637 5.99731445 C-37.88070859 2.30526694 -36.62147766 0.63442025 -34 -2 C-23.98796489 -5.33734504 -9.63457368 -3.77005057 0 0 Z M-22 13 C-22 27.52 -22 42.04 -22 57 C-7.72970832 56.25425114 -7.72970832 56.25425114 2 48 C5.91658558 43.3294717 7.32023178 37.87003508 6.81640625 31.78125 C5.18906258 24.29258888 1.10493013 19.39554969 -5 15 C-10.91670603 12.11044589 -14.73899701 13 -22 13 Z " fill="#000000" transform="translate(235,69)"/>
<path d="M0 0 C3.22508873 2.91868521 4.25722661 5.20237045 4.49829102 9.43554688 C4.51922013 11.19649121 4.51993306 12.95775423 4.50390625 14.71875 C4.51332748 15.65424683 4.52274872 16.58974365 4.53245544 17.55358887 C4.56107937 20.53594977 4.56418448 23.5175129 4.5625 26.5 C4.56610945 29.48237041 4.5756595 32.46416158 4.60325623 35.44641113 C4.62002274 37.29944547 4.62293742 39.15267059 4.61024475 41.0057373 C4.65031435 45.92101997 5.00331694 48.90600284 8 53 C8 53.66 8 54.32 8 55 C12.79851274 57.55920679 17.70270612 57.66216174 23 57 C27.35066161 55.10152948 28.64266078 53.77375468 30.63476562 49.46020508 C32.3226628 44.6752793 32.42376775 40.16953825 32.40625 35.13671875 C32.41708618 34.22291946 32.42792236 33.30912018 32.43908691 32.36763 C32.48471037 28.48886934 32.49649489 24.6101824 32.51123047 20.73120117 C32.5268803 17.88696267 32.55984645 15.04328857 32.59375 12.19921875 C32.59072876 11.32110031 32.58770752 10.44298187 32.58459473 9.53825378 C32.59470581 8.72343033 32.60481689 7.90860687 32.61523438 7.0690918 C32.61728882 6.35375778 32.61934326 5.63842377 32.62145996 4.90141296 C33.1159059 2.41780274 34.02909231 1.54798647 36 0 C39.65628566 -1.11278259 41.31539221 -1.31948363 44.8125 0.3125 C47 2 47 2 48 4 C48.10963844 5.46331225 48.15902198 6.93137798 48.17700195 8.39868164 C48.19625481 9.76634422 48.19625481 9.76634422 48.21589661 11.16163635 C48.22328354 12.15114792 48.23067047 13.14065948 48.23828125 14.16015625 C48.246353 15.1791954 48.25442474 16.19823456 48.26274109 17.24815369 C48.27659259 19.41110529 48.28730996 21.57407886 48.29516602 23.73706055 C48.31230457 27.02500808 48.35617284 30.31193067 48.40039062 33.59960938 C48.41052413 35.70311762 48.41903817 37.80663441 48.42578125 39.91015625 C48.44328934 40.8854982 48.46079742 41.86084015 48.47883606 42.86573792 C48.44878842 52.45693525 45.29741468 59.31202216 38.7890625 66.27734375 C32.70464332 72.13592205 26.49058061 74.05605964 18.1875 74.375 C9.26674037 74.18567052 2.26205897 71.1624915 -4.2421875 65.06640625 C-9.18506027 59.25578471 -12.10708726 52.18905417 -12.14526367 44.5703125 C-12.15164352 43.7026123 -12.15802338 42.83491211 -12.16459656 41.94091797 C-12.16570938 41.01166504 -12.1668222 40.08241211 -12.16796875 39.125 C-12.17129715 38.16352051 -12.17462555 37.20204102 -12.17805481 36.21142578 C-12.18311234 34.18066892 -12.1854635 32.14990377 -12.18530273 30.11914062 C-12.18749184 27.01158001 -12.20566722 23.90437296 -12.22460938 20.796875 C-12.227543 18.82291788 -12.229528 16.84895908 -12.23046875 14.875 C-12.23765427 13.94574707 -12.24483978 13.01649414 -12.25224304 12.05908203 C-12.24916641 11.19138184 -12.24608978 10.32368164 -12.24291992 9.4296875 C-12.24434494 8.66897949 -12.24576996 7.90827148 -12.24723816 7.12451172 C-11.96332979 4.68489371 -11.26861739 3.09293829 -10 1 C-6.61629141 -1.53778144 -3.94318941 -1.23224669 0 0 Z " fill="#000000" transform="translate(135,67)"/>
<path d="M0 0 C3.44829775 2.85710574 4.91392529 5.60139646 6.47363281 9.7590332 C7.13386444 11.4965258 7.13386444 11.4965258 7.80743408 13.26911926 C8.27323868 14.52946116 8.73845461 15.79002075 9.203125 17.05078125 C9.69002378 18.3513254 10.17756257 19.6516301 10.66571045 20.95170593 C11.68474148 23.67343409 12.69573408 26.39797813 13.70117188 29.12475586 C14.98600869 32.60720617 16.29085764 36.08174526 17.60191727 39.55439472 C18.61224615 42.23746155 19.61158768 44.92452 20.60774994 47.61287498 C21.0843764 48.89506457 21.56439419 50.17599909 22.04795074 51.4555912 C22.72440591 53.25050227 23.38448643 55.05155826 24.04394531 56.8527832 C24.42270813 57.87330276 24.80147095 58.89382233 25.19171143 59.94526672 C26.11622858 63.43925813 26.24224613 66.39990854 26 70 C24.4375 72.4375 24.4375 72.4375 22 74 C18.5 74.5 18.5 74.5 15 74 C10.78573528 70.80043203 9.43355715 66.74083359 7.6875 61.9375 C7.39480225 61.15761719 7.10210449 60.37773438 6.80053711 59.57421875 C6.180096 57.91574781 5.56474832 56.25536387 4.95410156 54.59326172 C3.97940405 51.9440199 2.98742801 49.30174272 1.9921875 46.66015625 C1.3481803 44.94039532 0.70492938 43.22035096 0.0625 41.5 C-0.39733276 40.27204712 -0.39733276 40.27204712 -0.86645508 39.01928711 C-3 33.23385004 -3 33.23385004 -3 31 C-3.66 31 -4.32 31 -5 31 C-5.10723389 31.82669189 -5.21446777 32.65338379 -5.32495117 33.50512695 C-6.09308661 37.48192942 -7.37009746 41.14431904 -8.80078125 44.91796875 C-9.07842819 45.65702957 -9.35607513 46.39609039 -9.64213562 47.157547 C-10.22838995 48.71090491 -10.81770407 50.26311112 -11.40991211 51.81420898 C-12.31187259 54.18585028 -13.19426543 56.56420014 -14.07617188 58.94335938 C-14.64985648 60.45617914 -15.22468735 61.96856482 -15.80078125 63.48046875 C-16.06135818 64.18987106 -16.32193512 64.89927338 -16.59040833 65.63017273 C-18.08481714 69.47831866 -19.29448356 72.0174917 -23 74 C-25.9375 74.5 -25.9375 74.5 -29 74 C-31.875 71.875 -31.875 71.875 -34 69 C-34.40472122 64.5423769 -33.61475874 61.22932116 -32.04394531 57.07397461 C-31.61639954 55.92936264 -31.18885376 54.78475067 -30.74835205 53.60545349 C-30.04533966 51.77241417 -30.04533966 51.77241417 -29.328125 49.90234375 C-28.84385883 48.62275113 -28.36020572 47.34292634 -27.87713623 46.06288147 C-26.86459777 43.3866841 -25.84502658 40.71330617 -24.8203125 38.04174805 C-23.51161608 34.62825696 -22.22015558 31.20855097 -20.93385696 27.78656673 C-19.93853752 25.1442121 -18.93436576 22.50529047 -17.92751312 19.86731148 C-17.2159706 17.99858029 -16.51163424 16.12711037 -15.80743408 14.25559998 C-15.36727966 13.11414017 -14.92712524 11.97268036 -14.47363281 10.79663086 C-14.09168762 9.79546738 -13.70974243 8.79430389 -13.31622314 7.76280212 C-10.1179755 1.04955944 -7.42932465 -1.93162441 0 0 Z " fill="#000000" transform="translate(83,67)"/>
<path d="M0 0 C1.41694656 -0.01441132 1.41694656 -0.01441132 2.86251831 -0.02911377 C4.39067673 -0.03548859 4.39067673 -0.03548859 5.94970703 -0.04199219 C6.99901398 -0.04769226 8.04832092 -0.05339233 9.12942505 -0.05926514 C11.3502705 -0.06871405 13.57112997 -0.07524869 15.79199219 -0.07910156 C19.18726066 -0.08880926 22.58192435 -0.11983503 25.97705078 -0.15136719 C28.13459927 -0.15789714 30.29215209 -0.16314764 32.44970703 -0.16699219 C33.46443085 -0.17933899 34.47915466 -0.19168579 35.52462769 -0.20440674 C44.41713082 -0.1763425 44.41713082 -0.1763425 48.33251953 3.16113281 C49.77682808 6.04974991 49.70940459 7.95760982 49.33251953 11.16113281 C47.32583818 13.88704055 45.76282814 15.87566328 42.32763672 16.5612793 C40.03899615 16.65287567 37.8069049 16.5982326 35.52001953 16.47363281 C34.73175781 16.45107422 33.94349609 16.42851563 33.13134766 16.40527344 C31.19758024 16.34667442 29.26479786 16.25700109 27.33251953 16.16113281 C27.33918137 16.81401779 27.3458432 17.46690277 27.35270691 18.13957214 C27.41909178 24.93650385 27.4643334 31.7333434 27.49731445 38.53051758 C27.51239816 41.06701397 27.53286784 43.60348429 27.55883789 46.13989258 C27.59523834 49.78636103 27.61225035 53.43248454 27.62548828 57.07910156 C27.64097214 58.21260544 27.65645599 59.34610931 27.67240906 60.51396179 C27.67263565 61.57468399 27.67286224 62.63540619 27.6730957 63.72827148 C27.67975754 64.65870773 27.68641937 65.58914398 27.69328308 66.54777527 C27.25705154 69.7078201 26.18842192 71.58862229 24.33251953 74.16113281 C21.44390244 75.60544136 19.53604252 75.53801787 16.33251953 75.16113281 C13.66381836 73.40649414 13.66381836 73.40649414 11.33251953 70.16113281 C10.63117556 66.05834202 10.75150932 62.01191324 10.84423828 57.86035156 C10.85131302 56.66883987 10.85838776 55.47732819 10.86567688 54.24971008 C10.89363767 50.44870909 10.95638479 46.64918767 11.02001953 42.84863281 C11.04509997 40.26987806 11.06791357 37.69110019 11.08837891 35.11230469 C11.14347022 28.79474363 11.22711578 22.47804393 11.33251953 16.16113281 C10.16333984 16.21914062 8.99416016 16.27714844 7.78955078 16.33691406 C6.24141373 16.38382731 4.69323336 16.42932579 3.14501953 16.47363281 C2.37609375 16.51552734 1.60716797 16.55742188 0.81494141 16.60058594 C-3.4960592 16.69309668 -5.15151353 16.55895467 -8.68701172 13.83300781 C-10.66748047 11.16113281 -10.66748047 11.16113281 -11.16748047 8.09863281 C-10.62003239 4.88237534 -9.95991137 3.45356371 -7.66748047 1.16113281 C-4.80492846 0.20694881 -2.97373419 0.02443484 0 0 Z " fill="#000000" transform="translate(311.66748046875,65.8388671875)"/>
<path d="M0 0 C2.300911 3.28382789 2.26883541 6.32063267 2.30639648 10.24975586 C2.32238388 11.5146434 2.33837128 12.77953094 2.35484314 14.08274841 C2.36121939 15.46010942 2.36661227 16.83747528 2.37109375 18.21484375 C2.38006426 19.63204543 2.38918619 21.04924615 2.39845276 22.46644592 C2.41492523 25.43460387 2.42263987 28.40264923 2.42553711 31.37084961 C2.43092464 35.16865379 2.46862522 38.96539617 2.51428127 42.76290035 C2.54406432 45.68921245 2.55126088 48.61526896 2.55226326 51.54171944 C2.55646184 52.94155309 2.56888195 54.34138776 2.58978081 55.7410717 C2.61671749 57.70081516 2.60875909 59.66094355 2.59936523 61.62084961 C2.60443588 62.73463486 2.60950653 63.8484201 2.61473083 64.99595642 C1.79972088 68.97871647 0.11956976 70.48040761 -3 73 C-6 73.625 -6 73.625 -9 73 C-12.11956976 70.48040761 -13.79972088 68.97871647 -14.61473083 64.99595642 C-14.60966019 63.88217117 -14.60458954 62.76838593 -14.59936523 61.62084961 C-14.60544296 60.35280991 -14.61152069 59.0847702 -14.61778259 57.77830505 C-14.59887865 56.40297302 -14.57912865 55.0276524 -14.55859375 53.65234375 C-14.55434019 52.23418106 -14.55201469 50.81601139 -14.55152893 49.39784241 C-14.54537396 46.43116519 -14.52272533 43.46524613 -14.48706055 40.4987793 C-14.44174716 36.70009168 -14.42703174 32.90208903 -14.42332363 29.10315609 C-14.41889098 26.17685723 -14.40358073 23.25070146 -14.3844471 20.3244648 C-14.37558168 18.92386613 -14.36884355 17.52325229 -14.36428642 16.12263298 C-14.3552236 14.16493315 -14.33113889 12.20732031 -14.30639648 10.24975586 C-14.29043678 8.58027138 -14.29043678 8.58027138 -14.27415466 6.87705994 C-14.00250116 4.02624795 -13.56510272 2.3742267 -12 0 C-7.66689293 -2.7236673 -4.58907322 -1.90489832 0 0 Z " fill="#000000" transform="translate(285,68)"/>
</svg>
