<?xml version="1.0" encoding="UTF-8"?>
<!DOCTYPE svg PUBLIC "-//W3C//DTD SVG 1.1//EN" "http://www.w3.org/Graphics/SVG/1.1/DTD/svg11.dtd">
<svg xmlns="http://www.w3.org/2000/svg" version="1.1" width="480px" height="471px" style="shape-rendering:geometricPrecision; text-rendering:geometricPrecision; image-rendering:optimizeQuality; fill-rule:evenodd; clip-rule:evenodd" xmlns:xlink="http://www.w3.org/1999/xlink">
<g><path style="opacity:1" fill="#0b0b0b" d="M 357.5,44.5 C 358.035,46.4456 359.368,47.4456 361.5,47.5C 373.364,55.0267 384.031,64.0267 393.5,74.5C 394.419,77.0892 396.086,79.0892 398.5,80.5C 400.167,81.5 401.5,82.8333 402.5,84.5C 402.738,86.4044 403.738,87.7377 405.5,88.5C 408.636,91.429 411.303,94.7623 413.5,98.5C 413.427,100.027 414.094,101.027 415.5,101.5C 418.66,105.148 421.327,109.148 423.5,113.5C 423.427,115.027 424.094,116.027 425.5,116.5C 434.921,131.015 441.921,146.682 446.5,163.5C 446.259,165.898 446.926,167.898 448.5,169.5C 460.588,213.029 459.755,256.362 446,299.5C 442.296,295.964 438.796,292.298 435.5,288.5C 435.027,287.094 434.027,286.427 432.5,286.5C 429.795,284.488 427.128,282.488 424.5,280.5C 424.027,279.094 423.027,278.427 421.5,278.5C 419.278,278.441 418.278,277.275 418.5,275C 429.323,226.263 422.657,180.096 398.5,136.5C 398.715,134.821 398.048,133.821 396.5,133.5C 395.248,131.999 394.248,130.332 393.5,128.5C 393.715,126.821 393.048,125.821 391.5,125.5C 386.883,119.043 382.049,112.71 377,106.5C 370.964,100.631 365.13,94.6314 359.5,88.5C 358.738,86.7376 357.404,85.7376 355.5,85.5C 349.143,80.8017 342.81,76.135 336.5,71.5C 336.027,70.0937 335.027,69.427 333.5,69.5C 322.434,63.6343 311.101,58.301 299.5,53.5C 298.365,51.7868 296.698,51.1201 294.5,51.5C 293.508,51.6716 292.842,51.3382 292.5,50.5C 290.485,49.0762 288.152,48.4095 285.5,48.5C 205.372,30.7656 138.705,52.7656 85.5,114.5C 84.0937,114.973 83.427,115.973 83.5,117.5C 37.3854,184.995 33.3854,254.995 71.5,327.5C 71.427,329.027 72.0937,330.027 73.5,330.5C 75.664,332.822 77.3307,335.489 78.5,338.5C 78.7376,340.404 79.7376,341.738 81.5,342.5C 81.427,344.027 82.0937,345.027 83.5,345.5C 86.2948,347.751 88.6281,350.418 90.5,353.5C 90.7376,355.404 91.7376,356.738 93.5,357.5C 104.578,368.249 116.244,378.249 128.5,387.5C 128.821,389.048 129.821,389.715 131.5,389.5C 177.942,418.351 227.942,426.685 281.5,414.5C 283.292,414.366 284.958,414.699 286.5,415.5C 286.427,417.027 287.094,418.027 288.5,418.5C 288.427,420.027 289.094,421.027 290.5,421.5C 295.805,427.14 301.139,432.807 306.5,438.5C 306.218,439.778 305.551,440.778 304.5,441.5C 257.267,457.478 209.934,457.478 162.5,441.5C 161.365,439.787 159.698,439.12 157.5,439.5C 146.504,436.167 136.171,431.5 126.5,425.5C 126.027,424.094 125.027,423.427 123.5,423.5C 122.508,423.672 121.842,423.338 121.5,422.5C 121.027,421.094 120.027,420.427 118.5,420.5C 116.566,419.89 114.899,418.89 113.5,417.5C 113.027,416.094 112.027,415.427 110.5,415.5C 110.027,414.094 109.027,413.427 107.5,413.5C 102.91,411.238 98.9103,408.238 95.5,404.5C 95.0269,403.094 94.0269,402.427 92.5,402.5C 30.4962,349.1 3.99616,281.433 13,199.5C 14.0257,190.859 15.8591,182.525 18.5,174.5C 19.9238,172.485 20.5905,170.152 20.5,167.5C 21.9238,165.485 22.5905,163.152 22.5,160.5C 27.0228,144.793 33.6895,130.126 42.5,116.5C 43.9063,116.027 44.573,115.027 44.5,113.5C 45.7589,109.975 47.7589,106.975 50.5,104.5C 51.9063,104.027 52.573,103.027 52.5,101.5C 53.9063,101.027 54.573,100.027 54.5,98.5C 56.697,94.7623 59.3637,91.429 62.5,88.5C 64.2624,87.7377 65.2624,86.4044 65.5,84.5C 66.8333,82.5 68.5,80.8333 70.5,79.5C 72.5869,78.4154 73.9202,76.7488 74.5,74.5C 75.5,72.8333 76.8333,71.5 78.5,70.5C 81.4274,69.2427 83.7607,67.2427 85.5,64.5C 85.5,63.8333 85.8333,63.5 86.5,63.5C 89.0892,62.5806 91.0892,60.914 92.5,58.5C 95.429,55.3637 98.7623,52.697 102.5,50.5C 104.027,50.573 105.027,49.9063 105.5,48.5C 107.404,48.2624 108.738,47.2624 109.5,45.5C 126.287,33.6074 144.62,24.6074 164.5,18.5C 169.289,18.3462 173.622,17.0129 177.5,14.5C 241.962,-1.40344 301.962,8.59656 357.5,44.5 Z"/></g>
<g><path style="opacity:0.933" fill="#636363" d="M 177.5,14.5 C 173.622,17.0129 169.289,18.3462 164.5,18.5C 168.617,16.7965 172.951,15.4632 177.5,14.5 Z"/></g>
<g><path style="opacity:0.655" fill="#858585" d="M 109.5,45.5 C 108.738,47.2624 107.404,48.2624 105.5,48.5C 106.262,46.7376 107.596,45.7376 109.5,45.5 Z"/></g>
<g><path style="opacity:0.639" fill="#8d8d8d" d="M 357.5,44.5 C 359.23,45.0256 360.564,46.0256 361.5,47.5C 359.368,47.4456 358.035,46.4456 357.5,44.5 Z"/></g>
<g><path style="opacity:0.953" fill="#696969" d="M 285.5,48.5 C 288.152,48.4095 290.485,49.0762 292.5,50.5C 289.848,50.5905 287.515,49.9238 285.5,48.5 Z"/></g>
<g><path style="opacity:0.773" fill="#858585" d="M 105.5,48.5 C 105.027,49.9063 104.027,50.573 102.5,50.5C 102.973,49.0937 103.973,48.427 105.5,48.5 Z"/></g>
<g><path style="opacity:0.906" fill="#818181" d="M 294.5,51.5 C 296.698,51.1201 298.365,51.7868 299.5,53.5C 297.597,53.2041 295.93,52.5375 294.5,51.5 Z"/></g>
<g><path style="opacity:0.922" fill="#595959" d="M 92.5,58.5 C 91.0892,60.914 89.0892,62.5806 86.5,63.5C 87.9108,61.086 89.9108,59.4194 92.5,58.5 Z"/></g>
<g><path style="opacity:0.682" fill="#8b8b8b" d="M 85.5,64.5 C 83.7607,67.2427 81.4274,69.2427 78.5,70.5C 80.2393,67.7573 82.5726,65.7573 85.5,64.5 Z"/></g>
<g><path style="opacity:0.384" fill="#9c9c9c" d="M 333.5,69.5 C 335.027,69.427 336.027,70.0937 336.5,71.5C 334.973,71.573 333.973,70.9063 333.5,69.5 Z"/></g>
<g><path style="opacity:0.749" fill="#989898" d="M 393.5,74.5 C 395.914,75.9108 397.581,77.9108 398.5,80.5C 396.086,79.0892 394.419,77.0892 393.5,74.5 Z"/></g>
<g><path style="opacity:0.659" fill="#8e8e8e" d="M 74.5,74.5 C 73.9202,76.7488 72.5869,78.4154 70.5,79.5C 71.0798,77.2512 72.4131,75.5846 74.5,74.5 Z"/></g>
<g><path style="opacity:0.824" fill="#7a7a7a" d="M 65.5,84.5 C 65.2624,86.4044 64.2624,87.7377 62.5,88.5C 62.7376,86.5956 63.7376,85.2623 65.5,84.5 Z"/></g>
<g><path style="opacity:0.792" fill="#909090" d="M 355.5,85.5 C 357.404,85.7376 358.738,86.7376 359.5,88.5C 357.596,88.2624 356.262,87.2624 355.5,85.5 Z"/></g>
<g><path style="opacity:0.82" fill="#858585" d="M 402.5,84.5 C 404.262,85.2623 405.262,86.5956 405.5,88.5C 403.738,87.7377 402.738,86.4044 402.5,84.5 Z"/></g>
<g><path style="opacity:0.533" fill="#8f8f8f" d="M 54.5,98.5 C 54.573,100.027 53.9063,101.027 52.5,101.5C 52.427,99.9731 53.0937,98.9731 54.5,98.5 Z"/></g>
<g><path style="opacity:0.565" fill="#878787" d="M 413.5,98.5 C 414.906,98.9731 415.573,99.9731 415.5,101.5C 414.094,101.027 413.427,100.027 413.5,98.5 Z"/></g>
<g><path style="opacity:0.659" fill="#7a7a7a" d="M 52.5,101.5 C 52.573,103.027 51.9063,104.027 50.5,104.5C 50.427,102.973 51.0937,101.973 52.5,101.5 Z"/></g>
<g><path style="opacity:0.439" fill="#919191" d="M 44.5,113.5 C 44.573,115.027 43.9063,116.027 42.5,116.5C 42.427,114.973 43.0937,113.973 44.5,113.5 Z"/></g>
<g><path style="opacity:0.004" fill="#cdcdcd" d="M 85.5,114.5 C 85.573,116.027 84.9063,117.027 83.5,117.5C 83.427,115.973 84.0937,114.973 85.5,114.5 Z"/></g>
<g><path style="opacity:0.471" fill="#8a8a8a" d="M 423.5,113.5 C 424.906,113.973 425.573,114.973 425.5,116.5C 424.094,116.027 423.427,115.027 423.5,113.5 Z"/></g>
<g><path style="opacity:0.953" fill="#797979" d="M 391.5,125.5 C 393.048,125.821 393.715,126.821 393.5,128.5C 392.599,127.71 391.932,126.71 391.5,125.5 Z"/></g>
<g><path style="opacity:0.949" fill="#787878" d="M 396.5,133.5 C 398.048,133.821 398.715,134.821 398.5,136.5C 397.599,135.71 396.932,134.71 396.5,133.5 Z"/></g>
<g><path style="opacity:0.949" fill="#686868" d="M 22.5,160.5 C 22.5905,163.152 21.9238,165.485 20.5,167.5C 20.4095,164.848 21.0762,162.515 22.5,160.5 Z"/></g>
<g><path style="opacity:0.89" fill="#7c7c7c" d="M 446.5,163.5 C 447.738,165.214 448.405,167.214 448.5,169.5C 446.926,167.898 446.259,165.898 446.5,163.5 Z"/></g>
<g><path style="opacity:0.976" fill="#5e5e5e" d="M 20.5,167.5 C 20.5905,170.152 19.9238,172.485 18.5,174.5C 18.4095,171.848 19.0762,169.515 20.5,167.5 Z"/></g>
<g><path style="opacity:1" fill="#090909" d="M 380.5,194.5 C 381.035,196.446 382.368,197.446 384.5,197.5C 386.833,199.167 388.833,201.167 390.5,203.5C 390.427,205.027 391.094,206.027 392.5,206.5C 395.317,209.931 396.983,213.931 397.5,218.5C 397.5,224.167 397.5,229.833 397.5,235.5C 392.33,253.849 380.164,263.516 361,264.5C 355.592,264.352 350.425,263.185 345.5,261C 344.065,255.761 342.398,250.594 340.5,245.5C 340.715,243.821 340.048,242.821 338.5,242.5C 335.239,236.237 330.572,231.237 324.5,227.5C 323.249,224.126 323.249,220.793 324.5,217.5C 325.404,216.791 325.737,215.791 325.5,214.5C 326.546,209.131 329.213,204.797 333.5,201.5C 334.833,200.833 335.833,199.833 336.5,198.5C 337.262,196.738 338.596,195.738 340.5,195.5C 342.027,195.573 343.027,194.906 343.5,193.5C 343.842,192.662 344.508,192.328 345.5,192.5C 348.152,192.59 350.485,191.924 352.5,190.5C 362.255,188.296 371.589,189.629 380.5,194.5 Z"/></g>
<g><path style="opacity:1" fill="#090909" d="M 128.5,195.5 C 129.035,197.446 130.368,198.446 132.5,198.5C 135.903,200.9 138.57,203.9 140.5,207.5C 140.427,209.027 141.094,210.027 142.5,210.5C 145.001,215.316 146.668,220.483 147.5,226C 142.023,231.146 136.856,236.646 132,242.5C 128.291,248.671 126.124,255.337 125.5,262.5C 114.44,266.662 103.44,266.496 92.5,262C 90.2528,260.723 88.2528,259.223 86.5,257.5C 86.0269,256.094 85.0269,255.427 83.5,255.5C 80.7997,253.766 78.7997,251.432 77.5,248.5C 77.7148,246.821 77.0481,245.821 75.5,245.5C 71.6321,237.404 70.6321,229.07 72.5,220.5C 73.9238,218.485 74.5905,216.152 74.5,213.5C 75.0787,210.669 76.412,208.336 78.5,206.5C 79.9063,206.027 80.573,205.027 80.5,203.5C 90.0538,192.703 102.054,188.536 116.5,191C 120.789,191.817 124.789,193.317 128.5,195.5 Z"/></g>
<g><path style="opacity:0.945" fill="#636363" d="M 352.5,190.5 C 350.485,191.924 348.152,192.59 345.5,192.5C 347.515,191.076 349.848,190.41 352.5,190.5 Z"/></g>
<g><path style="opacity:0.816" fill="#7a7a7a" d="M 343.5,193.5 C 343.027,194.906 342.027,195.573 340.5,195.5C 340.973,194.094 341.973,193.427 343.5,193.5 Z"/></g>
<g><path style="opacity:0.941" fill="#828282" d="M 380.5,194.5 C 382.23,195.026 383.564,196.026 384.5,197.5C 382.368,197.446 381.035,196.446 380.5,194.5 Z"/></g>
<g><path style="opacity:0.941" fill="#7f7f7f" d="M 128.5,195.5 C 130.23,196.026 131.564,197.026 132.5,198.5C 130.368,198.446 129.035,197.446 128.5,195.5 Z"/></g>
<g><path style="opacity:0.627" fill="#939393" d="M 336.5,198.5 C 335.833,199.833 334.833,200.833 333.5,201.5C 333.5,199.5 334.5,198.5 336.5,198.5 Z"/></g>
<g><path style="opacity:0.502" fill="#9c9c9c" d="M 80.5,203.5 C 80.573,205.027 79.9063,206.027 78.5,206.5C 78.427,204.973 79.0937,203.973 80.5,203.5 Z"/></g>
<g><path style="opacity:0.502" fill="#9f9f9f" d="M 390.5,203.5 C 391.906,203.973 392.573,204.973 392.5,206.5C 391.094,206.027 390.427,205.027 390.5,203.5 Z"/></g>
<g><path style="opacity:0.502" fill="#929292" d="M 140.5,207.5 C 141.906,207.973 142.573,208.973 142.5,210.5C 141.094,210.027 140.427,209.027 140.5,207.5 Z"/></g>
<g><path style="opacity:1" fill="#585858" d="M 74.5,213.5 C 74.5905,216.152 73.9238,218.485 72.5,220.5C 72.4095,217.848 73.0762,215.515 74.5,213.5 Z"/></g>
<g><path style="opacity:0.702" fill="#939393" d="M 325.5,214.5 C 325.737,215.791 325.404,216.791 324.5,217.5C 324.062,217.565 323.728,217.399 323.5,217C 324.066,216.005 324.733,215.172 325.5,214.5 Z"/></g>
<g><path style="opacity:0.761" fill="#8c8c8c" d="M 397.5,218.5 C 398.306,219.997 398.972,221.664 399.5,223.5C 399.951,227.411 399.284,231.411 397.5,235.5C 397.5,229.833 397.5,224.167 397.5,218.5 Z"/></g>
<g><path style="opacity:1" fill="#090909" d="M 190.5,231.5 C 191.035,233.446 192.368,234.446 194.5,234.5C 197.167,235.833 199.167,237.833 200.5,240.5C 200.738,242.404 201.738,243.738 203.5,244.5C 207.823,251.127 209.657,258.46 209,266.5C 199.975,274.218 194.309,283.885 192,295.5C 183.301,301.023 173.801,302.857 163.5,301C 142.342,294.822 132.509,280.655 134,258.5C 135.079,251.009 138.246,244.675 143.5,239.5C 144.833,238.833 145.833,237.833 146.5,236.5C 149.311,232.922 152.978,230.589 157.5,229.5C 160.152,229.59 162.485,228.924 164.5,227.5C 173.544,225.57 182.21,226.903 190.5,231.5 Z"/></g>
<g><path style="opacity:1" fill="#0b0b0b" d="M 327.5,239.5 C 327.427,241.027 328.094,242.027 329.5,242.5C 332.883,246.099 335.049,250.433 336,255.5C 336.829,260.864 336.663,266.198 335.5,271.5C 320.574,277.766 307.574,286.766 296.5,298.5C 294.858,300.081 292.858,300.747 290.5,300.5C 287.951,300.613 285.618,299.946 283.5,298.5C 281.258,285.622 275.258,274.955 265.5,266.5C 265.027,265.094 264.027,264.427 262.5,264.5C 260.969,255.754 263.302,248.087 269.5,241.5C 270.906,241.027 271.573,240.027 271.5,238.5C 273.8,236.016 276.467,234.016 279.5,232.5C 281.027,232.573 282.027,231.906 282.5,230.5C 299.562,223.182 314.562,226.182 327.5,239.5 Z"/></g>
<g><path style="opacity:1" fill="#5e5e5e" d="M 164.5,227.5 C 162.485,228.924 160.152,229.59 157.5,229.5C 159.515,228.076 161.848,227.41 164.5,227.5 Z"/></g>
<g><path style="opacity:0.812" fill="#7e7e7e" d="M 282.5,230.5 C 282.027,231.906 281.027,232.573 279.5,232.5C 279.973,231.094 280.973,230.427 282.5,230.5 Z"/></g>
<g><path style="opacity:0.937" fill="#868686" d="M 190.5,231.5 C 192.23,232.026 193.564,233.026 194.5,234.5C 192.368,234.446 191.035,233.446 190.5,231.5 Z"/></g>
<g><path style="opacity:0.565" fill="#969696" d="M 146.5,236.5 C 145.833,237.833 144.833,238.833 143.5,239.5C 143.5,237.5 144.5,236.5 146.5,236.5 Z"/></g>
<g><path style="opacity:0.753" fill="#909090" d="M 271.5,238.5 C 271.573,240.027 270.906,241.027 269.5,241.5C 269.427,239.973 270.094,238.973 271.5,238.5 Z"/></g>
<g><path style="opacity:0.816" fill="#7a7a7a" d="M 327.5,239.5 C 328.906,239.973 329.573,240.973 329.5,242.5C 328.094,242.027 327.427,241.027 327.5,239.5 Z"/></g>
<g><path style="opacity:0.933" fill="#797979" d="M 200.5,240.5 C 202.262,241.262 203.262,242.596 203.5,244.5C 201.738,243.738 200.738,242.404 200.5,240.5 Z"/></g>
<g><path style="opacity:0.941" fill="#797979" d="M 338.5,242.5 C 340.048,242.821 340.715,243.821 340.5,245.5C 339.599,244.71 338.932,243.71 338.5,242.5 Z"/></g>
<g><path style="opacity:0.937" fill="#797979" d="M 75.5,245.5 C 77.0481,245.821 77.7148,246.821 77.5,248.5C 76.5987,247.71 75.9321,246.71 75.5,245.5 Z"/></g>
<g><path style="opacity:0.812" fill="#7f7f7f" d="M 83.5,255.5 C 85.0269,255.427 86.0269,256.094 86.5,257.5C 84.9731,257.573 83.9731,256.906 83.5,255.5 Z"/></g>
<g><path style="opacity:1" fill="#080808" d="M 267.5,280.5 C 267.427,282.027 268.094,283.027 269.5,283.5C 277.393,298.123 276.56,312.457 267,326.5C 251.199,342.192 233.699,344.359 214.5,333C 197.503,317.211 195.003,299.378 207,279.5C 209.766,276.223 212.933,273.557 216.5,271.5C 218.027,271.573 219.027,270.906 219.5,269.5C 220.78,268.069 222.447,267.402 224.5,267.5C 227.152,267.59 229.485,266.924 231.5,265.5C 246.274,263.435 258.274,268.435 267.5,280.5 Z"/></g>
<g><path style="opacity:0.439" fill="#9b9b9b" d="M 262.5,264.5 C 264.027,264.427 265.027,265.094 265.5,266.5C 263.973,266.573 262.973,265.906 262.5,264.5 Z"/></g>
<g><path style="opacity:0.945" fill="#6b6b6b" d="M 231.5,265.5 C 229.485,266.924 227.152,267.59 224.5,267.5C 226.515,266.076 228.848,265.41 231.5,265.5 Z"/></g>
<g><path style="opacity:0.898" fill="#6b6b6b" d="M 344.5,267.5 C 346.288,266.378 348.288,266.211 350.5,267C 348.342,267.909 346.342,268.075 344.5,267.5 Z"/></g>
<g><path style="opacity:0.761" fill="#494949" d="M 84.5,268.5 C 97.9898,267.504 111.656,267.171 125.5,267.5C 125.5,268.833 125.5,270.167 125.5,271.5C 124.596,270.791 124.263,269.791 124.5,268.5C 111.167,268.5 97.8333,268.5 84.5,268.5 Z"/></g>
<g><path style="opacity:1" fill="#090909" d="M 83.5,268.5 C 83.8333,268.5 84.1667,268.5 84.5,268.5C 97.8333,268.5 111.167,268.5 124.5,268.5C 124.263,269.791 124.596,270.791 125.5,271.5C 126.563,277.355 128.23,283.021 130.5,288.5C 130.427,290.027 131.094,291.027 132.5,291.5C 132.427,293.027 133.094,294.027 134.5,294.5C 135.167,294.5 135.5,294.833 135.5,295.5C 136.038,297.117 136.371,298.784 136.5,300.5C 116.996,308.67 104.663,323.003 99.5,343.5C 98.8333,344.5 98.1667,345.5 97.5,346.5C 90.8628,339.24 85.1961,331.24 80.5,322.5C 80.7148,320.821 80.0481,319.821 78.5,319.5C 71.5123,306.854 66.1789,293.52 62.5,279.5C 62.5427,278.584 62.8761,277.917 63.5,277.5C 65.0269,277.573 66.0269,276.906 66.5,275.5C 66.8417,274.662 67.5084,274.328 68.5,274.5C 70.0269,274.573 71.0269,273.906 71.5,272.5C 72.9303,271.463 74.597,270.796 76.5,270.5C 79.1522,270.59 81.4855,269.924 83.5,268.5 Z"/></g>
<g><path style="opacity:0.945" fill="#686868" d="M 83.5,268.5 C 81.4855,269.924 79.1522,270.59 76.5,270.5C 78.5145,269.076 80.8478,268.41 83.5,268.5 Z"/></g>
<g><path style="opacity:0.812" fill="#787878" d="M 219.5,269.5 C 219.027,270.906 218.027,271.573 216.5,271.5C 216.973,270.094 217.973,269.427 219.5,269.5 Z"/></g>
<g><path style="opacity:0.753" fill="#898989" d="M 71.5,272.5 C 71.0269,273.906 70.0269,274.573 68.5,274.5C 68.9731,273.094 69.9731,272.427 71.5,272.5 Z"/></g>
<g><path style="opacity:1" fill="#161616" d="M 414.5,284.5 C 414.821,286.048 415.821,286.715 417.5,286.5C 418.167,286.833 418.833,287.167 419.5,287.5C 420.035,289.446 421.368,290.446 423.5,290.5C 426.447,291.781 428.781,293.781 430.5,296.5C 430.973,297.906 431.973,298.573 433.5,298.5C 434.5,298.833 435.167,299.5 435.5,300.5C 436.757,303.427 438.757,305.761 441.5,307.5C 441.738,309.404 442.738,310.738 444.5,311.5C 444.427,313.027 445.094,314.027 446.5,314.5C 446.427,316.027 447.094,317.027 448.5,317.5C 449.338,317.842 449.672,318.508 449.5,319.5C 449.427,321.027 450.094,322.027 451.5,322.5C 453.592,325.088 454.925,328.088 455.5,331.5C 455.259,333.898 455.926,335.898 457.5,337.5C 460.002,348.347 461.335,359.347 461.5,370.5C 461.806,373.385 461.473,376.052 460.5,378.5C 459.057,382.615 458.057,386.948 457.5,391.5C 447.651,422.182 427.318,442.349 396.5,452C 382.251,455.882 367.917,456.382 353.5,453.5C 351.485,452.076 349.152,451.41 346.5,451.5C 339.115,450.469 332.448,447.802 326.5,443.5C 326.027,442.094 325.027,441.427 323.5,441.5C 291.701,420.559 277.534,390.893 281,352.5C 283.439,333.962 290.939,317.962 303.5,304.5C 306.5,302.167 309.167,299.5 311.5,296.5C 314.929,292.738 318.929,289.738 323.5,287.5C 325.027,287.573 326.027,286.906 326.5,285.5C 328.849,283.659 331.515,282.326 334.5,281.5C 335.496,281.414 336.329,281.748 337,282.5C 339.946,280.356 343.112,278.689 346.5,277.5C 369.999,270.615 392.666,272.948 414.5,284.5 Z M 411.5,297.5 C 411.973,298.906 412.973,299.573 414.5,299.5C 414.973,300.906 415.973,301.573 417.5,301.5C 418.911,303.914 420.911,305.581 423.5,306.5C 424.5,308.167 425.833,309.5 427.5,310.5C 427.427,312.027 428.094,313.027 429.5,313.5C 445.615,332.95 451.615,355.284 447.5,380.5C 445.837,382.438 445.171,384.772 445.5,387.5C 445.5,387.833 445.5,388.167 445.5,388.5C 443.896,389.287 443.229,390.62 443.5,392.5C 441.94,394.954 440.94,397.62 440.5,400.5C 439.094,400.973 438.427,401.973 438.5,403.5C 437.662,403.842 437.328,404.508 437.5,405.5C 436.094,405.973 435.427,406.973 435.5,408.5C 433.738,409.262 432.738,410.596 432.5,412.5C 430.833,413.5 429.5,414.833 428.5,416.5C 425.833,418.5 423.5,420.833 421.5,423.5C 420.5,423.833 419.833,424.5 419.5,425.5C 417.596,425.738 416.262,426.738 415.5,428.5C 413.973,428.427 412.973,429.094 412.5,430.5C 411.508,430.328 410.842,430.662 410.5,431.5C 408.973,431.427 407.973,432.094 407.5,433.5C 405.046,434.227 402.713,435.227 400.5,436.5C 397.603,437.129 394.936,438.129 392.5,439.5C 371.909,444.044 352.242,441.711 333.5,432.5C 332.71,431.599 331.71,430.932 330.5,430.5C 323.246,425.584 316.579,419.917 310.5,413.5C 310.262,411.596 309.262,410.262 307.5,409.5C 307.573,407.973 306.906,406.973 305.5,406.5C 305.573,404.973 304.906,403.973 303.5,403.5C 298.667,393.537 295.334,383.204 293.5,372.5C 293.46,364.813 293.793,357.146 294.5,349.5C 297.906,335.688 304.24,323.355 313.5,312.5C 314.906,312.027 315.573,311.027 315.5,309.5C 316.167,309.5 316.5,309.167 316.5,308.5C 318.027,308.573 319.027,307.906 319.5,306.5C 348.086,283.383 378.753,280.383 411.5,297.5 Z"/></g>
<g><path style="opacity:0.627" fill="#a3a3a3" d="M 66.5,275.5 C 66.0269,276.906 65.0269,277.573 63.5,277.5C 63.9731,276.094 64.9731,275.427 66.5,275.5 Z"/></g>
<g><path style="opacity:0.965" fill="#4d4d4d" d="M 346.5,277.5 C 343.112,278.689 339.946,280.356 337,282.5C 336.329,281.748 335.496,281.414 334.5,281.5C 338.085,279.194 342.085,277.861 346.5,277.5 Z"/></g>
<g><path style="opacity:0.361" fill="#a1a1a1" d="M 421.5,278.5 C 423.027,278.427 424.027,279.094 424.5,280.5C 422.973,280.573 421.973,279.906 421.5,278.5 Z"/></g>
<g><path style="opacity:0.502" fill="#8c8c8c" d="M 267.5,280.5 C 268.906,280.973 269.573,281.973 269.5,283.5C 268.094,283.027 267.427,282.027 267.5,280.5 Z"/></g>
<g><path style="opacity:0.937" fill="#7f7f7f" d="M 414.5,284.5 C 415.71,284.932 416.71,285.599 417.5,286.5C 415.821,286.715 414.821,286.048 414.5,284.5 Z"/></g>
<g><path style="opacity:0.816" fill="#7e7e7e" d="M 326.5,285.5 C 326.027,286.906 325.027,287.573 323.5,287.5C 323.973,286.094 324.973,285.427 326.5,285.5 Z"/></g>
<g><path style="opacity:0.678" fill="#969696" d="M 432.5,286.5 C 434.027,286.427 435.027,287.094 435.5,288.5C 433.973,288.573 432.973,287.906 432.5,286.5 Z"/></g>
<g><path style="opacity:0.906" fill="#949494" d="M 419.5,287.5 C 421.23,288.026 422.564,289.026 423.5,290.5C 421.368,290.446 420.035,289.446 419.5,287.5 Z"/></g>
<g><path style="opacity:0.498" fill="#858585" d="M 130.5,288.5 C 131.906,288.973 132.573,289.973 132.5,291.5C 131.094,291.027 130.427,290.027 130.5,288.5 Z"/></g>
<g><path style="opacity:0.627" fill="#838383" d="M 132.5,291.5 C 133.906,291.973 134.573,292.973 134.5,294.5C 133.094,294.027 132.427,293.027 132.5,291.5 Z"/></g>
<g><path style="opacity:0.004" fill="#c3c3c3" d="M 430.5,296.5 C 432.027,296.427 433.027,297.094 433.5,298.5C 431.973,298.573 430.973,297.906 430.5,296.5 Z"/></g>
<g><path style="opacity:1" fill="#545454" d="M 135.5,295.5 C 137.145,296.479 138.479,297.812 139.5,299.5C 138.675,300.386 137.675,300.719 136.5,300.5C 136.371,298.784 136.038,297.117 135.5,295.5 Z"/></g>
<g><path style="opacity:0.447" fill="#8d8d8d" d="M 411.5,297.5 C 413.027,297.427 414.027,298.094 414.5,299.5C 412.973,299.573 411.973,298.906 411.5,297.5 Z"/></g>
<g><path style="opacity:0.353" fill="#bdbdbd" d="M 296.5,298.5 C 296.586,299.496 296.252,300.329 295.5,301C 293.613,301.78 291.946,301.613 290.5,300.5C 292.858,300.747 294.858,300.081 296.5,298.5 Z"/></g>
<g><path style="opacity:0.639" fill="#9a9a9a" d="M 311.5,296.5 C 309.167,299.5 306.5,302.167 303.5,304.5C 305.167,300.833 307.833,298.167 311.5,296.5 Z"/></g>
<g><path style="opacity:0.569" fill="#838383" d="M 414.5,299.5 C 416.027,299.427 417.027,300.094 417.5,301.5C 415.973,301.573 414.973,300.906 414.5,299.5 Z"/></g>
<g><path style="opacity:0.706" fill="#a8a8a8" d="M 435.5,300.5 C 438.243,302.239 440.243,304.573 441.5,307.5C 438.757,305.761 436.757,303.427 435.5,300.5 Z"/></g>
<g><path style="opacity:0.5" fill="#848484" d="M 148.5,304.5 C 162.657,303.504 176.99,303.171 191.5,303.5C 191.5,304.833 191.5,306.167 191.5,307.5C 190.596,306.791 190.263,305.791 190.5,304.5C 176.5,304.5 162.5,304.5 148.5,304.5 Z"/></g>
<g><path style="opacity:0.509" fill="#8e8e8e" d="M 283.5,304.5 C 286.304,303.362 289.304,303.195 292.5,304C 291.934,304.995 291.267,305.828 290.5,306.5C 288.721,304.656 286.388,303.99 283.5,304.5 Z"/></g>
<g><path style="opacity:0.584" fill="#999999" d="M 417.5,301.5 C 420.089,302.419 422.089,304.086 423.5,306.5C 420.911,305.581 418.911,303.914 417.5,301.5 Z"/></g>
<g><path style="opacity:1" fill="#080808" d="M 148.5,304.5 C 162.5,304.5 176.5,304.5 190.5,304.5C 190.263,305.791 190.596,306.791 191.5,307.5C 192.982,318.464 197.649,327.797 205.5,335.5C 178.263,346.177 164.93,366.01 165.5,395C 164.975,395.692 164.308,396.192 163.5,396.5C 152.349,391.763 142.016,385.763 132.5,378.5C 132.027,377.094 131.027,376.427 129.5,376.5C 125.242,374.207 121.576,371.207 118.5,367.5C 118.027,366.094 117.027,365.427 115.5,365.5C 112.87,363.372 110.37,361.039 108,358.5C 105.664,336.673 113.83,320.173 132.5,309C 137.594,306.579 142.928,305.079 148.5,304.5 Z"/></g>
<g><path style="opacity:0.999" fill="#393939" d="M 283.5,304.5 C 286.388,303.99 288.721,304.656 290.5,306.5C 284.077,316.679 278.744,327.346 274.5,338.5C 272.459,337.764 270.459,336.931 268.5,336C 277.402,327.363 282.402,316.863 283.5,304.5 Z"/></g>
<g><path style="opacity:0.004" fill="#d4d4d4" d="M 319.5,306.5 C 319.027,307.906 318.027,308.573 316.5,308.5C 316.973,307.094 317.973,306.427 319.5,306.5 Z"/></g>
<g><path style="opacity:0.882" fill="#838383" d="M 441.5,307.5 C 443.262,308.262 444.262,309.596 444.5,311.5C 442.738,310.738 441.738,309.404 441.5,307.5 Z"/></g>
<g><path style="opacity:0.004" fill="#c7c7c7" d="M 315.5,309.5 C 315.573,311.027 314.906,312.027 313.5,312.5C 313.427,310.973 314.094,309.973 315.5,309.5 Z"/></g>
<g><path style="opacity:0.004" fill="#cdcdcd" d="M 427.5,310.5 C 428.906,310.973 429.573,311.973 429.5,313.5C 428.094,313.027 427.427,312.027 427.5,310.5 Z"/></g>
<g><path style="opacity:0.51" fill="#8c8c8c" d="M 444.5,311.5 C 445.906,311.973 446.573,312.973 446.5,314.5C 445.094,314.027 444.427,313.027 444.5,311.5 Z"/></g>
<g><path style="opacity:0.369" fill="#a1a1a1" d="M 446.5,314.5 C 447.906,314.973 448.573,315.973 448.5,317.5C 447.094,317.027 446.427,316.027 446.5,314.5 Z"/></g>
<g><path style="opacity:0.698" fill="#a0a0a0" d="M 411.5,318.5 C 408.5,318.5 405.5,318.5 402.5,318.5C 403.878,317.766 405.378,317.099 407,316.5C 408.622,317.099 410.122,317.766 411.5,318.5 Z"/></g>
<g><path style="opacity:1" fill="#0f0f0f" d="M 343.5,320.5 C 352.091,330.759 361.424,340.426 371.5,349.5C 382.188,339.479 392.521,329.146 402.5,318.5C 405.5,318.5 408.5,318.5 411.5,318.5C 411.973,319.906 412.973,320.573 414.5,320.5C 417.874,324.698 418.374,329.365 416,334.5C 405.909,344.087 396.409,354.087 387.5,364.5C 396.112,374.78 405.445,384.447 415.5,393.5C 417.964,397.278 418.13,401.278 416,405.5C 412.063,409.43 407.563,410.43 402.5,408.5C 401.738,406.738 400.404,405.738 398.5,405.5C 389.521,396.855 380.521,388.188 371.5,379.5C 361.318,389.516 350.985,399.349 340.5,409C 327.769,410.455 323.436,405.289 327.5,393.5C 337.5,384.167 347.167,374.5 356.5,364.5C 346.869,354.368 337.036,344.368 327,334.5C 325.3,330.771 325.133,327.105 326.5,323.5C 327.906,323.027 328.573,322.027 328.5,320.5C 330.027,320.573 331.027,319.906 331.5,318.5C 335.91,316.767 339.91,317.434 343.5,320.5 Z"/></g>
<g><path style="opacity:0.004" fill="#d9d9d9" d="M 411.5,318.5 C 413.027,318.427 414.027,319.094 414.5,320.5C 412.973,320.573 411.973,319.906 411.5,318.5 Z"/></g>
<g><path style="opacity:0.941" fill="#787878" d="M 78.5,319.5 C 80.0481,319.821 80.7148,320.821 80.5,322.5C 79.5987,321.71 78.9321,320.71 78.5,319.5 Z"/></g>
<g><path style="opacity:0.753" fill="#8c8c8c" d="M 331.5,318.5 C 331.027,319.906 330.027,320.573 328.5,320.5C 328.973,319.094 329.973,318.427 331.5,318.5 Z"/></g>
<g><path style="opacity:0.302" fill="#a9a9a9" d="M 449.5,319.5 C 450.906,319.973 451.573,320.973 451.5,322.5C 450.094,322.027 449.427,321.027 449.5,319.5 Z"/></g>
<g><path style="opacity:0.502" fill="#8e8e8e" d="M 328.5,320.5 C 328.573,322.027 327.906,323.027 326.5,323.5C 326.427,321.973 327.094,320.973 328.5,320.5 Z"/></g>
<g><path style="opacity:0.502" fill="#8b8b8b" d="M 71.5,327.5 C 72.9063,327.973 73.573,328.973 73.5,330.5C 72.0937,330.027 71.427,329.027 71.5,327.5 Z"/></g>
<g><path style="opacity:0.627" fill="#9e9e9e" d="M 402.5,318.5 C 392.521,329.146 382.188,339.479 371.5,349.5C 361.424,340.426 352.091,330.759 343.5,320.5C 352.813,329.479 362.146,338.479 371.5,347.5C 381.319,338.181 390.986,328.681 400.5,319C 401.094,318.536 401.761,318.369 402.5,318.5 Z"/></g>
<g><path style="opacity:0.906" fill="#808080" d="M 455.5,331.5 C 456.738,333.214 457.405,335.214 457.5,337.5C 455.926,335.898 455.259,333.898 455.5,331.5 Z"/></g>
<g><path style="opacity:0.733" fill="#7a7a7a" d="M 78.5,338.5 C 80.2624,339.262 81.2624,340.596 81.5,342.5C 79.7376,341.738 78.7376,340.404 78.5,338.5 Z"/></g>
<g><path style="opacity:0.757" fill="#b3b3b3" d="M 457.5,337.5 C 460.686,346.082 462.352,355.082 462.5,364.5C 462.495,366.696 462.162,368.696 461.5,370.5C 461.335,359.347 460.002,348.347 457.5,337.5 Z"/></g>
<g><path style="opacity:1" fill="#080808" d="M 184.5,403.5 C 182.485,402.076 180.152,401.41 177.5,401.5C 176.391,401.443 175.391,401.11 174.5,400.5C 173.57,396.6 173.237,392.6 173.5,388.5C 173.444,377.322 177.111,367.656 184.5,359.5C 187.167,357.5 189.5,355.167 191.5,352.5C 195.968,348.266 201.301,345.599 207.5,344.5C 210.152,344.59 212.485,343.924 214.5,342.5C 227.815,341.452 241.148,341.285 254.5,342C 260.791,342.073 266.791,343.406 272.5,346C 272.012,357.781 272.512,369.614 274,381.5C 275.503,389.675 278.003,397.508 281.5,405C 248.878,414.059 216.545,413.559 184.5,403.5 Z"/></g>
<g><path style="opacity:1" fill="#5d5d5d" d="M 214.5,342.5 C 212.485,343.924 210.152,344.59 207.5,344.5C 209.515,343.076 211.848,342.41 214.5,342.5 Z"/></g>
<g><path style="opacity:0.627" fill="#808080" d="M 81.5,342.5 C 82.9063,342.973 83.573,343.973 83.5,345.5C 82.0937,345.027 81.427,344.027 81.5,342.5 Z"/></g>
<g><path style="opacity:0.251" fill="#a1a1a1" d="M 99.5,343.5 C 99.6602,345.199 99.4935,346.866 99,348.5C 98.2828,347.956 97.7828,347.289 97.5,346.5C 98.1667,345.5 98.8333,344.5 99.5,343.5 Z"/></g>
<g><path style="opacity:0.776" fill="#949494" d="M 90.5,353.5 C 92.2624,354.262 93.2624,355.596 93.5,357.5C 91.7376,356.738 90.7376,355.404 90.5,353.5 Z"/></g>
<g><path style="opacity:0.627" fill="#939393" d="M 191.5,352.5 C 189.5,355.167 187.167,357.5 184.5,359.5C 185.833,356.167 188.167,353.833 191.5,352.5 Z"/></g>
<g><path style="opacity:0.404" fill="#7e7e7e" d="M 294.5,349.5 C 293.793,357.146 293.46,364.813 293.5,372.5C 292.836,369.854 292.502,367.021 292.5,364C 292.405,358.921 293.072,354.088 294.5,349.5 Z"/></g>
<g><path style="opacity:0.812" fill="#7e7e7e" d="M 115.5,365.5 C 117.027,365.427 118.027,366.094 118.5,367.5C 116.973,367.573 115.973,366.906 115.5,365.5 Z"/></g>
<g><path style="opacity:0.624" fill="#acacac" d="M 387.5,364.5 C 397.555,373.553 406.888,383.22 415.5,393.5C 405.445,384.447 396.112,374.78 387.5,364.5 Z"/></g>
<g><path style="opacity:0.624" fill="#797979" d="M 129.5,376.5 C 131.027,376.427 132.027,377.094 132.5,378.5C 130.973,378.573 129.973,377.906 129.5,376.5 Z"/></g>
<g><path style="opacity:0.627" fill="#989898" d="M 356.5,364.5 C 347.167,374.5 337.5,384.167 327.5,393.5C 335.909,383.587 344.909,374.087 354.5,365C 355.094,364.536 355.761,364.369 356.5,364.5 Z"/></g>
<g><path style="opacity:0.165" fill="#b9b9b9" d="M 460.5,378.5 C 460.575,383.192 459.575,387.526 457.5,391.5C 458.057,386.948 459.057,382.615 460.5,378.5 Z"/></g>
<g><path style="opacity:0.243" fill="#afafaf" d="M 447.5,380.5 C 447.59,383.152 446.924,385.485 445.5,387.5C 445.171,384.772 445.837,382.438 447.5,380.5 Z"/></g>
<g><path style="opacity:0.945" fill="#7b7b7b" d="M 128.5,387.5 C 129.71,387.932 130.71,388.599 131.5,389.5C 129.821,389.715 128.821,389.048 128.5,387.5 Z"/></g>
<g><path style="opacity:0.565" fill="#adadad" d="M 445.5,388.5 C 445.34,390.153 444.674,391.486 443.5,392.5C 443.229,390.62 443.896,389.287 445.5,388.5 Z"/></g>
<g><path style="opacity:0.244" fill="#bcbcbc" d="M 173.5,388.5 C 173.237,392.6 173.57,396.6 174.5,400.5C 173.206,398.952 172.539,396.952 172.5,394.5C 172.505,392.304 172.838,390.304 173.5,388.5 Z"/></g>
<g><path style="opacity:0.949" fill="#6b6b6b" d="M 177.5,401.5 C 180.152,401.41 182.485,402.076 184.5,403.5C 181.848,403.59 179.515,402.924 177.5,401.5 Z"/></g>
<g><path style="opacity:0.439" fill="#929292" d="M 440.5,400.5 C 440.573,402.027 439.906,403.027 438.5,403.5C 438.427,401.973 439.094,400.973 440.5,400.5 Z"/></g>
<g><path style="opacity:0.459" fill="#989898" d="M 92.5,402.5 C 94.0269,402.427 95.0269,403.094 95.5,404.5C 93.9731,404.573 92.9731,403.906 92.5,402.5 Z"/></g>
<g><path style="opacity:0.373" fill="#a0a0a0" d="M 303.5,403.5 C 304.906,403.973 305.573,404.973 305.5,406.5C 304.094,406.027 303.427,405.027 303.5,403.5 Z"/></g>
<g><path style="opacity:0.812" fill="#8d8d8d" d="M 398.5,405.5 C 400.404,405.738 401.738,406.738 402.5,408.5C 400.596,408.262 399.262,407.262 398.5,405.5 Z"/></g>
<g><path style="opacity:0.435" fill="#969696" d="M 437.5,405.5 C 437.573,407.027 436.906,408.027 435.5,408.5C 435.427,406.973 436.094,405.973 437.5,405.5 Z"/></g>
<g><path style="opacity:0.369" fill="#adadad" d="M 305.5,406.5 C 306.906,406.973 307.573,407.973 307.5,409.5C 306.094,409.027 305.427,408.027 305.5,406.5 Z"/></g>
<g><path style="opacity:0.871" fill="#7d7d7d" d="M 435.5,408.5 C 435.262,410.404 434.262,411.738 432.5,412.5C 432.738,410.596 433.738,409.262 435.5,408.5 Z"/></g>
<g><path style="opacity:0.627" fill="#8c8c8c" d="M 307.5,409.5 C 309.262,410.262 310.262,411.596 310.5,413.5C 308.738,412.738 307.738,411.404 307.5,409.5 Z"/></g>
<g><path style="opacity:0.765" fill="#979797" d="M 286.5,415.5 C 284.958,414.699 283.292,414.366 281.5,414.5C 284.013,411.874 285.68,412.207 286.5,415.5 Z"/></g>
<g><path style="opacity:0.522" fill="#8b8b8b" d="M 107.5,413.5 C 109.027,413.427 110.027,414.094 110.5,415.5C 108.973,415.573 107.973,414.906 107.5,413.5 Z"/></g>
<g><path style="opacity:0.435" fill="#979797" d="M 110.5,415.5 C 112.027,415.427 113.027,416.094 113.5,417.5C 111.973,417.573 110.973,416.906 110.5,415.5 Z"/></g>
<g><path style="opacity:0.431" fill="#989898" d="M 286.5,415.5 C 287.906,415.973 288.573,416.973 288.5,418.5C 287.094,418.027 286.427,417.027 286.5,415.5 Z"/></g>
<g><path style="opacity:0.525" fill="#8c8c8c" d="M 288.5,418.5 C 289.906,418.973 290.573,419.973 290.5,421.5C 289.094,421.027 288.427,420.027 288.5,418.5 Z"/></g>
<g><path style="opacity:0.404" fill="#949494" d="M 118.5,420.5 C 120.027,420.427 121.027,421.094 121.5,422.5C 119.973,422.573 118.973,421.906 118.5,420.5 Z"/></g>
<g><path style="opacity:0.78" fill="#808080" d="M 428.5,416.5 C 427.167,419.833 424.833,422.167 421.5,423.5C 423.5,420.833 425.833,418.5 428.5,416.5 Z"/></g>
<g><path style="opacity:0.365" fill="#a3a3a3" d="M 123.5,423.5 C 125.027,423.427 126.027,424.094 126.5,425.5C 124.973,425.573 123.973,424.906 123.5,423.5 Z"/></g>
<g><path style="opacity:0.643" fill="#8c8c8c" d="M 419.5,425.5 C 418.738,427.262 417.404,428.262 415.5,428.5C 416.262,426.738 417.596,425.738 419.5,425.5 Z"/></g>
<g><path style="opacity:0.686" fill="#929292" d="M 415.5,428.5 C 415.027,429.906 414.027,430.573 412.5,430.5C 412.973,429.094 413.973,428.427 415.5,428.5 Z"/></g>
<g><path style="opacity:0.922" fill="#848484" d="M 330.5,430.5 C 331.71,430.932 332.71,431.599 333.5,432.5C 331.821,432.715 330.821,432.048 330.5,430.5 Z"/></g>
<g><path style="opacity:0.675" fill="#989898" d="M 410.5,431.5 C 410.027,432.906 409.027,433.573 407.5,433.5C 407.973,432.094 408.973,431.427 410.5,431.5 Z"/></g>
<g><path style="opacity:0.91" fill="#6e6e6e" d="M 400.5,436.5 C 398.383,438.655 395.716,439.655 392.5,439.5C 394.936,438.129 397.603,437.129 400.5,436.5 Z"/></g>
<g><path style="opacity:0.922" fill="#7d7d7d" d="M 157.5,439.5 C 159.698,439.12 161.365,439.787 162.5,441.5C 160.597,441.204 158.93,440.537 157.5,439.5 Z"/></g>
<g><path style="opacity:0.298" fill="#919191" d="M 306.5,438.5 C 308.867,440.54 308.2,441.54 304.5,441.5C 305.551,440.778 306.218,439.778 306.5,438.5 Z"/></g>
<g><path style="opacity:0.361" fill="#a0a0a0" d="M 323.5,441.5 C 325.027,441.427 326.027,442.094 326.5,443.5C 324.973,443.573 323.973,442.906 323.5,441.5 Z"/></g>
<g><path style="opacity:0.557" fill="#8f8f8f" d="M 346.5,451.5 C 349.152,451.41 351.485,452.076 353.5,453.5C 350.848,453.59 348.515,452.924 346.5,451.5 Z"/></g>
</svg>
