<svg width="23" height="19" viewBox="0 0 23 19" fill="none" xmlns="http://www.w3.org/2000/svg">
<path d="M7.87559 8.76265C8.00752 8.76265 8.10018 8.70091 8.15358 8.57744C8.20698 8.45706 8.18499 8.35057 8.08761 8.25797L5.97682 6.18368C5.92028 6.12503 5.84961 6.0957 5.7648 6.0957C5.67999 6.0957 5.60932 6.12503 5.55278 6.18368L3.44199 8.25797C3.34461 8.35057 3.32263 8.45706 3.37602 8.57744C3.42942 8.70091 3.52208 8.76265 3.65401 8.76265H4.86018V10.8369C4.86018 10.9172 4.89001 10.9866 4.9497 11.0453C5.00938 11.1039 5.08005 11.1333 5.16172 11.1333H6.36788C6.44955 11.1333 6.52023 11.1039 6.57991 11.0453C6.63959 10.9866 6.66943 10.9172 6.66943 10.8369V8.76265H7.87559Z" fill="white"/>
<path d="M18.8238 8.76265C18.9558 8.76265 19.0484 8.70091 19.1018 8.57744C19.1552 8.45706 19.1332 8.35057 19.0359 8.25797L16.9251 6.18368C16.8685 6.12503 16.7979 6.0957 16.713 6.0957C16.6282 6.0957 16.5576 6.12503 16.501 6.18368L14.3902 8.25797C14.2929 8.35057 14.2709 8.45706 14.3243 8.57744C14.3777 8.70091 14.4703 8.76265 14.6022 8.76265H15.8084V10.8369C15.8084 10.9172 15.8383 10.9866 15.8979 11.0453C15.9576 11.1039 16.0283 11.1333 16.11 11.1333H17.3161C17.3978 11.1333 17.4685 11.1039 17.5281 11.0453C17.5878 10.9866 17.6177 10.9172 17.6177 10.8369V8.76265H18.8238Z" fill="white"/>
<path d="M22.2255 16.9496V14.0258C22.2255 13.6797 22.1023 13.3856 21.8558 13.1433C21.6093 12.9011 21.31 12.78 20.9578 12.78L19.7199 12.7793C19.1516 12.7793 18.6681 13.1611 18.285 13.5841C18.1564 13.7261 18.0099 13.8558 17.8457 13.9732C17.4099 14.2846 16.9235 14.4403 16.3865 14.4403L6.37035 14.441C5.83334 14.441 5.34694 14.2853 4.91117 13.9739C4.7469 13.8565 4.60046 13.7268 4.47184 13.5848C4.0887 13.1618 3.60523 12.78 3.03698 12.78H1.51966C1.16752 12.78 0.868199 12.9011 0.621701 13.1433C0.375202 13.3856 0.251953 13.6797 0.251953 14.0258V16.9496C0.251953 17.2957 0.375202 17.5898 0.621701 17.832C0.868199 18.0743 1.16752 18.1954 1.51966 18.1954H20.9578C21.31 18.1954 21.6093 18.0743 21.8558 17.832C22.1023 17.5898 22.2255 17.2957 22.2255 16.9496Z" fill="white"/>
<path d="M15.4497 5.37965C15.7091 5.37965 15.8914 5.25824 15.9964 5.01543C16.1014 4.77868 16.0581 4.56925 15.8667 4.38713L11.7155 0.307774C11.6043 0.192435 11.4653 0.134766 11.2985 0.134766C11.1318 0.134766 10.9928 0.192435 10.8816 0.307774L6.73043 4.38713C6.53894 4.56925 6.4957 4.77868 6.60071 5.01543C6.70572 5.25824 6.88795 5.37965 7.1474 5.37965H9.51948V9.45901C9.51948 9.61684 9.57817 9.75343 9.69554 9.86877C9.8129 9.98411 9.95189 10.0418 10.1125 10.0418H12.4846C12.6452 10.0418 12.7842 9.98411 12.9016 9.86877C13.0189 9.75343 13.0776 9.61684 13.0776 9.45901V5.37965H15.4497Z" fill="white"/>
</svg>
