<?xml version="1.0" encoding="UTF-8"?>
<!DOCTYPE svg PUBLIC "-//W3C//DTD SVG 1.1//EN" "http://www.w3.org/Graphics/SVG/1.1/DTD/svg11.dtd">
<svg xmlns="http://www.w3.org/2000/svg" version="1.1" width="478px" height="475px" style="shape-rendering:geometricPrecision; text-rendering:geometricPrecision; image-rendering:optimizeQuality; fill-rule:evenodd; clip-rule:evenodd" xmlns:xlink="http://www.w3.org/1999/xlink">
<g><path style="opacity:1" fill="#0b0b0b" d="M 365.5,50.5 C 366.035,52.4456 367.368,53.4456 369.5,53.5C 371.23,54.0256 372.564,55.0256 373.5,56.5C 374.035,58.4456 375.368,59.4456 377.5,59.5C 383.129,63.794 388.463,68.4607 393.5,73.5C 393.738,75.4044 394.738,76.7377 396.5,77.5C 407.513,87.8804 416.846,99.547 424.5,112.5C 424.427,114.027 425.094,115.027 426.5,115.5C 426.427,117.027 427.094,118.027 428.5,118.5C 437.921,133.015 444.921,148.682 449.5,165.5C 449.41,168.152 450.076,170.485 451.5,172.5C 451.41,175.152 452.076,177.485 453.5,179.5C 454.451,180.919 454.784,182.585 454.5,184.5C 454.42,187.781 455.087,190.781 456.5,193.5C 463.222,230.159 460.888,266.159 449.5,301.5C 448.609,300.89 447.609,300.557 446.5,300.5C 442.833,296.167 438.833,292.167 434.5,288.5C 433.738,286.738 432.404,285.738 430.5,285.5C 430.027,284.094 429.027,283.427 427.5,283.5C 426.29,283.068 425.29,282.401 424.5,281.5C 424.027,280.094 423.027,279.427 421.5,279.5C 420.005,279.585 419.005,278.919 418.5,277.5C 429.651,230.375 423.984,185.375 401.5,142.5C 401.715,140.821 401.048,139.821 399.5,139.5C 389.242,121.681 376.575,105.681 361.5,91.5C 360.738,89.7376 359.404,88.7376 357.5,88.5C 356.5,88.1667 355.833,87.5 355.5,86.5C 355.027,85.0937 354.027,84.427 352.5,84.5C 350.46,82.823 348.46,81.1563 346.5,79.5C 346.027,78.0937 345.027,77.427 343.5,77.5C 343.027,76.0937 342.027,75.427 340.5,75.5C 340.027,74.0937 339.027,73.427 337.5,73.5C 337.027,72.0937 336.027,71.427 334.5,71.5C 323.434,65.6343 312.101,60.301 300.5,55.5C 299.365,53.7868 297.698,53.1201 295.5,53.5C 293.898,51.9261 291.898,51.2594 289.5,51.5C 287.485,50.0762 285.152,49.4095 282.5,49.5C 216.694,35.5344 158.361,50.201 107.5,93.5C 106.5,93.8333 105.833,94.5 105.5,95.5C 104.5,95.8333 103.833,96.5 103.5,97.5C 102.094,97.9731 101.427,98.9731 101.5,100.5C 56.6502,148.517 39.6502,205.184 50.5,270.5C 50.2938,273.495 50.9605,276.162 52.5,278.5C 52.5,278.833 52.5,279.167 52.5,279.5C 52.4095,282.152 53.0762,284.485 54.5,286.5C 59.852,301.206 66.1853,315.54 73.5,329.5C 73.427,331.027 74.0937,332.027 75.5,332.5C 76.8897,333.899 77.8897,335.566 78.5,337.5C 78.427,339.027 79.0937,340.027 80.5,340.5C 84.4697,345.476 88.4697,350.476 92.5,355.5C 92.7376,357.404 93.7376,358.738 95.5,359.5C 102.893,366.897 110.56,373.897 118.5,380.5C 119.035,382.446 120.368,383.446 122.5,383.5C 127.5,386.833 132.5,390.167 137.5,393.5C 137.821,395.048 138.821,395.715 140.5,395.5C 185.168,420.466 232.501,427.132 282.5,415.5C 284.292,415.366 285.958,415.699 287.5,416.5C 288.338,416.842 288.672,417.508 288.5,418.5C 288.427,420.027 289.094,421.027 290.5,421.5C 292.633,423.091 294.299,425.091 295.5,427.5C 295.427,429.027 296.094,430.027 297.5,430.5C 301.167,433.833 304.833,437.167 308.5,440.5C 308.833,441.833 309.167,443.167 309.5,444.5C 261.39,461.451 213.057,461.784 164.5,445.5C 163.365,443.787 161.698,443.12 159.5,443.5C 147.456,439.495 136.123,434.162 125.5,427.5C 125.027,426.094 124.027,425.427 122.5,425.5C 120.566,424.89 118.899,423.89 117.5,422.5C 117.027,421.094 116.027,420.427 114.5,420.5C 112.147,419.66 110.147,418.326 108.5,416.5C 108.027,415.094 107.027,414.427 105.5,414.5C 102.19,412.518 99.1897,410.185 96.5,407.5C 96.0269,406.094 95.0269,405.427 93.5,405.5C 92.1667,404.833 91.1667,403.833 90.5,402.5C 90.0269,401.094 89.0269,400.427 87.5,400.5C 72.9522,387.367 60.2855,372.7 49.5,356.5C 49.7148,354.821 49.0481,353.821 47.5,353.5C 11.4436,294.26 3.27694,231.26 23,164.5C 29.0765,146.352 37.2432,129.352 47.5,113.5C 48.9063,113.027 49.573,112.027 49.5,110.5C 50.9063,110.027 51.573,109.027 51.5,107.5C 57.0633,97.7264 64.0633,89.0598 72.5,81.5C 75.2427,79.7607 77.2427,77.4274 78.5,74.5C 81.7642,72.9059 84.4309,70.5725 86.5,67.5C 87.5,65.8333 88.8333,64.5 90.5,63.5C 92.4044,63.2624 93.7377,62.2624 94.5,60.5C 95.2623,58.7376 96.5956,57.7376 98.5,57.5C 100.749,56.9202 102.415,55.5869 103.5,53.5C 104.436,52.0256 105.77,51.0256 107.5,50.5C 109.027,50.573 110.027,49.9063 110.5,48.5C 112.147,46.6736 114.147,45.3403 116.5,44.5C 118.027,44.573 119.027,43.9063 119.5,42.5C 122.008,40.0764 125.008,38.4097 128.5,37.5C 130.027,37.573 131.027,36.9063 131.5,35.5C 179.489,10.5891 230.155,3.42244 283.5,14C 313.544,20.5312 340.878,32.6979 365.5,50.5 Z"/></g>
<g><path style="opacity:0.804" fill="#797979" d="M 131.5,35.5 C 131.027,36.9063 130.027,37.573 128.5,37.5C 128.973,36.0937 129.973,35.427 131.5,35.5 Z"/></g>
<g><path style="opacity:0.812" fill="#777777" d="M 119.5,42.5 C 119.027,43.9063 118.027,44.573 116.5,44.5C 116.973,43.0937 117.973,42.427 119.5,42.5 Z"/></g>
<g><path style="opacity:0.737" fill="#858585" d="M 110.5,48.5 C 110.027,49.9063 109.027,50.573 107.5,50.5C 107.973,49.0937 108.973,48.427 110.5,48.5 Z"/></g>
<g><path style="opacity:0.882" fill="#7d7d7d" d="M 282.5,49.5 C 285.152,49.4095 287.485,50.0762 289.5,51.5C 286.848,51.5905 284.515,50.9238 282.5,49.5 Z"/></g>
<g><path style="opacity:0.812" fill="#888888" d="M 289.5,51.5 C 291.898,51.2594 293.898,51.9261 295.5,53.5C 293.214,53.405 291.214,52.7384 289.5,51.5 Z"/></g>
<g><path style="opacity:0.98" fill="#7a7a7a" d="M 365.5,50.5 C 367.23,51.0256 368.564,52.0256 369.5,53.5C 367.368,53.4456 366.035,52.4456 365.5,50.5 Z"/></g>
<g><path style="opacity:0.937" fill="#7f7f7f" d="M 295.5,53.5 C 297.698,53.1201 299.365,53.7868 300.5,55.5C 298.597,55.2041 296.93,54.5375 295.5,53.5 Z"/></g>
<g><path style="opacity:0.965" fill="#575757" d="M 103.5,53.5 C 102.415,55.5869 100.749,56.9202 98.5,57.5C 99.5846,55.4131 101.251,54.0798 103.5,53.5 Z"/></g>
<g><path style="opacity:0.988" fill="#7c7c7c" d="M 373.5,56.5 C 375.23,57.0256 376.564,58.0256 377.5,59.5C 375.368,59.4456 374.035,58.4456 373.5,56.5 Z"/></g>
<g><path style="opacity:0.678" fill="#858585" d="M 94.5,60.5 C 93.7377,62.2624 92.4044,63.2624 90.5,63.5C 91.2623,61.7376 92.5956,60.7376 94.5,60.5 Z"/></g>
<g><path style="opacity:0.69" fill="#888888" d="M 86.5,67.5 C 84.4309,70.5725 81.7642,72.9059 78.5,74.5C 80.5691,71.4275 83.2358,69.0941 86.5,67.5 Z"/></g>
<g><path style="opacity:0.404" fill="#a2a2a2" d="M 334.5,71.5 C 336.027,71.427 337.027,72.0937 337.5,73.5C 335.973,73.573 334.973,72.9063 334.5,71.5 Z"/></g>
<g><path style="opacity:0.365" fill="#a4a4a4" d="M 337.5,73.5 C 339.027,73.427 340.027,74.0937 340.5,75.5C 338.973,75.573 337.973,74.9063 337.5,73.5 Z"/></g>
<g><path style="opacity:0.631" fill="#a3a3a3" d="M 393.5,73.5 C 395.262,74.2623 396.262,75.5956 396.5,77.5C 394.738,76.7377 393.738,75.4044 393.5,73.5 Z"/></g>
<g><path style="opacity:0.396" fill="#a2a2a2" d="M 340.5,75.5 C 342.027,75.427 343.027,76.0937 343.5,77.5C 341.973,77.573 340.973,76.9063 340.5,75.5 Z"/></g>
<g><path style="opacity:0.71" fill="#898989" d="M 78.5,74.5 C 77.2427,77.4274 75.2427,79.7607 72.5,81.5C 73.7573,78.5726 75.7573,76.2393 78.5,74.5 Z"/></g>
<g><path style="opacity:0.525" fill="#8c8c8c" d="M 343.5,77.5 C 345.027,77.427 346.027,78.0937 346.5,79.5C 344.973,79.573 343.973,78.9063 343.5,77.5 Z"/></g>
<g><path style="opacity:0.502" fill="#9b9b9b" d="M 352.5,84.5 C 354.027,84.427 355.027,85.0937 355.5,86.5C 353.973,86.573 352.973,85.9063 352.5,84.5 Z"/></g>
<g><path style="opacity:0.773" fill="#939393" d="M 357.5,88.5 C 359.404,88.7376 360.738,89.7376 361.5,91.5C 359.596,91.2624 358.262,90.2624 357.5,88.5 Z"/></g>
<g><path style="opacity:0.004" fill="#bdbdbd" d="M 107.5,93.5 C 107.5,94.8333 106.833,95.5 105.5,95.5C 105.833,94.5 106.5,93.8333 107.5,93.5 Z"/></g>
<g><path style="opacity:0.004" fill="#bbbbbb" d="M 105.5,95.5 C 105.5,96.8333 104.833,97.5 103.5,97.5C 103.833,96.5 104.5,95.8333 105.5,95.5 Z"/></g>
<g><path style="opacity:0.004" fill="#cccccc" d="M 103.5,97.5 C 103.573,99.0269 102.906,100.027 101.5,100.5C 101.427,98.9731 102.094,97.9731 103.5,97.5 Z"/></g>
<g><path style="opacity:0.502" fill="#8c8c8c" d="M 51.5,107.5 C 51.573,109.027 50.9063,110.027 49.5,110.5C 49.427,108.973 50.0937,107.973 51.5,107.5 Z"/></g>
<g><path style="opacity:0.435" fill="#919191" d="M 49.5,110.5 C 49.573,112.027 48.9063,113.027 47.5,113.5C 47.427,111.973 48.0937,110.973 49.5,110.5 Z"/></g>
<g><path style="opacity:0.533" fill="#8b8b8b" d="M 424.5,112.5 C 425.906,112.973 426.573,113.973 426.5,115.5C 425.094,115.027 424.427,114.027 424.5,112.5 Z"/></g>
<g><path style="opacity:0.404" fill="#9c9c9c" d="M 426.5,115.5 C 427.906,115.973 428.573,116.973 428.5,118.5C 427.094,118.027 426.427,117.027 426.5,115.5 Z"/></g>
<g><path style="opacity:0.922" fill="#828282" d="M 399.5,139.5 C 401.048,139.821 401.715,140.821 401.5,142.5C 400.599,141.71 399.932,140.71 399.5,139.5 Z"/></g>
<g><path style="opacity:0.941" fill="#6b6b6b" d="M 449.5,165.5 C 450.924,167.515 451.59,169.848 451.5,172.5C 450.076,170.485 449.41,168.152 449.5,165.5 Z"/></g>
<g><path style="opacity:0.722" fill="#707070" d="M 451.5,172.5 C 452.924,174.515 453.59,176.848 453.5,179.5C 452.076,177.485 451.41,175.152 451.5,172.5 Z"/></g>
<g><path style="opacity:1" fill="#0a0a0a" d="M 388.5,201.5 C 388.427,203.027 389.094,204.027 390.5,204.5C 391.167,204.5 391.5,204.833 391.5,205.5C 391.738,207.404 392.738,208.738 394.5,209.5C 396.794,212.37 398.128,215.703 398.5,219.5C 398.205,221.735 398.539,223.735 399.5,225.5C 400.92,234.279 398.92,242.279 393.5,249.5C 392.094,249.973 391.427,250.973 391.5,252.5C 379.824,265.681 365.491,269.514 348.5,264C 347.584,263.626 346.75,263.126 346,262.5C 343.813,248.843 337.313,237.843 326.5,229.5C 325.612,226.946 325.279,224.279 325.5,221.5C 325.807,216.57 327.473,212.237 330.5,208.5C 331.906,208.027 332.573,207.027 332.5,205.5C 333.5,203.833 334.833,202.5 336.5,201.5C 338.749,200.92 340.415,199.587 341.5,197.5C 352.936,190.404 364.936,189.237 377.5,194C 381.58,196.029 385.246,198.529 388.5,201.5 Z"/></g>
<g><path style="opacity:0.659" fill="#7b7b7b" d="M 454.5,184.5 C 455.913,187.219 456.58,190.219 456.5,193.5C 455.087,190.781 454.42,187.781 454.5,184.5 Z"/></g>
<g><path style="opacity:1" fill="#090909" d="M 138.5,204.5 C 138.427,206.027 139.094,207.027 140.5,207.5C 144.962,212.204 147.296,217.87 147.5,224.5C 147.675,226.621 147.341,228.621 146.5,230.5C 135.408,238.669 128.908,249.669 127,263.5C 124.413,265.196 121.579,266.196 118.5,266.5C 112.131,266.653 105.797,266.32 99.5,265.5C 78.6057,257.727 70.1057,242.727 74,220.5C 75.315,214.526 78.1483,209.526 82.5,205.5C 84.1667,204.5 85.5,203.167 86.5,201.5C 93.1887,195.377 101.189,192.377 110.5,192.5C 121.806,192.159 131.139,196.159 138.5,204.5 Z"/></g>
<g><path style="opacity:0.937" fill="#626262" d="M 341.5,197.5 C 340.415,199.587 338.749,200.92 336.5,201.5C 337.585,199.413 339.251,198.08 341.5,197.5 Z"/></g>
<g><path style="opacity:0.627" fill="#8f8f8f" d="M 86.5,201.5 C 85.5,203.167 84.1667,204.5 82.5,205.5C 82.8333,203.167 84.1667,201.833 86.5,201.5 Z"/></g>
<g><path style="opacity:0.624" fill="#a1a1a1" d="M 388.5,201.5 C 389.906,201.973 390.573,202.973 390.5,204.5C 389.094,204.027 388.427,203.027 388.5,201.5 Z"/></g>
<g><path style="opacity:0.502" fill="#939393" d="M 138.5,204.5 C 139.906,204.973 140.573,205.973 140.5,207.5C 139.094,207.027 138.427,206.027 138.5,204.5 Z"/></g>
<g><path style="opacity:0.875" fill="#858585" d="M 391.5,205.5 C 393.262,206.262 394.262,207.596 394.5,209.5C 392.738,208.738 391.738,207.404 391.5,205.5 Z"/></g>
<g><path style="opacity:0.376" fill="#aaaaaa" d="M 332.5,205.5 C 332.573,207.027 331.906,208.027 330.5,208.5C 330.427,206.973 331.094,205.973 332.5,205.5 Z"/></g>
<g><path style="opacity:0.502" fill="#8c8c8c" d="M 398.5,219.5 C 399.828,221.444 400.161,223.444 399.5,225.5C 398.539,223.735 398.205,221.735 398.5,219.5 Z"/></g>
<g><path style="opacity:0.531" fill="#858585" d="M 325.5,221.5 C 325.279,224.279 325.612,226.946 326.5,229.5C 325.252,228.666 324.585,227.333 324.5,225.5C 324.511,223.955 324.844,222.622 325.5,221.5 Z"/></g>
<g><path style="opacity:0.502" fill="#a1a1a1" d="M 147.5,224.5 C 148.147,225.274 148.48,226.274 148.5,227.5C 148.36,229.03 147.693,230.03 146.5,230.5C 147.341,228.621 147.675,226.621 147.5,224.5 Z"/></g>
<g><path style="opacity:0.506" fill="#939393" d="M 178.5,229.5 C 173.13,229.392 167.797,229.725 162.5,230.5C 165.356,228.994 168.523,228.328 172,228.5C 174.361,228.504 176.527,228.837 178.5,229.5 Z"/></g>
<g><path style="opacity:1" fill="#080808" d="M 178.5,229.5 C 187.704,230.602 195.371,234.602 201.5,241.5C 201.427,243.027 202.094,244.027 203.5,244.5C 209.24,251.788 211.406,260.121 210,269.5C 201.492,276.191 195.992,284.858 193.5,295.5C 192.599,296.29 191.932,297.29 191.5,298.5C 172.582,307.852 156.082,304.519 142,288.5C 135.924,279.025 133.924,268.692 136,257.5C 137.143,252.547 139.31,248.214 142.5,244.5C 143.906,244.027 144.573,243.027 144.5,241.5C 145.167,240.167 146.167,239.167 147.5,238.5C 149.404,238.262 150.738,237.262 151.5,235.5C 154.497,232.504 158.164,230.837 162.5,230.5C 167.797,229.725 173.13,229.392 178.5,229.5 Z"/></g>
<g><path style="opacity:1" fill="#0b0b0b" d="M 264.5,255.5 C 265.404,254.791 265.737,253.791 265.5,252.5C 266.589,247.978 268.922,244.311 272.5,241.5C 273.833,240.833 274.833,239.833 275.5,238.5C 275.833,237.5 276.5,236.833 277.5,236.5C 279.027,236.573 280.027,235.906 280.5,234.5C 299.545,224.407 316.379,227.407 331,243.5C 337.367,252.671 339.367,262.671 337,273.5C 321.066,280.045 307.566,289.878 296.5,303C 292.42,303.421 288.587,302.587 285,300.5C 282.612,286.038 275.445,274.704 263.5,266.5C 262.643,262.766 262.976,259.099 264.5,255.5 Z"/></g>
<g><path style="opacity:0.749" fill="#868686" d="M 280.5,234.5 C 280.027,235.906 279.027,236.573 277.5,236.5C 277.973,235.094 278.973,234.427 280.5,234.5 Z"/></g>
<g><path style="opacity:0.69" fill="#878787" d="M 151.5,235.5 C 150.738,237.262 149.404,238.262 147.5,238.5C 148.262,236.738 149.596,235.738 151.5,235.5 Z"/></g>
<g><path style="opacity:0.565" fill="#8d8d8d" d="M 275.5,238.5 C 274.833,239.833 273.833,240.833 272.5,241.5C 272.5,239.5 273.5,238.5 275.5,238.5 Z"/></g>
<g><path style="opacity:0.816" fill="#7c7c7c" d="M 144.5,241.5 C 144.573,243.027 143.906,244.027 142.5,244.5C 142.427,242.973 143.094,241.973 144.5,241.5 Z"/></g>
<g><path style="opacity:0.376" fill="#acacac" d="M 201.5,241.5 C 202.906,241.973 203.573,242.973 203.5,244.5C 202.094,244.027 201.427,243.027 201.5,241.5 Z"/></g>
<g><path style="opacity:0.004" fill="#d0d0d0" d="M 393.5,249.5 C 393.573,251.027 392.906,252.027 391.5,252.5C 391.427,250.973 392.094,249.973 393.5,249.5 Z"/></g>
<g><path style="opacity:0.702" fill="#959595" d="M 265.5,252.5 C 265.737,253.791 265.404,254.791 264.5,255.5C 264.062,255.565 263.728,255.399 263.5,255C 264.066,254.005 264.733,253.172 265.5,252.5 Z"/></g>
<g><path style="opacity:0.004" fill="#fefffe" d="M 94.5,267.5 C 95.2506,266.427 96.2506,266.26 97.5,267C 96.552,267.483 95.552,267.649 94.5,267.5 Z"/></g>
<g><path style="opacity:0.502" fill="#949494" d="M 99.5,265.5 C 105.797,266.32 112.131,266.653 118.5,266.5C 116.022,267.164 113.355,267.497 110.5,267.5C 106.531,267.706 102.865,267.039 99.5,265.5 Z"/></g>
<g><path style="opacity:0.004" fill="#fefffe" d="M 122.5,267.5 C 122.897,266.475 123.563,266.308 124.5,267C 123.906,267.464 123.239,267.631 122.5,267.5 Z"/></g>
<g><path style="opacity:0.004" fill="#fefffe" d="M 122.5,267.5 C 122.103,268.525 121.437,268.692 120.5,268C 121.094,267.536 121.761,267.369 122.5,267.5 Z"/></g>
<g><path style="opacity:1" fill="#090909" d="M 269.5,283.5 C 269.427,285.027 270.094,286.027 271.5,286.5C 280.294,305.028 276.96,321.195 261.5,335C 246.802,344.58 232.135,344.747 217.5,335.5C 217.027,334.094 216.027,333.427 214.5,333.5C 202.641,323.087 198.475,310.087 202,294.5C 203.418,289.99 205.585,285.99 208.5,282.5C 209.906,282.027 210.573,281.027 210.5,279.5C 211.5,277.833 212.833,276.5 214.5,275.5C 216.027,275.573 217.027,274.906 217.5,273.5C 219.849,271.659 222.515,270.326 225.5,269.5C 228.152,269.59 230.485,268.924 232.5,267.5C 248.053,265.46 260.386,270.793 269.5,283.5 Z"/></g>
<g><path style="opacity:0.875" fill="#7a7a7a" d="M 232.5,267.5 C 230.485,268.924 228.152,269.59 225.5,269.5C 227.515,268.076 229.848,267.41 232.5,267.5 Z"/></g>
<g><path style="opacity:0.933" fill="#7a7a7a" d="M 347.5,267.5 C 354.087,268.603 353.921,269.603 347,270.5C 346.5,270.333 346,270.167 345.5,270C 346.381,269.292 347.047,268.458 347.5,267.5 Z"/></g>
<g><path style="opacity:1" fill="#0b0b0b" d="M 134.5,294.5 C 135.08,296.749 136.413,298.415 138.5,299.5C 139.478,299.811 140.145,300.478 140.5,301.5C 117.683,310.149 104.183,326.482 100,350.5C 82.9938,329.992 70.8272,306.826 63.5,281C 69.7381,275.214 77.0714,271.548 85.5,270C 99.1626,269.5 112.829,269.333 126.5,269.5C 127.173,278.519 129.84,286.852 134.5,294.5 Z"/></g>
<g><path style="opacity:0.561" fill="#ababab" d="M 217.5,273.5 C 217.027,274.906 216.027,275.573 214.5,275.5C 214.973,274.094 215.973,273.427 217.5,273.5 Z"/></g>
<g><path style="opacity:1" fill="#171717" d="M 440.5,305.5 C 441.08,307.749 442.413,309.415 444.5,310.5C 445.5,310.833 446.167,311.5 446.5,312.5C 446.427,314.027 447.094,315.027 448.5,315.5C 449.338,315.842 449.672,316.508 449.5,317.5C 449.427,319.027 450.094,320.027 451.5,320.5C 454.008,324.182 456.008,328.182 457.5,332.5C 457.12,334.698 457.787,336.365 459.5,337.5C 461.282,341.629 462.282,345.962 462.5,350.5C 463.166,358.483 463.499,366.483 463.5,374.5C 461.96,394.156 454.627,411.156 441.5,425.5C 440.094,425.973 439.427,426.973 439.5,428.5C 438.167,430.5 436.5,432.167 434.5,433.5C 432.973,433.427 431.973,434.094 431.5,435.5C 421.863,444.491 410.529,450.657 397.5,454C 382.176,458.28 366.843,458.447 351.5,454.5C 348.916,452.528 345.916,451.528 342.5,451.5C 333.102,448.637 324.769,443.97 317.5,437.5C 317.027,436.094 316.027,435.427 314.5,435.5C 285.81,409.443 276.31,377.443 286,339.5C 289.287,327.577 295.121,317.244 303.5,308.5C 305.262,307.738 306.262,306.404 306.5,304.5C 307.5,302.833 308.833,301.5 310.5,300.5C 312.749,299.92 314.415,298.587 315.5,296.5C 335.297,279.625 358.297,272.792 384.5,276C 407.034,278.764 425.7,288.597 440.5,305.5 Z M 388.5,289.5 C 390.214,290.738 392.214,291.405 394.5,291.5C 401.612,294.222 408.612,297.222 415.5,300.5C 416.262,302.262 417.596,303.262 419.5,303.5C 420.262,305.262 421.596,306.262 423.5,306.5C 425.5,309.167 427.833,311.5 430.5,313.5C 430.738,315.404 431.738,316.738 433.5,317.5C 448.065,336.763 453.399,358.429 449.5,382.5C 447.926,384.102 447.259,386.102 447.5,388.5C 447.5,388.833 447.5,389.167 447.5,389.5C 446.069,390.78 445.402,392.447 445.5,394.5C 445.5,394.833 445.5,395.167 445.5,395.5C 443.896,396.287 443.229,397.62 443.5,399.5C 442.326,400.514 441.66,401.847 441.5,403.5C 440.094,403.973 439.427,404.973 439.5,406.5C 436.5,410.5 433.5,414.5 430.5,418.5C 427.167,421.167 424.167,424.167 421.5,427.5C 419.596,427.738 418.262,428.738 417.5,430.5C 411.461,433.519 405.461,436.519 399.5,439.5C 397.214,439.595 395.214,440.262 393.5,441.5C 367.2,447.339 343.534,442.006 322.5,425.5C 320.167,422.5 317.5,419.833 314.5,417.5C 314.167,416.5 313.5,415.833 312.5,415.5C 312.573,413.973 311.906,412.973 310.5,412.5C 306.659,406.822 303.326,400.822 300.5,394.5C 299.336,390.341 298.003,386.341 296.5,382.5C 296.702,380.05 296.369,377.717 295.5,375.5C 295.571,369.475 295.571,363.142 295.5,356.5C 297.237,347.553 299.904,338.887 303.5,330.5C 304.906,330.027 305.573,329.027 305.5,327.5C 307.801,324.19 310.134,320.857 312.5,317.5C 313.906,317.027 314.573,316.027 314.5,314.5C 334.883,293.816 359.55,285.483 388.5,289.5 Z"/></g>
<g><path style="opacity:0.659" fill="#757575" d="M 50.5,270.5 C 51.7682,272.905 52.4349,275.572 52.5,278.5C 50.9605,276.162 50.2938,273.495 50.5,270.5 Z"/></g>
<g><path style="opacity:0.812" fill="#818181" d="M 210.5,279.5 C 210.573,281.027 209.906,282.027 208.5,282.5C 208.427,280.973 209.094,279.973 210.5,279.5 Z"/></g>
<g><path style="opacity:0.333" fill="#a0a0a0" d="M 421.5,279.5 C 423.027,279.427 424.027,280.094 424.5,281.5C 422.973,281.573 421.973,280.906 421.5,279.5 Z"/></g>
<g><path style="opacity:0.941" fill="#676767" d="M 52.5,279.5 C 53.9238,281.515 54.5905,283.848 54.5,286.5C 53.0762,284.485 52.4095,282.152 52.5,279.5 Z"/></g>
<g><path style="opacity:0.486" fill="#919191" d="M 427.5,283.5 C 429.027,283.427 430.027,284.094 430.5,285.5C 428.973,285.573 427.973,284.906 427.5,283.5 Z"/></g>
<g><path style="opacity:0.443" fill="#969696" d="M 269.5,283.5 C 270.906,283.973 271.573,284.973 271.5,286.5C 270.094,286.027 269.427,285.027 269.5,283.5 Z"/></g>
<g><path style="opacity:0.863" fill="#777777" d="M 430.5,285.5 C 432.404,285.738 433.738,286.738 434.5,288.5C 432.596,288.262 431.262,287.262 430.5,285.5 Z"/></g>
<g><path style="opacity:1" fill="#676767" d="M 388.5,289.5 C 391.01,289.054 393.01,289.72 394.5,291.5C 392.214,291.405 390.214,290.738 388.5,289.5 Z"/></g>
<g><path style="opacity:0.937" fill="#7c7c7c" d="M 134.5,294.5 C 136.587,295.585 137.92,297.251 138.5,299.5C 136.413,298.415 135.08,296.749 134.5,294.5 Z"/></g>
<g><path style="opacity:0.055" fill="#afafaf" d="M 193.5,295.5 C 193.715,297.179 193.048,298.179 191.5,298.5C 191.932,297.29 192.599,296.29 193.5,295.5 Z"/></g>
<g><path style="opacity:0.878" fill="#6d6d6d" d="M 315.5,296.5 C 314.415,298.587 312.749,299.92 310.5,300.5C 311.585,298.413 313.251,297.08 315.5,296.5 Z"/></g>
<g><path style="opacity:0.682" fill="#7f7f7f" d="M 415.5,300.5 C 417.404,300.738 418.738,301.738 419.5,303.5C 417.596,303.262 416.262,302.262 415.5,300.5 Z"/></g>
<g><path style="opacity:0.482" fill="#a0a0a0" d="M 446.5,300.5 C 447.609,300.557 448.609,300.89 449.5,301.5C 448.678,303.55 447.678,303.217 446.5,300.5 Z"/></g>
<g><path style="opacity:0.851" fill="#818181" d="M 419.5,303.5 C 421.404,303.738 422.738,304.738 423.5,306.5C 421.596,306.262 420.262,305.262 419.5,303.5 Z"/></g>
<g><path style="opacity:0.502" fill="#909090" d="M 284.5,306.5 C 287.355,305.197 290.355,305.197 293.5,306.5C 293.376,307.107 293.043,307.44 292.5,307.5C 290.052,306.527 287.385,306.194 284.5,306.5 Z"/></g>
<g><path style="opacity:0.776" fill="#888888" d="M 306.5,304.5 C 306.262,306.404 305.262,307.738 303.5,308.5C 303.738,306.596 304.738,305.262 306.5,304.5 Z"/></g>
<g><path style="opacity:1" fill="#0c0c0c" d="M 378.5,306.5 C 379.167,307.833 380.167,308.833 381.5,309.5C 382.338,309.842 382.672,310.508 382.5,311.5C 382.5,326.167 382.5,340.833 382.5,355.5C 397.167,355.5 411.833,355.5 426.5,355.5C 432.668,358.174 434.834,362.84 433,369.5C 431.047,374.038 427.88,376.038 423.5,375.5C 409.833,375.5 396.167,375.5 382.5,375.5C 382.5,390.167 382.5,404.833 382.5,419.5C 380.86,424.126 377.527,426.459 372.5,426.5C 370.443,426.564 368.777,425.898 367.5,424.5C 367.027,423.094 366.027,422.427 364.5,422.5C 363.778,422.082 363.278,421.416 363,420.5C 362.5,405.837 362.333,391.17 362.5,376.5C 348.163,376.667 333.829,376.5 319.5,376C 318.584,375.722 317.918,375.222 317.5,374.5C 317.027,373.094 316.027,372.427 314.5,372.5C 311.53,369.315 310.864,365.648 312.5,361.5C 313.906,361.027 314.573,360.027 314.5,358.5C 316.404,358.262 317.738,357.262 318.5,355.5C 333.088,354.517 347.755,354.184 362.5,354.5C 362.171,339.657 362.504,324.99 363.5,310.5C 364.906,310.027 365.573,309.027 365.5,307.5C 367.027,307.573 368.027,306.906 368.5,305.5C 369.622,304.844 370.955,304.511 372.5,304.5C 374.883,304.361 376.883,305.028 378.5,306.5 Z"/></g>
<g><path style="opacity:1" fill="#080808" d="M 200.5,330.5 C 200.427,332.027 201.094,333.027 202.5,333.5C 204.145,334.479 205.479,335.812 206.5,337.5C 184.487,345.842 171.154,361.508 166.5,384.5C 166.135,389.094 165.135,393.427 163.5,397.5C 152.34,392.759 142.006,386.759 132.5,379.5C 132.027,378.094 131.027,377.427 129.5,377.5C 126.891,376.557 124.891,374.89 123.5,372.5C 122.647,370.107 120.981,368.774 118.5,368.5C 116.5,367.833 115.167,366.5 114.5,364.5C 114.027,363.094 113.027,362.427 111.5,362.5C 110.542,362.047 109.708,361.381 109,360.5C 107.759,330.801 121.593,312.634 150.5,306C 164.496,305.5 178.496,305.333 192.5,305.5C 193.163,314.489 195.83,322.822 200.5,330.5 Z"/></g>
<g><path style="opacity:0.765" fill="#8a8a8a" d="M 368.5,305.5 C 368.027,306.906 367.027,307.573 365.5,307.5C 365.973,306.094 366.973,305.427 368.5,305.5 Z"/></g>
<g><path style="opacity:0.004" fill="#cdcdcd" d="M 378.5,306.5 C 380.5,306.5 381.5,307.5 381.5,309.5C 380.167,308.833 379.167,307.833 378.5,306.5 Z"/></g>
<g><path style="opacity:0.776" fill="#979797" d="M 440.5,305.5 C 442.587,306.585 443.92,308.251 444.5,310.5C 442.413,309.415 441.08,307.749 440.5,305.5 Z"/></g>
<g><path style="opacity:0.529" fill="#888888" d="M 365.5,307.5 C 365.573,309.027 364.906,310.027 363.5,310.5C 363.427,308.973 364.094,307.973 365.5,307.5 Z"/></g>
<g><path style="opacity:0.004" fill="#c4c4c4" d="M 430.5,313.5 C 432.262,314.262 433.262,315.596 433.5,317.5C 431.738,316.738 430.738,315.404 430.5,313.5 Z"/></g>
<g><path style="opacity:0.212" fill="#c7c7c7" d="M 446.5,312.5 C 447.906,312.973 448.573,313.973 448.5,315.5C 447.094,315.027 446.427,314.027 446.5,312.5 Z"/></g>
<g><path style="opacity:0.004" fill="#cdcdcd" d="M 314.5,314.5 C 314.573,316.027 313.906,317.027 312.5,317.5C 312.427,315.973 313.094,314.973 314.5,314.5 Z"/></g>
<g><path style="opacity:0.345" fill="#a6a6a6" d="M 449.5,317.5 C 450.906,317.973 451.573,318.973 451.5,320.5C 450.094,320.027 449.427,319.027 449.5,317.5 Z"/></g>
<g><path style="opacity:0.998" fill="#3d3d3d" d="M 284.5,306.5 C 287.385,306.194 290.052,306.527 292.5,307.5C 285.846,317.809 280.513,328.809 276.5,340.5C 274.289,339.877 272.289,338.877 270.5,337.5C 278.693,328.78 283.359,318.446 284.5,306.5 Z"/></g>
<g><path style="opacity:0.122" fill="#c4c4c4" d="M 305.5,327.5 C 305.573,329.027 304.906,330.027 303.5,330.5C 303.427,328.973 304.094,327.973 305.5,327.5 Z"/></g>
<g><path style="opacity:0.439" fill="#979797" d="M 73.5,329.5 C 74.9063,329.973 75.573,330.973 75.5,332.5C 74.0937,332.027 73.427,331.027 73.5,329.5 Z"/></g>
<g><path style="opacity:0.816" fill="#7e7e7e" d="M 200.5,330.5 C 201.906,330.973 202.573,331.973 202.5,333.5C 201.094,333.027 200.427,332.027 200.5,330.5 Z"/></g>
<g><path style="opacity:0.494" fill="#909090" d="M 214.5,333.5 C 216.027,333.427 217.027,334.094 217.5,335.5C 215.973,335.573 214.973,334.906 214.5,333.5 Z"/></g>
<g><path style="opacity:0.847" fill="#898989" d="M 457.5,332.5 C 458.537,333.93 459.204,335.597 459.5,337.5C 457.787,336.365 457.12,334.698 457.5,332.5 Z"/></g>
<g><path style="opacity:0.627" fill="#797979" d="M 78.5,337.5 C 79.9063,337.973 80.573,338.973 80.5,340.5C 79.0937,340.027 78.427,339.027 78.5,337.5 Z"/></g>
<g><path style="opacity:1" fill="#080808" d="M 281.5,404.5 C 281.443,405.609 281.11,406.609 280.5,407.5C 245.219,416.661 210.553,414.995 176.5,402.5C 175.545,396.591 175.211,390.591 175.5,384.5C 180.647,359.524 195.981,346.024 221.5,344C 235.867,343.153 250.2,343.487 264.5,345C 268.693,345.436 272.359,346.936 275.5,349.5C 272.373,368.36 274.373,386.693 281.5,404.5 Z"/></g>
<g><path style="opacity:0.949" fill="#797979" d="M 47.5,353.5 C 49.0481,353.821 49.7148,354.821 49.5,356.5C 48.5987,355.71 47.9321,354.71 47.5,353.5 Z"/></g>
<g><path style="opacity:0.249" fill="#bfbfbf" d="M 382.5,311.5 C 383.496,325.657 383.829,339.99 383.5,354.5C 398.01,354.171 412.343,354.504 426.5,355.5C 411.833,355.5 397.167,355.5 382.5,355.5C 382.5,340.833 382.5,326.167 382.5,311.5 Z"/></g>
<g><path style="opacity:0.816" fill="#878787" d="M 92.5,355.5 C 94.2624,356.262 95.2624,357.596 95.5,359.5C 93.7376,358.738 92.7376,357.404 92.5,355.5 Z"/></g>
<g><path style="opacity:0.792" fill="#7e7e7e" d="M 318.5,355.5 C 317.738,357.262 316.404,358.262 314.5,358.5C 315.262,356.738 316.596,355.738 318.5,355.5 Z"/></g>
<g><path style="opacity:0.004" fill="#e5e5e5" d="M 462.5,350.5 C 464.556,358.445 464.889,366.445 463.5,374.5C 463.499,366.483 463.166,358.483 462.5,350.5 Z"/></g>
<g><path style="opacity:0.231" fill="#b8b8b8" d="M 314.5,358.5 C 314.573,360.027 313.906,361.027 312.5,361.5C 312.427,359.973 313.094,358.973 314.5,358.5 Z"/></g>
<g><path style="opacity:0.816" fill="#7d7d7d" d="M 111.5,362.5 C 113.027,362.427 114.027,363.094 114.5,364.5C 112.973,364.573 111.973,363.906 111.5,362.5 Z"/></g>
<g><path style="opacity:0.408" fill="#7f7f7f" d="M 295.5,356.5 C 295.571,363.142 295.571,369.475 295.5,375.5C 294.167,369.167 294.167,362.833 295.5,356.5 Z"/></g>
<g><path style="opacity:0.958" fill="#5f5f5f" d="M 118.5,368.5 C 120.981,368.774 122.647,370.107 123.5,372.5C 121.251,371.92 119.585,370.587 118.5,368.5 Z"/></g>
<g><path style="opacity:0.706" fill="#969696" d="M 314.5,372.5 C 316.027,372.427 317.027,373.094 317.5,374.5C 315.973,374.573 314.973,373.906 314.5,372.5 Z"/></g>
<g><path style="opacity:0.004" fill="#e9e9e9" d="M 423.5,375.5 C 410.344,376.496 397.01,376.829 383.5,376.5C 383.829,391.01 383.496,405.343 382.5,419.5C 382.5,404.833 382.5,390.167 382.5,375.5C 396.167,375.5 409.833,375.5 423.5,375.5 Z"/></g>
<g><path style="opacity:0.561" fill="#848484" d="M 129.5,377.5 C 131.027,377.427 132.027,378.094 132.5,379.5C 130.973,379.573 129.973,378.906 129.5,377.5 Z"/></g>
<g><path style="opacity:0.992" fill="#7b7b7b" d="M 118.5,380.5 C 120.23,381.026 121.564,382.026 122.5,383.5C 120.368,383.446 119.035,382.446 118.5,380.5 Z"/></g>
<g><path style="opacity:0.82" fill="#929292" d="M 449.5,382.5 C 449.741,384.898 449.074,386.898 447.5,388.5C 447.259,386.102 447.926,384.102 449.5,382.5 Z"/></g>
<g><path style="opacity:0.976" fill="#787878" d="M 296.5,382.5 C 298.003,386.341 299.336,390.341 300.5,394.5C 297.804,391.079 296.47,387.079 296.5,382.5 Z"/></g>
<g><path style="opacity:0.765" fill="#505050" d="M 175.5,384.5 C 175.211,390.591 175.545,396.591 176.5,402.5C 175.184,399.913 174.517,396.913 174.5,393.5C 174.502,390.314 174.835,387.314 175.5,384.5 Z"/></g>
<g><path style="opacity:0.929" fill="#848484" d="M 447.5,389.5 C 447.88,391.698 447.213,393.365 445.5,394.5C 445.402,392.447 446.069,390.78 447.5,389.5 Z"/></g>
<g><path style="opacity:0.247" fill="#a8a8a8" d="M 166.5,384.5 C 166.5,389.167 166.5,393.833 166.5,398.5C 165.209,398.737 164.209,398.404 163.5,397.5C 165.135,393.427 166.135,389.094 166.5,384.5 Z"/></g>
<g><path style="opacity:0.953" fill="#797979" d="M 137.5,393.5 C 138.71,393.932 139.71,394.599 140.5,395.5C 138.821,395.715 137.821,395.048 137.5,393.5 Z"/></g>
<g><path style="opacity:0.039" fill="#c3c3c3" d="M 445.5,395.5 C 445.34,397.153 444.674,398.486 443.5,399.5C 443.229,397.62 443.896,396.287 445.5,395.5 Z"/></g>
<g><path style="opacity:0.722" fill="#909090" d="M 87.5,400.5 C 89.0269,400.427 90.0269,401.094 90.5,402.5C 88.9731,402.573 87.9731,401.906 87.5,400.5 Z"/></g>
<g><path style="opacity:0.004" fill="#fefffe" d="M 179.5,405.5 C 180.833,406.167 180.833,406.167 179.5,405.5 Z"/></g>
<g><path style="opacity:0.161" fill="#c5c5c5" d="M 441.5,403.5 C 441.573,405.027 440.906,406.027 439.5,406.5C 439.427,404.973 440.094,403.973 441.5,403.5 Z"/></g>
<g><path style="opacity:0.561" fill="#898989" d="M 93.5,405.5 C 95.0269,405.427 96.0269,406.094 96.5,407.5C 94.9731,407.573 93.9731,406.906 93.5,405.5 Z"/></g>
<g><path style="opacity:0.263" fill="#a7a7a7" d="M 281.5,404.5 C 282.885,405.947 282.552,406.947 280.5,407.5C 281.11,406.609 281.443,405.609 281.5,404.5 Z"/></g>
<g><path style="opacity:0.004" fill="#fefffe" d="M 253.5,414.5 C 254.601,413.402 255.934,413.235 257.5,414C 256.207,414.49 254.873,414.657 253.5,414.5 Z"/></g>
<g><path style="opacity:0.761" fill="#939393" d="M 287.5,416.5 C 285.958,415.699 284.292,415.366 282.5,415.5C 285.013,412.874 286.68,413.207 287.5,416.5 Z"/></g>
<g><path style="opacity:0.298" fill="#bdbdbd" d="M 310.5,412.5 C 311.906,412.973 312.573,413.973 312.5,415.5C 311.094,415.027 310.427,414.027 310.5,412.5 Z"/></g>
<g><path style="opacity:0.502" fill="#909090" d="M 105.5,414.5 C 107.027,414.427 108.027,415.094 108.5,416.5C 106.973,416.573 105.973,415.906 105.5,414.5 Z"/></g>
<g><path style="opacity:0.749" fill="#a5a5a5" d="M 314.5,417.5 C 317.5,419.833 320.167,422.5 322.5,425.5C 318.833,423.833 316.167,421.167 314.5,417.5 Z"/></g>
<g><path style="opacity:0.612" fill="#787878" d="M 288.5,418.5 C 289.906,418.973 290.573,419.973 290.5,421.5C 289.094,421.027 288.427,420.027 288.5,418.5 Z"/></g>
<g><path style="opacity:0.522" fill="#898989" d="M 114.5,420.5 C 116.027,420.427 117.027,421.094 117.5,422.5C 115.973,422.573 114.973,421.906 114.5,420.5 Z"/></g>
<g><path style="opacity:0.553" fill="#888888" d="M 364.5,422.5 C 366.027,422.427 367.027,423.094 367.5,424.5C 365.973,424.573 364.973,423.906 364.5,422.5 Z"/></g>
<g><path style="opacity:0.675" fill="#818181" d="M 430.5,418.5 C 428.5,422.5 425.5,425.5 421.5,427.5C 424.167,424.167 427.167,421.167 430.5,418.5 Z"/></g>
<g><path style="opacity:0.365" fill="#9e9e9e" d="M 122.5,425.5 C 124.027,425.427 125.027,426.094 125.5,427.5C 123.973,427.573 122.973,426.906 122.5,425.5 Z"/></g>
<g><path style="opacity:0.004" fill="#d1d1d1" d="M 441.5,425.5 C 441.573,427.027 440.906,428.027 439.5,428.5C 439.427,426.973 440.094,425.973 441.5,425.5 Z"/></g>
<g><path style="opacity:0.698" fill="#959595" d="M 295.5,427.5 C 296.906,427.973 297.573,428.973 297.5,430.5C 296.094,430.027 295.427,429.027 295.5,427.5 Z"/></g>
<g><path style="opacity:0.675" fill="#818181" d="M 421.5,427.5 C 420.738,429.262 419.404,430.262 417.5,430.5C 418.262,428.738 419.596,427.738 421.5,427.5 Z"/></g>
<g><path style="opacity:0.004" fill="#dedede" d="M 434.5,433.5 C 434.027,434.906 433.027,435.573 431.5,435.5C 431.973,434.094 432.973,433.427 434.5,433.5 Z"/></g>
<g><path style="opacity:0.816" fill="#808080" d="M 314.5,435.5 C 316.027,435.427 317.027,436.094 317.5,437.5C 315.973,437.573 314.973,436.906 314.5,435.5 Z"/></g>
<g><path style="opacity:0.761" fill="#959595" d="M 399.5,439.5 C 397.898,441.074 395.898,441.741 393.5,441.5C 395.214,440.262 397.214,439.595 399.5,439.5 Z"/></g>
<g><path style="opacity:0.906" fill="#7f7f7f" d="M 159.5,443.5 C 161.698,443.12 163.365,443.787 164.5,445.5C 162.597,445.204 160.93,444.537 159.5,443.5 Z"/></g>
<g><path style="opacity:0.831" fill="#757575" d="M 308.5,440.5 C 309.962,441.458 311.295,442.624 312.5,444C 311.552,444.483 310.552,444.649 309.5,444.5C 309.167,443.167 308.833,441.833 308.5,440.5 Z"/></g>
<g><path style="opacity:0.937" fill="#7d7d7d" d="M 342.5,451.5 C 345.916,451.528 348.916,452.528 351.5,454.5C 348.215,454.072 345.215,453.072 342.5,451.5 Z"/></g>
</svg>
