<svg width="22" height="19" viewBox="0 0 22 19" fill="none" xmlns="http://www.w3.org/2000/svg">
<path d="M6.94434 1.74414C6.94434 1.19186 7.39205 0.744141 7.94434 0.744141H20.9744C21.5267 0.744141 21.9744 1.19186 21.9744 1.74414C21.9744 2.29643 21.5267 2.74414 20.9744 2.74414L7.94434 2.74414C7.39205 2.74414 6.94434 2.29643 6.94434 1.74414Z" fill="white"/>
<path d="M20.9744 7.94414L12.5744 7.94414C12.0221 7.94414 11.5744 7.49643 11.5744 6.94414C11.5744 6.39186 12.0221 5.94414 12.5744 5.94414L20.9744 5.94414C21.5267 5.94414 21.9744 6.39186 21.9744 6.94414C21.9744 7.49643 21.5267 7.94414 20.9744 7.94414Z" fill="white"/>
<path d="M11.5744 12.1441C11.5744 11.5919 12.0221 11.1441 12.5744 11.1441L20.9744 11.1441C21.5267 11.1441 21.9744 11.5919 21.9744 12.1441C21.9744 12.6964 21.5267 13.1441 20.9744 13.1441L12.5744 13.1441C12.0221 13.1441 11.5744 12.6964 11.5744 12.1441Z" fill="white"/>
<path d="M6.94437 17.3441C6.94437 16.7919 7.39208 16.3441 7.94437 16.3441H20.9744C21.5267 16.3441 21.9744 16.7919 21.9744 17.3441C21.9744 17.8964 21.5267 18.3441 20.9744 18.3441H7.94437C7.39208 18.3441 6.94437 17.8964 6.94437 17.3441Z" fill="white"/>
<circle cx="5.37402" cy="6.17383" r="2.49414" fill="white"/>
<path d="M5.37422 9.58203C2.15136 9.58203 0.574219 11.1124 0.574219 13.0001C0.574219 13.3005 0.793336 13.5439 1.06363 13.5439H9.68481C9.9551 13.5439 10.1742 13.3005 10.1742 13.0001C10.1742 11.1124 8.59707 9.58203 5.37422 9.58203Z" fill="white"/>
</svg>
