<svg width="27" height="16" viewBox="0 0 27 16" fill="none" xmlns="http://www.w3.org/2000/svg">
<circle cx="13.7969" cy="4.43848" r="4.17871" fill="white"/>
<circle cx="5.46094" cy="5.89648" r="3.07422" fill="white"/>
<circle cx="22.1328" cy="5.89648" r="3.07422" fill="white"/>
<path fill-rule="evenodd" clip-rule="evenodd" d="M13.7969 10.0176C11.9962 10.0176 10.5353 10.3336 9.40903 10.8762C8.56596 10.3447 7.38525 10.0249 5.86055 10.0249C2.40951 10.0249 0.720703 11.6636 0.720703 13.685C0.720703 14.0066 0.955334 14.2673 1.24477 14.2673H6.62688C6.56934 14.5651 6.54064 14.8717 6.54064 15.1848C6.54064 15.6388 6.87188 16.0069 7.28049 16.0069H20.3133C20.7219 16.0069 21.0531 15.6388 21.0531 15.1848C21.0531 14.8717 21.0244 14.5651 20.9669 14.2673H26.3488C26.6383 14.2673 26.8729 14.0066 26.8729 13.685C26.8729 11.6636 25.1841 10.0249 21.733 10.0249C20.2084 10.0249 19.0277 10.3447 18.1846 10.8761C17.0584 10.3336 15.5976 10.0176 13.7969 10.0176Z" fill="white"/>
</svg>
