<?xml version="1.0" standalone="no"?>
<!DOCTYPE svg PUBLIC "-//W3C//DTD SVG 20010904//EN"
 "http://www.w3.org/TR/2001/REC-SVG-20010904/DTD/svg10.dtd">
<svg version="1.0" xmlns="http://www.w3.org/2000/svg"
 width="373.000000pt" height="479.000000pt" viewBox="0 0 373.000000 479.000000"
 preserveAspectRatio="xMidYMid meet">

<g transform="translate(0.000000,479.000000) scale(0.100000,-0.100000)"
fill="#000000" stroke="none">
<path d="M240 4653 c-57 -9 -70 -14 -99 -44 l-31 -31 0 -2195 0 -2195 28 -28
c16 -15 46 -33 68 -39 27 -8 389 -11 1184 -11 l1145 0 548 548 547 547 0 1671
0 1671 -23 33 c-12 19 -38 43 -57 54 -35 21 -40 21 -1660 22 -894 1 -1636 0
-1650 -3z m3085 -1856 l0 -1547 -417 -3 c-405 -2 -417 -3 -445 -23 -15 -11
-31 -32 -34 -45 -4 -13 -7 -189 -8 -391 l-1 -368 -1010 0 -1010 0 0 1965 0
1965 1463 -2 1462 -3 0 -1548z"/>
<path d="M2060 3978 c-62 -33 -85 -68 -85 -133 0 -58 18 -91 69 -129 27 -20
41 -21 494 -24 320 -2 479 0 505 8 56 16 97 77 97 144 0 66 -27 111 -83 136
-39 18 -70 20 -497 20 -453 0 -456 0 -500 -22z"/>
<path d="M1185 3958 c-22 -5 -58 -23 -80 -41 -77 -61 -370 -311 -413 -351 -72
-68 -79 -156 -18 -220 44 -47 105 -64 157 -45 56 20 502 398 523 443 56 118
-42 241 -169 214z"/>
<path d="M1673 3400 c-82 -19 -126 -78 -120 -158 4 -61 27 -96 77 -123 33 -18
72 -19 720 -19 666 0 686 1 718 20 53 32 74 75 69 143 -3 49 -8 62 -37 92 -23
24 -48 37 -82 44 -57 13 -1294 13 -1345 1z"/>
<path d="M2068 2816 c-104 -46 -128 -166 -49 -245 21 -21 52 -41 71 -44 18 -4
233 -7 479 -7 413 0 449 2 487 19 54 25 84 73 84 137 0 64 -28 110 -83 134
-40 18 -69 20 -502 19 -335 0 -467 -4 -487 -13z"/>
<path d="M1165 2799 c-11 -6 -47 -40 -80 -76 l-61 -65 -63 57 c-70 63 -95 75
-149 75 -80 0 -140 -72 -129 -154 5 -34 18 -52 77 -110 81 -79 82 -60 -17
-167 -53 -58 -71 -105 -59 -153 10 -40 55 -85 97 -97 65 -20 106 -1 188 87
l71 76 72 -65 c85 -75 106 -87 148 -87 77 0 140 60 140 134 0 53 -19 84 -99
155 l-71 63 60 66 c33 37 65 83 70 102 14 50 -3 102 -45 139 -29 25 -44 31
-83 31 -26 0 -56 -5 -67 -11z"/>
<path d="M1655 2278 c-102 -36 -139 -165 -69 -240 57 -60 32 -58 761 -58 637
0 670 1 710 20 55 24 83 70 83 134 0 58 -28 109 -73 134 -29 16 -89 17 -707
19 -456 1 -685 -2 -705 -9z"/>
<path d="M1127 1780 c-36 -11 -494 -395 -518 -435 -24 -39 -25 -117 -1 -157
40 -69 135 -92 206 -50 61 36 480 397 496 427 20 38 17 105 -6 146 -20 36 -93
80 -129 78 -11 0 -33 -4 -48 -9z"/>
<path d="M2070 1749 c-136 -54 -124 -250 18 -288 29 -8 179 -11 494 -9 451 3
453 3 489 26 97 60 91 213 -11 264 -32 16 -76 18 -500 17 -283 0 -475 -4 -490
-10z"/>
</g>
</svg>
