<?xml version="1.0" standalone="no"?>
<!DOCTYPE svg PUBLIC "-//W3C//DTD SVG 20010904//EN"
 "http://www.w3.org/TR/2001/REC-SVG-20010904/DTD/svg10.dtd">
<svg version="1.0" xmlns="http://www.w3.org/2000/svg"
 width="464.000000pt" height="474.000000pt" viewBox="0 0 464.000000 474.000000"
 preserveAspectRatio="xMidYMid meet">

<g transform="translate(0.000000,474.000000) scale(0.100000,-0.100000)"
fill="#000000" stroke="none">
<path d="M2255 4583 c-558 -24 -1066 -238 -1462 -616 -363 -347 -591 -789
-670 -1297 -24 -159 -24 -472 1 -630 52 -339 173 -656 350 -923 319 -479 822
-824 1381 -946 380 -83 810 -60 1185 65 598 198 1097 657 1343 1234 81 190
133 378 162 585 22 152 19 459 -5 626 -70 475 -284 902 -625 1244 -352 355
-813 582 -1290 639 -139 16 -273 23 -370 19z m312 -348 c789 -98 1441 -697
1609 -1480 69 -319 49 -682 -55 -995 -39 -117 -141 -328 -211 -435 -138 -211
-319 -393 -533 -536 -150 -100 -286 -167 -457 -223 -187 -62 -323 -86 -515
-93 -458 -17 -863 109 -1223 381 -99 76 -256 228 -335 326 -174 215 -308 500
-374 792 -26 117 -27 136 -28 383 0 234 2 271 23 370 82 391 264 721 551 997
146 140 267 227 441 317 348 179 718 244 1107 196z"/>
<path d="M1616 3190 c-37 -12 -94 -66 -112 -107 -18 -41 -18 -95 0 -136 8 -18
136 -153 285 -302 149 -148 271 -274 271 -280 0 -6 -120 -129 -266 -275 -170
-170 -273 -279 -285 -305 -23 -49 -24 -94 -4 -143 40 -93 127 -136 222 -107
42 13 79 46 326 292 l278 278 262 -266 c144 -146 274 -274 289 -284 122 -77
278 8 278 153 0 29 -5 63 -11 75 -6 12 -135 147 -287 299 l-277 278 277 277
c152 153 282 291 287 306 6 16 11 52 11 81 0 127 -138 212 -255 157 -26 -12
-137 -116 -310 -290 l-270 -271 -280 280 c-154 153 -293 284 -308 290 -33 12
-80 12 -121 0z"/>
</g>
</svg>
