<svg width="26" height="24" viewBox="0 0 26 24" fill="none" xmlns="http://www.w3.org/2000/svg">
<path d="M6.55445 14.3895C5.84311 14.3895 5.19411 14.2245 4.60745 13.8945C4.02078 13.5572 3.55511 13.0915 3.21045 12.4975C2.87311 11.8962 2.70445 11.2215 2.70445 10.4735C2.70445 9.7255 2.87311 9.0545 3.21045 8.4605C3.55511 7.85917 4.02078 7.3935 4.60745 7.0635C5.19411 6.72617 5.84311 6.5575 6.55445 6.5575C7.27311 6.5575 7.92578 6.72617 8.51245 7.0635C9.09911 7.3935 9.56111 7.8555 9.89845 8.4495C10.2358 9.0435 10.4044 9.71817 10.4044 10.4735C10.4044 11.2288 10.2358 11.9035 9.89845 12.4975C9.56111 13.0915 9.09911 13.5572 8.51245 13.8945C7.92578 14.2245 7.27311 14.3895 6.55445 14.3895ZM6.55445 13.5205C7.08978 13.5205 7.57011 13.3958 7.99545 13.1465C8.42811 12.8972 8.76545 12.5415 9.00745 12.0795C9.25678 11.6175 9.38145 11.0822 9.38145 10.4735C9.38145 9.8575 9.25678 9.32217 9.00745 8.8675C8.76545 8.4055 8.43178 8.04983 8.00645 7.8005C7.58111 7.55117 7.09711 7.4265 6.55445 7.4265C6.01178 7.4265 5.52778 7.55117 5.10245 7.8005C4.67711 8.04983 4.33978 8.4055 4.09045 8.8675C3.84845 9.32217 3.72745 9.8575 3.72745 10.4735C3.72745 11.0822 3.84845 11.6175 4.09045 12.0795C4.33978 12.5415 4.67711 12.8972 5.10245 13.1465C5.53511 13.3958 6.01911 13.5205 6.55445 13.5205ZM16.0049 6.6455V7.4595H13.9149V14.3125H12.9139V7.4595H10.8129V6.6455H16.0049ZM21.9231 8.8895C21.9231 9.5275 21.7031 10.0592 21.2631 10.4845C20.8304 10.9025 20.1667 11.1115 19.2721 11.1115H17.7981V14.3125H16.7971V6.6455H19.2721C20.1374 6.6455 20.7937 6.8545 21.2411 7.2725C21.6957 7.6905 21.9231 8.2295 21.9231 8.8895ZM19.2721 10.2865C19.8294 10.2865 20.2401 10.1655 20.5041 9.9235C20.7681 9.6815 20.9001 9.33683 20.9001 8.8895C20.9001 7.9435 20.3574 7.4705 19.2721 7.4705H17.7981V10.2865H19.2721Z" fill="white"/>
<rect x="0.550781" y="4.40625" width="24.1064" height="11.8125" rx="2.5" stroke="white"/>
<path fill-rule="evenodd" clip-rule="evenodd" d="M4.24414 3.28711C4.24414 1.63025 5.58728 0.287109 7.24414 0.287109H17.9648C19.6217 0.287109 20.9648 1.63025 20.9648 3.28711V3.90625H4.24414V3.28711ZM4.24414 16.7188H20.9648V20.1445C20.9648 21.8014 19.6217 23.1445 17.9648 23.1445H7.24414C5.58728 23.1445 4.24414 21.8014 4.24414 20.1445V16.7188ZM11.9893 18.916C11.6355 18.916 11.3486 19.2028 11.3486 19.5566C11.3486 19.9104 11.6355 20.1973 11.9893 20.1973H13.2187C13.5725 20.1973 13.8593 19.9104 13.8593 19.5566C13.8593 19.2028 13.5725 18.916 13.2187 18.916H11.9893Z" fill="white"/>
</svg>
