<svg width="19" height="24" viewBox="0 0 19 24" fill="none" xmlns="http://www.w3.org/2000/svg">
<path fill-rule="evenodd" clip-rule="evenodd" d="M3.17601 0.078125C1.77378 0.078125 0.679688 1.16809 0.679688 2.46097V20.843C0.679688 22.1358 1.77378 23.2258 3.17601 23.2258H15.8845C17.2868 23.2258 18.3809 22.1358 18.3809 20.843V7.73729H12.7074C11.4776 7.73729 10.438 6.76977 10.438 5.52464V0.078125H3.17601ZM2.53027 11.4414C2.53027 11.0898 2.81534 10.8047 3.16699 10.8047H15.8936C16.2452 10.8047 16.5303 11.0898 16.5303 11.4414C16.5303 11.7931 16.2452 12.0781 15.8936 12.0781H3.16699C2.81534 12.0781 2.53027 11.7931 2.53027 11.4414ZM2.53027 14.5605C2.53027 14.2089 2.81534 13.9238 3.16699 13.9238H15.8936C16.2452 13.9238 16.5303 14.2089 16.5303 14.5605C16.5303 14.9122 16.2452 15.1973 15.8936 15.1973H3.16699C2.81534 15.1973 2.53027 14.9122 2.53027 14.5605ZM5.23438 17.6797C5.23438 17.328 5.51944 17.043 5.87109 17.043H13.1895C13.5411 17.043 13.8262 17.328 13.8262 17.6797C13.8262 18.0313 13.5411 18.3164 13.1895 18.3164H5.87109C5.51944 18.3164 5.23438 18.0313 5.23438 17.6797Z" fill="white"/>
<path d="M11.7997 0.110198V5.52464C11.7997 5.97152 12.1825 6.37566 12.7074 6.37566H18.3421C18.2542 5.90513 18.019 5.46494 17.6585 5.11739L13.1654 0.784718C12.795 0.427519 12.3165 0.192003 11.7997 0.110198Z" fill="white"/>
</svg>
