<?xml version="1.0" standalone="no"?>
<!DOCTYPE svg PUBLIC "-//W3C//DTD SVG 20010904//EN"
 "http://www.w3.org/TR/2001/REC-SVG-20010904/DTD/svg10.dtd">
<svg version="1.0" xmlns="http://www.w3.org/2000/svg"
 width="483.000000pt" height="489.000000pt" viewBox="0 0 483.000000 489.000000"
 preserveAspectRatio="xMidYMid meet">

<g transform="translate(0.000000,489.000000) scale(0.100000,-0.100000)"
fill="#000000" stroke="none">
<path d="M2258 4811 c-90 -10 -144 -47 -175 -121 -9 -19 -22 -107 -29 -194 -8
-88 -15 -160 -17 -160 -4 -2 -220 -58 -242 -63 -17 -4 -35 16 -100 109 -94
136 -119 164 -167 189 -64 33 -124 26 -224 -26 -162 -85 -249 -148 -273 -197
-38 -79 -30 -123 49 -292 l70 -148 -99 -99 -98 -98 -148 70 c-127 59 -155 69
-203 69 -106 0 -165 -60 -288 -296 -49 -94 -56 -146 -29 -211 22 -53 35 -65
178 -165 108 -76 128 -94 124 -112 -5 -21 -61 -239 -62 -243 -1 -2 -77 -10
-169 -18 -178 -16 -203 -24 -254 -76 -48 -49 -54 -83 -50 -290 3 -184 3 -186
31 -226 46 -66 88 -83 250 -99 78 -7 153 -14 167 -14 23 0 27 -7 54 -113 42
-166 47 -150 -74 -234 -154 -107 -170 -121 -191 -167 -32 -72 -26 -123 32
-233 115 -223 179 -288 284 -287 41 0 78 13 199 70 l150 70 97 -97 98 -98 -69
-148 c-60 -127 -70 -156 -70 -203 0 -104 57 -161 274 -276 110 -58 144 -66
208 -49 64 16 92 44 196 193 72 104 89 122 106 117 12 -3 69 -18 129 -34 59
-15 110 -30 113 -33 2 -3 11 -76 18 -162 16 -179 34 -231 95 -271 56 -37 127
-48 290 -43 164 5 208 19 254 80 35 48 44 86 57 248 7 80 14 147 16 149 2 2
52 17 111 32 60 15 118 31 130 34 18 6 32 -8 97 -102 109 -155 122 -171 166
-193 66 -34 133 -27 226 22 210 111 267 157 290 236 20 68 15 88 -62 254 -35
76 -64 141 -64 146 0 4 43 51 95 103 l95 96 134 -63 c175 -82 203 -89 269 -70
69 20 100 54 190 208 91 155 104 199 82 273 -18 63 -44 89 -203 199 -82 57
-112 83 -109 95 3 9 16 56 31 105 14 48 26 96 26 105 0 34 17 39 150 50 192
16 225 25 276 76 57 58 67 107 62 305 -3 133 -7 161 -25 195 -45 85 -83 101
-284 120 -163 15 -179 20 -179 56 0 9 -13 62 -30 117 -16 56 -30 103 -30 105
0 2 51 39 113 82 151 105 184 138 203 202 20 70 9 108 -74 256 -80 141 -111
181 -163 207 -73 38 -125 29 -291 -49 l-147 -69 -95 95 c-53 53 -96 100 -96
104 0 5 29 70 64 146 77 164 84 194 61 262 -20 60 -53 91 -170 161 -199 117
-260 133 -345 90 -44 -22 -59 -40 -163 -190 -53 -75 -79 -105 -93 -104 -22 2
-243 59 -248 65 -2 2 -9 69 -16 149 -13 163 -22 200 -58 249 -40 54 -89 69
-237 75 -72 2 -160 1 -197 -3z m266 -211 c2 -3 11 -80 19 -171 9 -104 21 -177
31 -196 21 -42 69 -80 114 -92 20 -6 98 -27 172 -47 177 -49 204 -51 260 -22
37 19 62 47 144 165 l99 142 41 -21 c59 -29 176 -102 176 -109 0 -3 -31 -73
-70 -155 -77 -165 -88 -220 -52 -279 10 -16 81 -92 157 -167 194 -192 189
-191 450 -67 l130 61 15 -22 c37 -54 109 -193 105 -201 -3 -4 -61 -46 -128
-93 -146 -101 -172 -126 -188 -188 -12 -43 -10 -54 19 -150 18 -57 39 -136 47
-176 17 -82 33 -118 67 -148 44 -40 73 -48 243 -63 l170 -16 3 -127 c2 -117 1
-128 -15 -128 -10 0 -89 -7 -175 -15 -168 -15 -199 -25 -241 -75 -29 -33 -30
-37 -52 -135 -8 -38 -29 -116 -47 -173 -29 -95 -31 -107 -20 -149 7 -24 20
-55 30 -68 9 -12 79 -66 155 -120 76 -53 137 -100 135 -104 -14 -31 -93 -171
-107 -190 l-18 -23 -152 71 c-174 81 -226 90 -291 48 -41 -26 -282 -272 -299
-304 -26 -52 -14 -112 54 -257 35 -77 67 -147 70 -157 5 -14 -13 -29 -88 -73
-52 -31 -101 -58 -109 -61 -11 -4 -43 35 -112 134 -140 202 -168 215 -356 158
-63 -19 -142 -40 -175 -47 -90 -18 -132 -46 -165 -109 -10 -20 -38 -267 -40
-349 0 -22 -1 -23 -127 -20 l-128 3 -13 155 c-16 187 -24 220 -62 259 -33 33
-70 48 -215 84 -55 14 -128 34 -161 43 -116 34 -166 0 -307 -204 l-77 -112
-53 26 c-41 21 -150 86 -165 99 -1 1 29 69 68 151 38 82 73 163 76 180 13 69
-8 104 -155 252 -77 77 -153 148 -170 156 -61 32 -114 22 -275 -54 -82 -38
-152 -70 -156 -70 -7 0 -116 187 -122 207 -2 7 60 57 137 110 199 139 212 169
155 351 -16 54 -37 130 -45 171 -32 154 -66 176 -302 197 -92 9 -168 16 -169
17 -3 4 -7 145 -6 198 l2 55 167 15 c189 17 231 31 269 88 13 20 30 70 39 111
8 41 29 118 45 172 57 183 46 208 -155 348 l-145 101 17 32 c14 28 101 176
109 185 1 2 69 -28 151 -66 171 -80 196 -87 252 -72 34 9 70 39 190 160 157
157 179 189 168 257 -4 19 -38 103 -77 185 -39 83 -69 152 -67 154 13 13 212
122 217 119 3 -2 50 -67 104 -144 132 -189 172 -208 322 -157 39 13 115 33
169 46 185 41 207 72 226 317 l13 162 25 5 c32 5 218 2 225 -4z"/>
<path d="M2205 3814 c-296 -46 -562 -179 -770 -388 -197 -197 -320 -429 -382
-717 -25 -117 -25 -381 0 -498 42 -196 108 -356 213 -513 200 -301 506 -505
874 -584 120 -26 369 -26 505 0 542 102 964 507 1091 1046 34 142 42 354 20
499 -42 272 -175 544 -365 744 -307 323 -755 478 -1186 411z m345 -204 c248
-32 468 -140 657 -323 366 -354 457 -895 227 -1347 -23 -47 -56 -104 -72 -128
l-29 -42 -17 62 c-31 110 -82 195 -176 289 -68 69 -102 94 -170 128 -47 23
-110 46 -140 53 -53 11 -56 10 -105 -21 -27 -17 -87 -43 -132 -57 -75 -24 -93
-26 -220 -22 -152 4 -213 20 -308 79 -48 31 -52 31 -105 20 -70 -14 -180 -67
-250 -119 -106 -80 -206 -227 -240 -352 l-12 -44 -19 24 c-39 51 -129 248
-153 335 -112 398 -10 810 274 1109 173 182 406 308 640 346 41 6 82 13 90 15
35 7 191 4 260 -5z m-15 -2301 c-65 -9 -218 -10 -275 0 -28 5 25 7 140 7 117
0 167 -2 135 -7z"/>
<path d="M2317 3399 c-136 -15 -293 -123 -364 -250 -42 -75 -63 -160 -63 -254
0 -218 134 -437 324 -531 77 -38 84 -39 181 -39 97 0 104 1 181 39 113 56 198
144 258 268 51 107 66 169 66 272 0 257 -206 481 -460 498 -30 3 -85 1 -123
-3z"/>
</g>
</svg>
