<?xml version="1.0" standalone="no"?>
<!DOCTYPE svg PUBLIC "-//W3C//DTD SVG 20010904//EN"
 "http://www.w3.org/TR/2001/REC-SVG-20010904/DTD/svg10.dtd">
<svg version="1.0" xmlns="http://www.w3.org/2000/svg"
 width="461.000000pt" height="464.000000pt" viewBox="0 0 461.000000 464.000000"
 preserveAspectRatio="xMidYMid meet">

<g transform="translate(0.000000,464.000000) scale(0.100000,-0.100000)"
fill="#000000" stroke="none">
<path d="M2145 4549 c-799 -44 -1513 -519 -1869 -1242 -153 -310 -226 -631
-226 -990 1 -494 149 -937 448 -1341 94 -126 307 -340 432 -432 424 -314 910
-469 1415 -451 487 18 899 164 1293 459 121 91 305 273 400 396 626 813 629
1918 9 2737 -75 98 -236 265 -338 351 -435 363 -989 545 -1564 513z m372 -344
c499 -65 955 -330 1264 -736 168 -221 298 -514 350 -791 27 -141 37 -433 20
-564 -57 -429 -227 -790 -515 -1092 -306 -320 -729 -528 -1161 -573 -142 -14
-401 -7 -524 15 -523 95 -974 391 -1263 829 -163 249 -265 538 -299 848 -14
129 -6 380 16 509 114 645 548 1184 1158 1435 116 47 310 100 422 114 50 6
101 13 115 15 68 10 312 4 417 -9z"/>
<path d="M1970 3500 c-348 -46 -648 -288 -775 -625 -64 -171 -73 -412 -20
-590 122 -414 483 -693 900 -696 165 -1 276 22 423 87 l57 25 252 -253 c153
-154 267 -260 290 -271 56 -26 147 -18 201 18 79 52 114 173 77 263 -10 22
-83 105 -183 207 -92 93 -200 204 -241 246 l-73 77 41 69 c152 255 178 569 69
842 -162 410 -584 659 -1018 601z m275 -285 c290 -74 490 -323 502 -625 6
-137 -13 -227 -73 -348 -132 -269 -431 -413 -706 -343 -124 32 -212 82 -304
175 -133 133 -197 289 -197 481 0 121 19 201 73 310 111 226 322 362 565 364
45 1 108 -6 140 -14z"/>
</g>
</svg>
