<svg width="17" height="18" viewBox="0 0 17 18" fill="none" xmlns="http://www.w3.org/2000/svg">
<path d="M16.2383 14.8174V16.9464C16.2383 17.1984 16.1485 17.4126 15.969 17.5889C15.7896 17.7653 15.5716 17.8535 15.3152 17.8535H1.16136C0.904948 17.8535 0.686999 17.7653 0.507512 17.5889C0.328025 17.4126 0.238281 17.1984 0.238281 16.9464V14.8174C0.238281 14.5654 0.328025 14.3513 0.507512 14.1749C0.686999 13.9985 0.904948 13.9103 1.16136 13.9103H4.58033C4.9941 13.9103 5.34613 14.1883 5.62512 14.4963C5.71877 14.5997 5.8254 14.6941 5.94501 14.7796C6.26232 15.0064 6.61649 15.1198 7.00751 15.1198H9.46905C9.86008 15.1198 10.2142 15.0064 10.5316 14.7796C10.6512 14.6941 10.7578 14.5997 10.8514 14.4963C11.1304 14.1883 11.4825 13.9103 11.8962 13.9103H15.3152C15.5716 13.9103 15.7896 13.9985 15.969 14.1749C16.1485 14.3513 16.2383 14.5654 16.2383 14.8174ZM12.988 5.91824C12.879 6.17021 12.6899 6.2962 12.4206 6.2962H9.95911V10.5294C9.95911 10.6932 9.89821 10.8349 9.77642 10.9546C9.65462 11.0743 9.51039 11.1341 9.34372 11.1341H6.88219C6.71552 11.1341 6.57129 11.0743 6.44949 10.9546C6.3277 10.8349 6.2668 10.6932 6.2668 10.5294V6.2962H3.80526C3.53603 6.2962 3.34693 6.17021 3.23796 5.91824C3.12898 5.67256 3.17385 5.45523 3.37257 5.26625L7.68026 1.03305C7.79565 0.91336 7.93988 0.853516 8.11296 0.853516C8.28603 0.853516 8.43026 0.91336 8.54565 1.03305L12.8533 5.26625C13.0521 5.45523 13.0969 5.67256 12.988 5.91824Z" fill="white"/>
</svg>
