<?xml version="1.0" encoding="UTF-8"?>
<svg version="1.1" xmlns="http://www.w3.org/2000/svg" width="523" height="463">
<path d="M0 0 C1.5050926 1.07177713 3.01031253 2.14337545 4.515625 3.21484375 C13.92439099 9.97317443 22.61876955 17.01163972 31 25 C32.38897701 26.19551236 33.78414369 27.38389998 35.1875 28.5625 C72.41404083 61.04972763 95.97911547 113.45339464 99.83227539 162.12304688 C103.14292995 218.91016967 85.5039098 272.72700904 47.69189453 315.47900391 C38.45198114 325.8275757 28.90702974 335.39686157 18 344 C17.03578125 344.78117187 16.0715625 345.56234375 15.078125 346.3671875 C6.5188146 353.16684272 -2.55271357 358.9951081 -11.87304688 364.69580078 C-13.62719831 365.77140649 -15.36990389 366.86565534 -17.109375 367.96484375 C-53.25244649 390.16253939 -99.84477197 401.995264 -142 403 C-142.68271973 403.02046387 -143.36543945 403.04092773 -144.06884766 403.06201172 C-185.30895268 404.18513859 -229.47364332 397.66015805 -266.91015625 379.6640625 C-269.49619281 378.5045954 -270.81450092 377.99864993 -273.68359375 378.01953125 C-276.69989016 379.29624356 -279.31608299 380.90079748 -282.0625 382.6875 C-299.8980117 393.98155543 -319.73401639 401.88783287 -341 403 C-342.32837891 403.07927734 -342.32837891 403.07927734 -343.68359375 403.16015625 C-361.14935416 403.70522069 -376.8606177 398.01883633 -393 392 C-393 389 -393 389 -391.21508789 386.95385742 C-390.39258545 386.17888916 -389.57008301 385.4039209 -388.72265625 384.60546875 C-387.36914062 383.3059729 -387.36914062 383.3059729 -385.98828125 381.98022461 C-385.50955566 381.52436981 -385.03083008 381.06851501 -384.53759766 380.59884644 C-369.72046738 366.42208742 -359.17497443 351.51780197 -355 331 C-354.7628125 329.86175781 -354.525625 328.72351563 -354.28125 327.55078125 C-353.24336332 320.75099983 -353.24336332 320.75099983 -355.52734375 314.484375 C-357.04309784 312.8726871 -358.60974341 311.30808523 -360.2109375 309.78125 C-389.70870057 280.36611372 -406.85801573 230.0162685 -408 189 C-408.02578125 188.19079102 -408.0515625 187.38158203 -408.078125 186.54785156 C-409.52541504 134.86150584 -392.50154743 83.97884747 -358 45 C-357.34515625 44.236875 -356.6903125 43.47375 -356.015625 42.6875 C-344.79896268 29.86845735 -332.75621982 18.05192103 -319 8 C-318.34950684 7.5157959 -317.69901367 7.0315918 -317.02880859 6.53271484 C-306.50266091 -1.28348302 -295.609531 -7.92393478 -284 -14 C-283.33145996 -14.35545898 -282.66291992 -14.71091797 -281.97412109 -15.07714844 C-197.81774486 -59.67856207 -89.68906771 -55.33015942 0 0 Z M-319.90234375 43.96875 C-320.40749512 44.46503906 -320.91264648 44.96132812 -321.43310547 45.47265625 C-323.05990271 47.05839068 -324.71696777 48.60744262 -326.37890625 50.15625 C-358.68268971 80.73716501 -379.82924086 125.3337129 -381.28125 169.96484375 C-382.21259376 219.19301395 -365.52137796 265.55869846 -331.75 301.75 C-331.04359375 302.46671875 -330.3371875 303.1834375 -329.609375 303.921875 C-324.35678378 310.70434716 -327.06835659 322.38467885 -328.01367188 330.34545898 C-330.18556362 346.81623736 -336.43577858 361.33944715 -344 376 C-321.11421561 374.69352806 -298.77127427 364.70080907 -281.79248047 349.32910156 C-280.15625 347.9296875 -280.15625 347.9296875 -277 346 C-274.14453125 346.4296875 -274.14453125 346.4296875 -271 348 C-270.34757324 348.30728027 -269.69514648 348.61456055 -269.02294922 348.93115234 C-266.73125273 350.01169318 -264.4607 351.13112137 -262.1875 352.25 C-253.30174253 356.52178545 -244.39528172 360.03085375 -235 363 C-234.10684082 363.28617187 -233.21368164 363.57234375 -232.29345703 363.8671875 C-179.14324841 380.71683874 -121.7091466 380.54199797 -69 362 C-67.90558594 361.61787354 -67.90558594 361.61787354 -66.7890625 361.22802734 C-35.37530559 350.08368965 -7.45153356 332.35272702 16.57177734 309.36523438 C17.84762576 308.14565415 19.13589562 306.9390991 20.42578125 305.734375 C53.00605243 274.48509181 72.98960882 227.83834587 74.03125 182.92578125 C74.18567043 135.5669653 56.4947055 91.02590899 24.28515625 56.4765625 C22.35870364 54.3887489 20.55134949 52.25662494 18.75 50.0625 C4.55102088 33.85857244 -15.00081001 20.83775276 -34 11 C-34.63437988 10.66307129 -35.26875977 10.32614258 -35.92236328 9.97900391 C-122.08830169 -35.75909122 -230.78737112 -26.36937921 -319.90234375 43.96875 Z " fill="#000000" transform="translate(415,53)"/>
<path d="M0 0 C0.75539062 -0.02449219 1.51078125 -0.04898438 2.2890625 -0.07421875 C5.88614203 -0.09308455 8.12375075 0.10225077 11.32421875 1.84375 C14.50153032 5.33933216 16.72949821 9.15736126 19.0625 13.25 C24.23281295 22.11740017 29.65734681 30.7866963 35.25561523 39.39013672 C35.82610596 40.27459473 36.39659668 41.15905273 36.984375 42.0703125 C37.49452148 42.85422363 38.00466797 43.63813477 38.53027344 44.44580078 C39.625 46.375 39.625 46.375 39.625 48.375 C40.285 48.375 40.945 48.375 41.625 48.375 C41.90174561 47.64031494 42.17849121 46.90562988 42.46362305 46.14868164 C43.53957803 43.57901073 44.7392574 41.35768241 46.20703125 38.99609375 C46.72088379 38.16634033 47.23473633 37.33658691 47.76416016 36.48168945 C48.3163623 35.60085693 48.86856445 34.72002441 49.4375 33.8125 C50.00774902 32.89879639 50.57799805 31.98509277 51.16552734 31.04370117 C52.97796486 28.14940764 54.79957232 25.26111655 56.625 22.375 C57.23037598 21.4169043 57.83575195 20.45880859 58.45947266 19.47167969 C60.21415161 16.70452211 61.97952559 13.94457273 63.75 11.1875 C64.29374268 10.332771 64.83748535 9.47804199 65.39770508 8.59741211 C65.90841553 7.80858643 66.41912598 7.01976074 66.9453125 6.20703125 C67.39148926 5.51327393 67.83766602 4.8195166 68.29736328 4.10473633 C70.0446533 1.82824685 71.69330449 0.49794252 74.58618164 0.11621094 C75.31184326 0.11395508 76.03750488 0.11169922 76.78515625 0.109375 C77.57857422 0.10679687 78.37199219 0.10421875 79.18945312 0.1015625 C80.01380859 0.10929688 80.83816406 0.11703125 81.6875 0.125 C82.51572266 0.11726562 83.34394531 0.10953125 84.19726562 0.1015625 C84.98939453 0.10414063 85.78152344 0.10671875 86.59765625 0.109375 C87.32218994 0.11163086 88.04672363 0.11388672 88.79321289 0.11621094 C90.625 0.375 90.625 0.375 92.625 2.375 C92.87668228 4.38027191 92.87668228 4.38027191 92.87896729 6.89196777 C92.88460693 7.84262619 92.89024658 8.79328461 92.89605713 9.77275085 C92.89200867 10.81905167 92.88796021 11.86535248 92.88378906 12.94335938 C92.8872937 14.04259232 92.89079834 15.14182526 92.89440918 16.27436829 C92.90324076 19.922559 92.89737224 23.57055717 92.890625 27.21875 C92.89197124 29.7445886 92.89391142 32.27042694 92.89642334 34.79626465 C92.89937654 40.09581197 92.89526026 45.39528973 92.88574219 50.69482422 C92.87485733 56.82626544 92.87838281 62.95757367 92.889395 69.08901167 C92.89955548 74.98153768 92.89849159 80.87402226 92.89263153 86.76655579 C92.89129356 89.27688109 92.89294786 91.78720976 92.89759064 94.29753113 C92.9026471 97.80066023 92.89495788 101.30353086 92.88378906 104.80664062 C92.88783752 105.85294144 92.89188599 106.89924225 92.89605713 107.97724915 C92.89041748 108.92790756 92.88477783 109.87856598 92.87896729 110.85803223 C92.87821323 111.68689186 92.87745918 112.5157515 92.87668228 113.36972809 C92.625 115.375 92.625 115.375 90.625 117.375 C88.77734375 117.61791992 88.77734375 117.61791992 86.5625 117.60546875 C85.76585937 117.60353516 84.96921875 117.60160156 84.1484375 117.59960938 C83.31570313 117.58736328 82.48296875 117.57511719 81.625 117.5625 C80.79226563 117.56185547 79.95953125 117.56121094 79.1015625 117.56054688 C72.90586515 117.51543257 72.90586515 117.51543257 70.625 116.375 C69.45445265 112.86335795 69.46433774 110.04003216 69.41967773 106.33325195 C69.40977814 105.62080322 69.39987854 104.90835449 69.38967896 104.17431641 C69.358105 101.82067176 69.33332281 99.46700694 69.30859375 97.11328125 C69.28802067 95.48088559 69.26702411 93.84849521 69.24562073 92.21611023 C69.19043656 87.92044354 69.14101117 83.62472906 69.09277344 79.32897949 C69.04253173 74.94518788 68.9868596 70.56146562 68.93164062 66.17773438 C68.82410375 57.57688157 68.72264886 48.97597072 68.625 40.375 C62.33074014 50.43012569 56.06096519 60.4992955 49.84570312 70.60351562 C49.30751953 71.47556641 48.76933594 72.34761719 48.21484375 73.24609375 C47.73909912 74.01880615 47.26335449 74.79151855 46.77319336 75.58764648 C45.059608 78.25512648 45.059608 78.25512648 42.62988281 78.92529297 C39.58803141 79.30305063 37.57038371 79.28282374 34.625 78.375 C31.05389172 74.56404116 28.77911697 70.0898936 26.375 65.5 C25.70404397 64.28190688 25.02958934 63.065734 24.3515625 61.8515625 C23.08370933 59.57432048 21.84283269 57.2891148 20.61621094 54.98876953 C18.11546907 50.35615622 15.35649402 45.87392718 12.625 41.375 C12.61469254 42.25561096 12.60438507 43.13622192 12.59376526 44.04351807 C12.49578965 52.34224306 12.39327502 60.64089689 12.28566074 68.93950272 C12.23049532 73.20589902 12.17708557 77.47230226 12.12768555 81.73876953 C12.07994782 85.85609593 12.0276017 89.97334029 11.97205925 94.09056854 C11.9516783 95.66141467 11.93295825 97.23228325 11.91592598 98.80316925 C11.89178748 101.00330212 11.86174615 103.20328111 11.83032227 105.40332031 C11.81477798 106.65574524 11.7992337 107.90817017 11.78321838 109.19854736 C11.65382723 111.79625349 11.53794788 113.94893754 10.625 116.375 C7.35688198 118.00905901 3.77500593 117.55953757 0.1875 117.5625 C-0.58916016 117.57474609 -1.36582031 117.58699219 -2.16601562 117.59960938 C-6.08732309 117.60974195 -8.04118745 117.5975417 -11.375 115.375 C-11.75252342 113.36972809 -11.75252342 113.36972809 -11.75595093 110.85803223 C-11.7644104 109.90737381 -11.77286987 108.95671539 -11.78158569 107.97724915 C-11.775513 106.93094833 -11.76944031 105.88464752 -11.76318359 104.80664062 C-11.76844055 103.70740768 -11.77369751 102.60817474 -11.77911377 101.47563171 C-11.79236143 97.82736165 -11.78355858 94.17952481 -11.7734375 90.53125 C-11.77545686 88.00541093 -11.77836713 85.47957242 -11.78213501 82.95373535 C-11.78656484 77.65415369 -11.78039044 72.35472856 -11.76611328 67.05517578 C-11.74978584 60.9236778 -11.75507407 54.79247906 -11.7715925 48.66098833 C-11.78683325 42.7684482 -11.78523742 36.87600126 -11.7764473 30.98344421 C-11.77444034 28.47311868 -11.77692181 25.96278555 -11.78388596 23.45246887 C-11.79147089 19.94922402 -11.77993726 16.44656071 -11.76318359 12.94335938 C-11.76925629 11.89705856 -11.77532898 10.85075775 -11.78158569 9.77275085 C-11.76889648 8.34676323 -11.76889648 8.34676323 -11.75595093 6.89196777 C-11.75481985 6.06310814 -11.75368877 5.2342485 -11.75252342 4.38027191 C-11.62794069 3.71853218 -11.50335796 3.05679245 -11.375 2.375 C-7.56534402 -0.16477065 -4.41664491 0.00746055 0 0 Z " fill="#000000" transform="translate(213.375,174.625)"/>
<path d="M0 0 C0.97372559 0.00080566 1.94745117 0.00161133 2.95068359 0.00244141 C20.77447553 0.15401943 20.77447553 0.15401943 27.3125 4.1875 C29.47631106 9.81340875 27.32718757 15.75583131 25.3125 21.1875 C24.6525 21.8475 23.9925 22.5075 23.3125 23.1875 C19.52851278 22.89642406 15.86671022 22.28406178 12.12890625 21.6328125 C2.77520738 20.11035984 -6.17921957 19.38306331 -15.3125 22.375 C-18.36403454 24.70380268 -19.47497757 26.54993271 -20.6875 30.1875 C-20.5862255 35.14995043 -18.96993951 37.5773815 -15.6875 41.1875 C-13.23670079 42.81148977 -13.23670079 42.81148977 -10.4375 44.0625 C-9.38175781 44.5678125 -8.32601562 45.073125 -7.23828125 45.59375 C-4.7445887 46.71303115 -2.25350956 47.79610366 0.26953125 48.84375 C12.10345136 53.77349004 23.855319 59.46891226 30.3125 71.1875 C34.39288961 82.25866463 34.24175915 92.10190955 30.3125 103.1875 C26.05734597 111.58546076 18.20656725 115.96801688 9.5625 119 C-7.53388464 124.38340356 -31.63307475 123.40139199 -47.6875 115.1875 C-49.21021991 113.66478009 -48.89331982 112.30814841 -48.9375 110.1875 C-48.87544611 105.3472964 -48.20816878 100.40115528 -45.6875 96.1875 C-43.01694496 94.8400836 -41.64714519 95.19764208 -38.734375 95.9296875 C-37.10242188 96.49042969 -37.10242188 96.49042969 -35.4375 97.0625 C-22.70078077 101.18027991 -9.9355847 101.55043989 2.75 96.9375 C6.11858393 94.63700366 7.15014918 93.11043401 8.3125 89.1875 C8.26936442 85.17589141 7.77440897 81.85596441 5.06494141 78.76367188 C-0.06814575 73.94314168 -6.15656286 71.42838802 -12.5625 68.6875 C-24.46255498 63.55791108 -36.91082686 57.99889251 -42.5625 45.5 C-45.748723 36.1183434 -45.89965539 26.31383668 -41.6875 17.1875 C-35.96615524 8.54493953 -27.63109315 3.61196752 -17.6875 1.1875 C-11.77753957 0.11093686 -5.98660165 -0.00511588 0 0 Z " fill="#000000" transform="translate(150.6875,171.8125)"/>
<path d="M0 0 C1.48822728 4.00354099 0.74894694 7.13790385 -0.3125 11.1875 C-0.57675781 12.23292969 -0.84101563 13.27835938 -1.11328125 14.35546875 C-2 17 -2 17 -4 19 C-7.78398722 18.70892406 -11.44578978 18.09656178 -15.18359375 17.4453125 C-24.53729262 15.92285984 -33.49171957 15.19556331 -42.625 18.1875 C-45.70133077 20.53522611 -46.7970081 22.32026008 -48 26 C-48.122854 29.43991204 -48.03568792 31.76882649 -45.75439453 34.48071289 C-40.61650617 39.00982104 -35.06171211 41.40238426 -28.75 43.9375 C-15.50256349 49.49750989 -3.08214021 54.9294286 3.375 68.625 C7.43781455 78.78203637 6.60547793 88.82789117 3 99 C-1.25515403 107.39796076 -9.10593275 111.78051688 -17.75 114.8125 C-34.84638464 120.19590356 -58.94557475 119.21389199 -75 111 C-76.52271991 109.47728009 -76.20581982 108.12064841 -76.25 106 C-76.18794611 101.1597964 -75.52066878 96.21365528 -73 92 C-70.32944496 90.6525836 -68.95964519 91.01014208 -66.046875 91.7421875 C-64.41492188 92.30292969 -64.41492188 92.30292969 -62.75 92.875 C-50.01328077 96.99277991 -37.2480847 97.36293989 -24.5625 92.75 C-21.19391607 90.44950366 -20.16235082 88.92293401 -19 85 C-19.04313558 80.98839141 -19.53809103 77.66846441 -22.24755859 74.57617188 C-27.38064575 69.75564168 -33.46906286 67.24088802 -39.875 64.5 C-51.77505498 59.37041108 -64.22332686 53.81139251 -69.875 41.3125 C-73.0475522 31.97109631 -73.14006509 22.76088198 -69.37890625 13.57421875 C-64.46159531 4.39430966 -56.23354243 0.27237928 -46.625 -2.74609375 C-34.49111722 -5.56566587 -10.64325965 -7.52123682 0 0 Z " fill="#000000" transform="translate(401,176)"/>
</svg>
