<?xml version="1.0" standalone="no"?>
<!DOCTYPE svg PUBLIC "-//W3C//DTD SVG 20010904//EN"
 "http://www.w3.org/TR/2001/REC-SVG-20010904/DTD/svg10.dtd">
<svg version="1.0" xmlns="http://www.w3.org/2000/svg"
 width="451.000000pt" height="449.000000pt" viewBox="0 0 451.000000 449.000000"
 preserveAspectRatio="xMidYMid meet">

<g transform="translate(0.000000,449.000000) scale(0.100000,-0.100000)"
fill="#000000" stroke="none">
<path d="M2010 4364 c-987 -139 -1742 -913 -1850 -1899 -23 -213 -9 -306 56
-367 98 -91 273 -44 312 84 6 18 13 94 16 168 25 617 413 1195 987 1469 146
70 263 110 414 142 99 22 135 24 350 24 264 -1 330 -10 540 -77 128 -41 345
-150 457 -230 l88 -63 -70 -7 c-39 -4 -82 -14 -97 -22 -63 -32 -113 -112 -113
-178 1 -77 74 -169 147 -185 21 -4 173 -8 338 -8 295 0 301 0 348 24 30 15 58
39 75 64 l27 40 3 330 c3 318 2 331 -18 373 -25 51 -63 81 -128 100 -40 12
-53 12 -98 -1 -89 -26 -144 -106 -144 -213 l0 -42 -77 58 c-269 204 -573 338
-918 403 -146 28 -490 35 -645 13z"/>
<path d="M3025 2855 c-5 -2 -23 -6 -39 -10 -21 -4 -143 -118 -429 -402 l-399
-395 -187 185 c-154 153 -193 187 -229 198 -83 24 -186 -24 -223 -105 -22 -49
-24 -114 -5 -159 18 -42 494 -515 548 -544 48 -27 121 -30 173 -9 41 17 968
925 992 971 20 37 19 124 0 161 -39 74 -141 129 -202 109z"/>
<path d="M4181 2429 c-19 -6 -49 -22 -67 -35 -53 -41 -67 -83 -75 -233 -33
-566 -314 -1062 -778 -1373 -606 -405 -1403 -393 -1980 30 l-85 62 54 0 c30 0
73 5 95 11 52 14 111 76 126 131 26 97 -36 212 -126 237 -25 7 -153 11 -343
11 -251 0 -309 -3 -340 -15 -47 -20 -79 -50 -103 -97 -18 -34 -19 -62 -19
-355 0 -287 2 -322 19 -358 50 -111 189 -147 288 -76 48 35 75 87 82 163 l6
58 95 -71 c786 -587 1875 -550 2642 90 415 347 693 874 748 1420 17 170 14
250 -12 301 -42 82 -141 125 -227 99z"/>
</g>
</svg>
