<svg width="23" height="20" viewBox="0 0 23 20" fill="none" xmlns="http://www.w3.org/2000/svg">
<path d="M0.43457 16.8655C0.43457 13.09 3.58886 10.0293 10.0346 10.0293C12.3996 10.0293 14.3215 10.4414 15.8071 11.1496C15.7246 11.1678 15.6396 11.1739 15.5548 11.1673C15.4196 11.1569 15.2887 11.1147 15.1728 11.0441C14.401 10.5738 13.5179 11.457 13.9881 12.2287C14.2919 12.7271 14.0225 13.3774 13.4554 13.5152C12.5773 13.7284 12.5773 14.9777 13.4554 15.1904C13.5873 15.2223 13.7098 15.285 13.8129 15.3732C13.916 15.4615 13.9968 15.5728 14.0487 15.6982C14.1007 15.8236 14.1222 15.9595 14.1117 16.0948C14.1012 16.2301 14.0588 16.361 13.9881 16.4768C13.5179 17.2486 14.401 18.1317 15.1728 17.6615C15.2886 17.5908 15.4196 17.5484 15.5549 17.5379C15.6902 17.5274 15.826 17.5489 15.9514 17.6009C16.0768 17.6528 16.1882 17.7336 16.2764 17.8367C16.3077 17.8732 16.3357 17.9122 16.3604 17.9531H1.41339C0.872804 17.9531 0.43457 17.4662 0.43457 16.8655Z" fill="white"/>
<path d="M19.0389 17.5382C19.1494 17.5467 19.257 17.5765 19.3559 17.6256C19.1781 17.8277 18.9301 17.9531 18.6557 17.9531H18.2336C18.2582 17.9122 18.2863 17.8734 18.3175 17.8369C18.4058 17.7339 18.5171 17.6531 18.6425 17.6012C18.7678 17.5493 18.9036 17.5277 19.0389 17.5382Z" fill="white"/>
<path fill-rule="evenodd" clip-rule="evenodd" d="M18.1194 10.5449C17.9056 9.66734 16.6569 9.66734 16.4431 10.5449C16.4112 10.6767 16.3486 10.7992 16.2604 10.9023C16.1722 11.0054 16.0609 11.0862 15.9356 11.1382C15.8103 11.1901 15.6745 11.2118 15.5392 11.2014C15.4039 11.1909 15.273 11.1487 15.1572 11.0781C14.3854 10.6079 13.5023 11.491 13.9725 12.2628C14.2763 12.7611 14.0068 13.4114 13.4398 13.5492C12.5617 13.7624 12.5617 15.0117 13.4398 15.2244C13.5717 15.2563 13.6942 15.319 13.7973 15.4072C13.9004 15.4955 13.9812 15.6068 14.0331 15.7322C14.085 15.8576 14.1066 15.9935 14.0961 16.1288C14.0856 16.2641 14.0432 16.395 13.9725 16.5108C13.5023 17.2826 14.3854 18.1657 15.1572 17.6955C15.273 17.6248 15.4039 17.5824 15.5392 17.5719C15.6745 17.5614 15.8104 17.5829 15.9358 17.6349C16.0612 17.6868 16.1726 17.7676 16.2608 17.8707C16.3491 17.9738 16.4117 18.0963 16.4437 18.2282C16.6569 19.1062 17.9062 19.1062 18.1188 18.2282C18.1509 18.0963 18.2136 17.9739 18.3019 17.8709C18.3902 17.7679 18.5015 17.6871 18.6268 17.6352C18.7522 17.5833 18.888 17.5617 19.0233 17.5722C19.1586 17.5827 19.2894 17.6249 19.4053 17.6955C20.1771 18.1657 21.0602 17.2826 20.59 16.5108C20.5194 16.395 20.4772 16.2641 20.4667 16.1288C20.4562 15.9935 20.4778 15.8577 20.5297 15.7324C20.5816 15.607 20.6624 15.4957 20.7654 15.4074C20.8685 15.3191 20.9909 15.2564 21.1227 15.2244C22.0008 15.0112 22.0008 13.7618 21.1227 13.5492C20.9908 13.5173 20.8683 13.4546 20.7652 13.3664C20.6621 13.2781 20.5813 13.1668 20.5294 13.0414C20.4775 12.916 20.4559 12.7801 20.4664 12.6448C20.4769 12.5095 20.5193 12.3786 20.59 12.2628C21.0602 11.491 20.1771 10.6079 19.4053 11.0781C19.2895 11.1488 19.1586 11.1911 19.0233 11.2017C18.888 11.2122 18.7521 11.1906 18.6267 11.1387C18.5013 11.0868 18.3899 11.006 18.3017 10.9029C18.2134 10.7998 18.1508 10.6773 18.1188 10.5454L18.1194 10.5449Z" stroke="white" stroke-width="0.5"/>
<path d="M18.2812 14.3867C18.2812 14.939 17.8335 15.3867 17.2812 15.3867C16.729 15.3867 16.2812 14.939 16.2812 14.3867C16.2812 13.8344 16.729 13.3867 17.2812 13.3867C17.8335 13.3867 18.2812 13.8344 18.2812 14.3867Z" stroke="white" stroke-width="0.5"/>
<circle cx="9.79688" cy="4.57129" r="4.17871" fill="white"/>
</svg>
