<?xml version="1.0" encoding="UTF-8"?>
<svg version="1.1" xmlns="http://www.w3.org/2000/svg" width="485" height="404">
<path d="M0 0 C1.47362784 -0.00572027 2.94725127 -0.01269084 4.42086792 -0.02079773 C8.3797299 -0.03856223 12.33836823 -0.03759261 16.2972579 -0.03185534 C19.62183725 -0.02873885 22.94637513 -0.03488305 26.27094853 -0.04089409 C34.12402765 -0.05488306 41.97699785 -0.0534254 49.83007812 -0.04199219 C57.88835372 -0.03051832 65.9462962 -0.04458717 74.00452793 -0.07138866 C80.96383731 -0.09365476 87.92304296 -0.10015859 94.88238537 -0.09431225 C99.02096428 -0.09096719 103.15932986 -0.09319217 107.29787827 -0.11056328 C111.19368432 -0.1262057 115.08900281 -0.121889 118.9847908 -0.10325813 C120.40035672 -0.09961938 121.81596021 -0.10253979 123.23149109 -0.11314392 C136.3350535 -0.20368166 149.44587412 1.87814202 161.08642578 8.21655273 C162.07980957 8.73910645 162.07980957 8.73910645 163.09326172 9.2722168 C182.94518545 19.91997872 197.97351215 36.520523 205.05329895 58.07064819 C208.43709262 70.06797019 209.17412962 81.47965049 209.14501953 93.86889648 C209.14959465 95.59949444 209.15490412 97.3300906 209.16090393 99.0606842 C209.16976052 102.65674307 209.16749312 106.25257889 209.1574707 109.84863281 C209.14591446 114.44044946 209.16633139 119.03150461 209.19538784 123.6232214 C209.21377396 127.18444125 209.21345389 130.74547866 209.20775032 134.30673409 C209.20759781 135.9999048 209.21358388 137.69308842 209.22604179 139.3862133 C209.33782692 157.04280936 209.33782692 157.04280936 202.96533203 164.42749023 C202.40716797 164.87350586 201.84900391 165.31952148 201.27392578 165.77905273 C200.71833984 166.24053711 200.16275391 166.70202148 199.59033203 167.17749023 C193.92955515 170.87288304 188.66426115 170.69157542 182.1035614 170.67147827 C181.02279243 170.67600938 179.94202345 170.6805405 178.82850391 170.68520892 C175.20048606 170.69788741 171.57261766 170.6962303 167.94458008 170.69458008 C165.3460165 170.70056317 162.74745471 170.7073682 160.14889526 170.7149353 C153.81886664 170.73154124 147.48887526 170.73704467 141.15882667 170.73816006 C136.01265104 170.73911075 130.86648768 170.74322212 125.72031593 170.74956131 C111.12593072 170.76717283 96.53157491 170.77640035 81.93717899 170.77490036 C81.15055397 170.77482045 80.36392894 170.77474054 79.5534668 170.7746582 C78.76587987 170.77457644 77.97829295 170.77449468 77.16683976 170.77441044 C64.40435494 170.77359763 51.64198816 170.79273429 38.87953749 170.82093494 C25.7711883 170.84967104 12.66289667 170.86347482 -0.44548482 170.86174738 C-7.80325409 170.86108372 -15.16089963 170.86656562 -22.51864052 170.88810349 C-29.43877689 170.90823072 -36.35864791 170.90763412 -43.27879715 170.89307022 C-45.81844781 170.89097667 -48.35811469 170.89571535 -50.8977375 170.90779114 C-54.36538625 170.92321146 -57.83212985 170.91395548 -61.29975891 170.89852905 C-62.30414688 170.90881618 -63.30853485 170.91910331 -64.34335881 170.92970216 C-71.48538051 170.85951704 -76.80486683 169.34973581 -82.31201172 164.69311523 C-82.98103516 163.8694043 -82.98103516 163.8694043 -83.66357422 163.02905273 C-84.12505859 162.48506836 -84.58654297 161.94108398 -85.06201172 161.38061523 C-88.1403595 156.41996563 -88.58356565 151.39844638 -88.56323242 145.69311523 C-88.56834335 144.9441951 -88.57345428 144.19527496 -88.57872009 143.42366028 C-88.59256592 140.95870864 -88.59166175 138.49403855 -88.58935547 136.02905273 C-88.59324788 134.29996641 -88.59758366 132.57088104 -88.6023407 130.84179688 C-88.6097942 127.21717229 -88.60951994 123.59264509 -88.60424805 119.96801758 C-88.59848392 115.35984807 -88.61531418 110.7520845 -88.63859272 106.14398193 C-88.6534524 102.56965872 -88.65418479 98.99543019 -88.65108299 95.42108154 C-88.65159106 93.72449954 -88.65673028 92.02791149 -88.66689491 90.33135986 C-88.80020698 64.94852106 -81.50251872 42.44654237 -63.53857422 24.02905273 C-46.0970043 6.9905443 -24.08111168 -0.08588406 0 0 Z M-30.28857422 53.40405273 C-31.58794922 54.54874023 -31.58794922 54.54874023 -32.91357422 55.71655273 C-51.03202904 76.21901477 -45.28857422 100.15176061 -45.28857422 127.40405273 C24.34142578 127.40405273 93.97142578 127.40405273 165.71142578 127.40405273 C168.88335089 88.3507873 168.88335089 88.3507873 153.71142578 55.40405273 C142.76928328 45.41997801 131.10142556 42.79299934 116.59619141 42.88647461 C115.2247392 42.88103921 113.85329285 42.87390868 112.4818573 42.86523438 C108.79371459 42.84716599 105.10602483 42.85399927 101.41787529 42.86675072 C97.53577437 42.87696485 93.65370908 42.86746192 89.77160645 42.86120605 C83.2555453 42.8539539 76.73966623 42.86345306 70.22363281 42.88256836 C62.71856483 42.90433252 55.21393169 42.89727942 47.70887423 42.87526274 C41.23457542 42.85703897 34.76040658 42.85458429 28.28609037 42.86501741 C24.43266403 42.87121424 20.57944125 42.87219429 16.72602844 42.85887146 C13.10108161 42.84721118 9.47668868 42.85552113 5.85180092 42.87844849 C3.9076117 42.88615378 1.96337494 42.87446714 0.01921082 42.86193848 C-11.65258139 42.97298367 -21.48404541 45.52740167 -30.28857422 53.40405273 Z " fill="#000000" transform="translate(97.28857421875,224.595947265625)"/>
<path d="M0 0 C1.06089844 0.36222656 2.12179688 0.72445313 3.21484375 1.09765625 C23.34075951 8.7387697 39.88645292 24.65590263 49.02954102 44.02416992 C53.72717938 54.57017226 56.3933477 65.45464843 57 77 C57.04125 77.77472656 57.0825 78.54945312 57.125 79.34765625 C57.68371544 100.82328106 50.00805828 120.89671933 36 137 C35.21625 138.03125 34.4325 139.0625 33.625 140.125 C19.46613501 155.63232832 -1.87509622 165.2763487 -22.71875 166.25390625 C-45.69392534 166.96198661 -64.74271117 161.10630601 -83 147 C-84.5159375 145.88625 -84.5159375 145.88625 -86.0625 144.75 C-102.18257416 130.71872418 -112.12761072 108.41185098 -113.68530273 87.31762695 C-115.04033907 62.62787657 -107.35704763 40.87461765 -91.1875 22.1875 C-68.10032806 -2.07722476 -31.70816834 -11.00226546 0 0 Z M-62.20703125 55.4921875 C-69.83394575 66.15989798 -71.6034687 78.06664728 -69.5390625 90.85546875 C-66.71904746 101.2895244 -60.52960786 111.10024799 -51.16796875 116.69140625 C-39.61682337 122.72124944 -29.14006439 124.94981383 -16.375 121.375 C-4.69918508 117.40936819 3.86961388 110.06671885 9.875 99.25 C14.87059648 88.2935562 15.00667884 76.61914601 11.0625 65.3125 C6.56623627 55.32080281 -1.65450131 46.03226989 -11.8671875 41.81640625 C-31.00226814 35.18566488 -49.11092279 40.06962464 -62.20703125 55.4921875 Z " fill="#000000" transform="translate(186,17)"/>
<path d="M0 0 C1.74731918 -0.01279495 1.74731918 -0.01279495 3.52993774 -0.02584839 C5.43374962 -0.02448883 5.43374962 -0.02448883 7.37602234 -0.02310181 C8.73322417 -0.02908965 10.0904226 -0.03589579 11.44761658 -0.04345703 C15.12751063 -0.06109948 18.80731163 -0.0658117 22.48724389 -0.0670886 C24.78875901 -0.0685119 27.0902506 -0.0727849 29.39175987 -0.07808304 C37.42803317 -0.09657837 45.46424018 -0.10475438 53.50053406 -0.10317993 C60.97994606 -0.10197906 68.45906925 -0.1230719 75.9384082 -0.15466726 C82.36916782 -0.18086053 88.7998333 -0.19154593 95.23064584 -0.19026911 C99.06731239 -0.18976032 102.90372226 -0.19539723 106.74033546 -0.21662521 C110.35118021 -0.23605903 113.9615248 -0.23609754 117.5723877 -0.22159195 C119.51983069 -0.21852019 121.467274 -0.2351448 123.41464233 -0.25247192 C131.39255799 -0.19543252 136.99187988 0.64101116 143.19902039 6.02133179 C147.63002849 11.95068657 149.8266056 18.22199951 148.86308289 25.68930054 C147.25986406 31.50096876 143.92816494 36.54947639 139.17558289 40.26742554 C132.10896066 43.64373964 125.75044633 43.69414696 118.00175476 43.65560913 C116.69670486 43.66086609 115.39165497 43.66612305 114.04705811 43.67153931 C110.48710479 43.68514785 106.927414 43.67994125 103.36745644 43.67040205 C99.63027397 43.66277174 95.89311298 43.66986038 92.15592957 43.67456055 C85.88167818 43.68000833 79.60753297 43.67285225 73.33329773 43.65853882 C66.09413694 43.64221413 58.85522969 43.64750333 51.61607504 43.66401803 C45.38482043 43.67766086 39.15364184 43.67953894 32.92237711 43.67170203 C29.20765945 43.66704083 25.49306071 43.66635762 21.77835083 43.67631149 C17.63521978 43.6866392 13.49252131 43.67229827 9.34941101 43.65560913 C7.51788231 43.66471817 7.51788231 43.66471817 5.64935303 43.67401123 C-2.21409306 43.61542067 -8.47093179 43.17377949 -14.63691711 37.82992554 C-15.35879211 36.98430054 -16.08066711 36.13867554 -16.82441711 35.26742554 C-17.38129211 34.64867554 -17.93816711 34.02992554 -18.51191711 33.39242554 C-21.80863839 28.0548768 -22.21543115 22.83532225 -21.42988586 16.76351929 C-19.91875287 10.53375163 -16.16866181 5.74118459 -10.82441711 2.26742554 C-7.08160678 0.4960533 -4.12775047 0.01369749 0 0 Z " fill="#000000" transform="translate(326.8244171142578,12.732574462890625)"/>
<path d="M0 0 C1.74731918 -0.01279495 1.74731918 -0.01279495 3.52993774 -0.02584839 C5.43374962 -0.02448883 5.43374962 -0.02448883 7.37602234 -0.02310181 C8.73322417 -0.02908965 10.0904226 -0.03589579 11.44761658 -0.04345703 C15.12751063 -0.06109948 18.80731163 -0.0658117 22.48724389 -0.0670886 C24.78875901 -0.0685119 27.0902506 -0.0727849 29.39175987 -0.07808304 C37.42803317 -0.09657837 45.46424018 -0.10475438 53.50053406 -0.10317993 C60.97994606 -0.10197906 68.45906925 -0.1230719 75.9384082 -0.15466726 C82.36916782 -0.18086053 88.7998333 -0.19154593 95.23064584 -0.19026911 C99.06731239 -0.18976032 102.90372226 -0.19539723 106.74033546 -0.21662521 C110.35118021 -0.23605903 113.9615248 -0.23609754 117.5723877 -0.22159195 C119.51983069 -0.21852019 121.467274 -0.2351448 123.41464233 -0.25247192 C132.00823293 -0.19103065 137.52840713 0.86339483 143.98808289 6.89242554 C147.4574661 11.58907357 149.32563379 17.07884378 149.05058289 22.92367554 C147.96536191 29.35748562 145.63261536 33.81039307 140.98808289 38.45492554 C133.21273154 43.46570751 125.30770139 43.70217486 116.27128601 43.65560913 C115.00671066 43.66086609 113.74213531 43.66612305 112.4392395 43.67153931 C108.99497394 43.68512693 105.55098028 43.67995006 102.10671043 43.67040205 C98.48744902 43.66276074 94.86820955 43.6698634 91.24894714 43.67456055 C85.17318073 43.68000517 79.09752402 43.67286062 73.02177429 43.65853882 C66.01607295 43.64221473 59.01063361 43.64750416 52.0049386 43.66401803 C45.96982421 43.67766995 39.9347883 43.67953453 33.89966345 43.67170203 C30.30397598 43.66704579 26.70841132 43.66634375 23.11273193 43.67631149 C19.10162559 43.6866559 15.0909648 43.67228359 11.07987976 43.65560913 C9.31220497 43.66471817 9.31220497 43.66471817 7.50881958 43.67401123 C-1.47845245 43.60499687 -9.55021236 42.5070594 -16.31269836 36.12289429 C-20.37090104 31.14189617 -22.212007 25.54571124 -21.88691711 19.14242554 C-20.8974757 12.78601401 -17.93135938 8.26902069 -13.32441711 3.89242554 C-8.88539632 1.00706202 -5.28468423 0.01753665 0 0 Z " fill="#000000" transform="translate(326.8244171142578,97.73257446289063)"/>
<path d="M0 0 C1.28218414 -0.00671722 2.56436829 -0.01343445 3.88540649 -0.02035522 C7.38763714 -0.03795021 10.88976991 -0.04270785 14.39204049 -0.0439868 C16.58470111 -0.04541269 18.77733719 -0.04969055 20.96999168 -0.05498123 C28.63251691 -0.07346023 36.29497276 -0.08165455 43.95751953 -0.08007812 C51.0790761 -0.0788774 58.20032927 -0.09997143 65.32180911 -0.13156545 C71.453705 -0.1577914 77.58550218 -0.16844278 83.71745366 -0.16716731 C87.37195377 -0.16665951 91.02618402 -0.17224078 94.68062782 -0.19352341 C98.76125161 -0.21664132 102.84120338 -0.20734649 106.921875 -0.1953125 C108.11857315 -0.20655151 109.3152713 -0.21779053 110.54823303 -0.22937012 C119.23519025 -0.16446067 127.24374794 1.01909468 133.5925293 7.41552734 C137.26302137 12.31997401 139.23603599 17.72083221 139.09643555 23.87255859 C138.18727055 29.9742742 135.81908768 35.16670738 131.1550293 39.29052734 C124.03091532 43.80689375 117.91586881 43.86152116 109.61401367 43.80810547 C108.25636548 43.81353398 106.89872319 43.82066072 105.54109192 43.8293457 C101.8736416 43.84749575 98.20664415 43.84054641 94.53918648 43.82782936 C90.68989014 43.81765824 86.84063097 43.8271064 82.99133301 43.83337402 C76.52873824 43.84063852 70.06632668 43.83109433 63.60375977 43.81201172 C56.14640986 43.79024514 48.68949749 43.79729737 41.23215818 43.81931734 C34.81405264 43.83750564 28.39607834 43.84001297 21.97795534 43.82956266 C18.15142432 43.8233465 14.32509853 43.82244002 10.49858093 43.83570862 C6.89996179 43.84731674 3.30190332 43.83915214 -0.29665565 43.81613159 C-2.23688118 43.80837366 -4.17715447 43.82015799 -6.11735535 43.8326416 C-14.69328088 43.74989556 -20.27024656 42.70637486 -26.6574707 36.60302734 C-30.7455705 30.41247623 -32.58614357 24.75541648 -31.34106445 17.34912109 C-29.70786987 10.57200657 -25.60602894 6.04101492 -19.8449707 2.29052734 C-13.30889547 -0.18477447 -6.92504695 -0.00521851 0 0 Z " fill="#000000" transform="translate(336.844970703125,181.70947265625)"/>
</svg>
