<?xml version="1.0" standalone="no"?>
<!DOCTYPE svg PUBLIC "-//W3C//DTD SVG 20010904//EN"
 "http://www.w3.org/TR/2001/REC-SVG-20010904/DTD/svg10.dtd">
<svg version="1.0" xmlns="http://www.w3.org/2000/svg"
 width="456.000000pt" height="514.000000pt" viewBox="0 0 456.000000 514.000000"
 preserveAspectRatio="xMidYMid meet">

<g transform="translate(0.000000,514.000000) scale(0.100000,-0.100000)"
fill="#000000" stroke="none">
<path d="M138 4987 c-14 -12 -31 -32 -37 -44 -8 -15 -11 -649 -11 -2222 l0
-2201 34 -38 34 -37 1232 -3 1232 -2 -40 47 c-50 61 -94 134 -119 203 l-21 55
-1021 3 -1021 2 0 1975 0 1975 1415 0 1415 0 0 -1001 0 -1001 23 6 c12 4 77 9
145 13 l122 6 0 1118 0 1117 -31 26 -31 26 -1646 0 -1647 0 -27 -23z"/>
<path d="M1343 4388 c-12 -7 -45 -40 -74 -73 -41 -47 -330 -385 -346 -404 -2
-3 -57 48 -122 112 -99 98 -123 117 -149 117 -46 0 -92 -43 -92 -86 0 -32 15
-51 147 -187 81 -84 155 -157 163 -164 22 -18 85 -16 108 5 16 14 359 413 465
540 15 19 27 46 27 62 0 59 -77 106 -127 78z"/>
<path d="M1645 4381 c-47 -28 -69 -69 -69 -128 -1 -56 17 -89 68 -127 27 -20
40 -21 504 -24 450 -2 479 -1 512 16 104 56 108 201 8 262 -32 19 -52 20 -513
20 -450 0 -482 -1 -510 -19z"/>
<path d="M1698 3981 c-53 -11 -87 -37 -109 -84 -25 -55 -24 -85 4 -137 44 -84
14 -80 675 -80 645 0 628 -2 675 64 16 23 22 45 22 88 0 65 -20 100 -76 133
-33 19 -54 20 -594 22 -308 0 -576 -2 -597 -6z"/>
<path d="M1298 3093 c-25 -27 -116 -131 -203 -233 -86 -102 -162 -189 -169
-194 -9 -6 -45 24 -123 105 -105 108 -113 114 -151 114 -54 0 -92 -34 -92 -83
0 -29 14 -49 111 -150 199 -209 203 -212 247 -212 23 0 48 7 60 18 12 9 127
141 257 292 205 239 235 278 235 307 0 48 -37 83 -87 83 -33 0 -46 -7 -85 -47z"/>
<path d="M1670 3129 c-37 -15 -78 -58 -91 -96 -25 -78 25 -169 106 -192 49
-13 881 -15 939 -1 23 5 54 23 74 44 30 29 36 43 40 90 6 70 -22 120 -82 147
-38 17 -73 19 -501 18 -280 0 -470 -4 -485 -10z"/>
<path d="M1647 2708 c-40 -23 -77 -86 -77 -129 1 -42 37 -108 72 -129 32 -19
50 -20 403 -20 352 0 372 1 403 20 100 61 95 211 -8 262 -31 16 -72 18 -395
18 -351 0 -361 -1 -398 -22z"/>
<path d="M3315 2533 c-405 -51 -755 -141 -838 -216 l-36 -32 -10 -134 c-6 -74
-11 -258 -11 -410 0 -541 57 -788 244 -1061 69 -101 231 -262 341 -340 104
-73 304 -179 388 -206 57 -18 57 -18 125 6 37 12 115 47 174 77 400 202 670
543 747 943 32 167 41 294 41 565 0 325 -15 553 -38 579 -69 76 -332 152 -732
212 -151 22 -304 29 -395 17z m438 -273 c246 -41 443 -97 480 -138 26 -28 42
-427 28 -652 -19 -297 -63 -453 -176 -626 -127 -195 -397 -403 -602 -464 -40
-12 -48 -11 -110 15 -325 136 -583 400 -672 688 -34 112 -53 243 -60 432 -8
215 5 583 22 604 33 40 218 96 447 135 80 14 170 30 200 35 85 15 236 5 443
-29z"/>
<path d="M3872 1873 c-13 -5 -206 -233 -421 -498 -63 -77 -117 -143 -121 -147
-3 -5 -67 58 -140 138 -74 80 -147 152 -162 160 -15 8 -44 14 -64 14 -53 0
-104 -55 -104 -111 0 -22 5 -50 12 -62 6 -12 77 -92 157 -177 258 -274 242
-260 290 -260 24 0 55 7 69 16 15 9 144 158 287 331 398 482 365 437 365 490
0 38 -5 50 -34 79 -29 29 -41 34 -77 33 -24 0 -50 -3 -57 -6z"/>
<path d="M1313 1853 c-14 -16 -104 -120 -201 -233 -96 -113 -179 -209 -184
-214 -5 -6 -56 38 -126 107 -133 131 -153 140 -211 91 -24 -20 -31 -34 -31
-61 0 -31 14 -49 131 -172 190 -196 184 -191 227 -191 21 0 46 6 55 13 9 6
124 138 256 292 209 243 241 284 241 313 0 77 -102 112 -157 55z"/>
<path d="M1642 1850 c-35 -21 -71 -87 -72 -129 0 -36 36 -103 68 -126 25 -19
45 -20 275 -23 234 -3 251 -2 290 18 53 26 78 61 85 115 6 55 -20 109 -67 141
-35 24 -37 24 -291 24 -238 0 -257 -1 -288 -20z"/>
<path d="M1650 1442 c-49 -24 -83 -92 -76 -150 7 -52 28 -85 71 -112 30 -19
49 -20 280 -20 274 0 295 4 338 64 31 43 31 129 0 172 -43 60 -65 64 -335 64
-211 0 -248 -2 -278 -18z"/>
</g>
</svg>
